BJCree-Regular.ufo
<glyph name="exclam" format="2">
  <advance width="606"/>
  <unicode hex="0021"/>
  <note>
exclam
</note>
  <outline>
    <contour>
      <point x="276" y="391" type="curve"/>
      <point x="332" y="391" type="line"/>
      <point x="332" y="548"/>
      <point x="338" y="633"/>
      <point x="358" y="807" type="curve" smooth="yes"/>
      <point x="374" y="948"/>
      <point x="433" y="1253"/>
      <point x="433" y="1315" type="curve" smooth="yes"/>
      <point x="433" y="1446"/>
      <point x="388" y="1507"/>
      <point x="304" y="1507" type="curve" smooth="yes"/>
      <point x="220" y="1507"/>
      <point x="175" y="1442"/>
      <point x="175" y="1315" type="curve" smooth="yes"/>
      <point x="175" y="1253"/>
      <point x="234" y="950"/>
      <point x="250" y="807" type="curve" smooth="yes"/>
      <point x="270" y="633"/>
      <point x="276" y="548"/>
    </contour>
    <contour>
      <point x="305" y="-25" type="curve" smooth="yes"/>
      <point x="367" y="-25"/>
      <point x="417" y="25"/>
      <point x="417" y="88" type="curve" smooth="yes"/>
      <point x="417" y="150"/>
      <point x="367" y="200"/>
      <point x="305" y="200" type="curve" smooth="yes"/>
      <point x="242" y="200"/>
      <point x="192" y="150"/>
      <point x="192" y="88" type="curve" smooth="yes"/>
      <point x="192" y="25"/>
      <point x="242" y="-25"/>
    </contour>
  </outline>
</glyph>
<glyph name="numbersign" format="2">
  <advance width="1074"/>
  <unicode hex="0023"/>
  <outline>
    <contour>
      <point x="150" y="0" type="line"/>
      <point x="271" y="0" type="line"/>
      <point x="462" y="1325" type="line"/>
      <point x="341" y="1325" type="line"/>
    </contour>
    <contour>
      <point x="612" y="0" type="line"/>
      <point x="733" y="0" type="line"/>
      <point x="924" y="1325" type="line"/>
      <point x="804" y="1325" type="line"/>
    </contour>
    <contour>
      <point x="58" y="837" type="line"/>
      <point x="1017" y="837" type="line"/>
      <point x="1017" y="955" type="line"/>
      <point x="58" y="955" type="line"/>
    </contour>
    <contour>
      <point x="58" y="370" type="line"/>
      <point x="1017" y="370" type="line"/>
      <point x="1017" y="488" type="line"/>
      <point x="58" y="488" type="line"/>
    </contour>
  </outline>
</glyph>
<glyph name="dollar" format="2">
  <advance width="1139"/>
  <unicode hex="0024"/>
  <outline>
    <contour>
      <point x="560" y="-25" type="curve" smooth="yes"/>
      <point x="857" y="-25"/>
      <point x="1044" y="145"/>
      <point x="1044" y="414" type="curve" smooth="yes"/>
      <point x="1044" y="609"/>
      <point x="935" y="715"/>
      <point x="657" y="815" type="curve" smooth="yes"/>
      <point x="621" y="828"/>
      <point x="614" y="830"/>
      <point x="560" y="845" type="curve" smooth="yes"/>
      <point x="344" y="905"/>
      <point x="266" y="975"/>
      <point x="266" y="1104" type="curve" smooth="yes"/>
      <point x="266" y="1237"/>
      <point x="395" y="1351"/>
      <point x="569" y="1351" type="curve" smooth="yes"/>
      <point x="721" y="1351"/>
      <point x="814" y="1271"/>
      <point x="814" y="1239" type="curve" smooth="yes"/>
      <point x="814" y="1230"/>
      <point x="812" y="1227"/>
      <point x="797" y="1210" type="curve" smooth="yes"/>
      <point x="769" y="1177"/>
      <point x="745" y="1138"/>
      <point x="745" y="1096" type="curve" smooth="yes"/>
      <point x="745" y="1026"/>
      <point x="798" y="980"/>
      <point x="860" y="980" type="curve" smooth="yes"/>
      <point x="933" y="980"/>
      <point x="979" y="1036"/>
      <point x="979" y="1126" type="curve" smooth="yes"/>
      <point x="979" y="1307"/>
      <point x="812" y="1428"/>
      <point x="568" y="1428" type="curve" smooth="yes"/>
      <point x="288" y="1428"/>
      <point x="119" y="1262"/>
      <point x="119" y="1038" type="curve" smooth="yes"/>
      <point x="119" y="903"/>
      <point x="180" y="793"/>
      <point x="291" y="727" type="curve" smooth="yes"/>
      <point x="353" y="690"/>
      <point x="407" y="667"/>
      <point x="536" y="632" type="curve" smooth="yes"/>
      <point x="632" y="606"/>
      <point x="661" y="597"/>
      <point x="696" y="584" type="curve" smooth="yes"/>
      <point x="825" y="535"/>
      <point x="893" y="451"/>
      <point x="893" y="340" type="curve" smooth="yes"/>
      <point x="893" y="162"/>
      <point x="748" y="51"/>
      <point x="558" y="51" type="curve" smooth="yes"/>
      <point x="363" y="51"/>
      <point x="253" y="140"/>
      <point x="253" y="180" type="curve" smooth="yes"/>
      <point x="253" y="189"/>
      <point x="255" y="192"/>
      <point x="270" y="209" type="curve" smooth="yes"/>
      <point x="298" y="242"/>
      <point x="322" y="286"/>
      <point x="322" y="328" type="curve" smooth="yes"/>
      <point x="322" y="398"/>
      <point x="269" y="449"/>
      <point x="207" y="449" type="curve" smooth="yes"/>
      <point x="134" y="449"/>
      <point x="88" y="388"/>
      <point x="88" y="298" type="curve" smooth="yes"/>
      <point x="88" y="135"/>
      <point x="265" y="-25"/>
    </contour>
    <contour>
      <point x="514" y="-266" type="line"/>
      <point x="610" y="-266" type="line"/>
      <point x="610" y="1640" type="line"/>
      <point x="514" y="1640" type="line"/>
    </contour>
  </outline>
</glyph>
<glyph name="percent" format="2">
  <advance width="1609"/>
  <unicode hex="0025"/>
  <outline>
    <contour>
      <point x="284" y="0" type="line"/>
      <point x="369" y="0" type="line"/>
      <point x="1357" y="1395" type="line"/>
      <point x="1272" y="1395" type="line"/>
    </contour>
    <contour>
      <point x="379" y="1362" type="curve" smooth="yes"/>
      <point x="221" y="1362"/>
      <point x="97" y="1211"/>
      <point x="97" y="1003" type="curve" smooth="yes"/>
      <point x="97" y="799"/>
      <point x="217" y="650"/>
      <point x="371" y="650" type="curve" smooth="yes"/>
      <point x="529" y="650"/>
      <point x="649" y="794"/>
      <point x="649" y="1001" type="curve" smooth="yes"/>
      <point x="649" y="1184"/>
      <point x="548" y="1362"/>
    </contour>
    <contour>
      <point x="372" y="1320" type="curve" smooth="yes"/>
      <point x="473" y="1320"/>
      <point x="506" y="1174"/>
      <point x="506" y="1020" type="curve" smooth="yes"/>
      <point x="506" y="869"/>
      <point x="486" y="692"/>
      <point x="373" y="692" type="curve" smooth="yes"/>
      <point x="262" y="692"/>
      <point x="238" y="859"/>
      <point x="238" y="1024" type="curve" smooth="yes"/>
      <point x="238" y="1173"/>
      <point x="268" y="1320"/>
    </contour>
    <contour>
      <point x="1242" y="721" type="curve" smooth="yes"/>
      <point x="1084" y="721"/>
      <point x="960" y="570"/>
      <point x="960" y="361" type="curve" smooth="yes"/>
      <point x="960" y="158"/>
      <point x="1080" y="8"/>
      <point x="1234" y="8" type="curve" smooth="yes"/>
      <point x="1392" y="8"/>
      <point x="1512" y="153"/>
      <point x="1512" y="359" type="curve" smooth="yes"/>
      <point x="1512" y="542"/>
      <point x="1411" y="721"/>
    </contour>
    <contour>
      <point x="1235" y="678" type="curve" smooth="yes"/>
      <point x="1337" y="678"/>
      <point x="1369" y="533"/>
      <point x="1369" y="378" type="curve" smooth="yes"/>
      <point x="1369" y="227"/>
      <point x="1349" y="51"/>
      <point x="1236" y="51" type="curve" smooth="yes"/>
      <point x="1125" y="51"/>
      <point x="1101" y="218"/>
      <point x="1101" y="383" type="curve" smooth="yes"/>
      <point x="1101" y="532"/>
      <point x="1131" y="678"/>
    </contour>
  </outline>
</glyph>
<glyph name="ampersand" format="2">
  <advance width="1669"/>
  <unicode hex="0026"/>
  <outline>
    <contour>
      <point x="545" y="-31" type="curve" smooth="yes"/>
      <point x="920" y="-31"/>
      <point x="1153" y="312"/>
      <point x="1261" y="535" type="curve" smooth="yes"/>
      <point x="1350" y="718"/>
      <point x="1377" y="752"/>
      <point x="1542" y="752" type="curve"/>
      <point x="1542" y="827" type="line"/>
      <point x="965" y="827" type="line"/>
      <point x="965" y="752" type="line"/>
      <point x="1106" y="752"/>
      <point x="1169" y="720"/>
      <point x="1169" y="656" type="curve" smooth="yes"/>
      <point x="1169" y="415"/>
      <point x="901" y="99"/>
      <point x="668" y="99" type="curve" smooth="yes"/>
      <point x="456" y="99"/>
      <point x="300" y="258"/>
      <point x="300" y="498" type="curve" smooth="yes"/>
      <point x="300" y="620"/>
      <point x="381" y="707"/>
      <point x="534" y="787" type="curve"/>
      <point x="646" y="828" type="line" smooth="yes"/>
      <point x="861" y="907"/>
      <point x="1029" y="1034"/>
      <point x="1029" y="1233" type="curve" smooth="yes"/>
      <point x="1029" y="1399"/>
      <point x="922" y="1509"/>
      <point x="731" y="1509" type="curve" smooth="yes"/>
      <point x="516" y="1509"/>
      <point x="373" y="1364"/>
      <point x="373" y="1147" type="curve" smooth="yes"/>
      <point x="373" y="1048"/>
      <point x="399" y="962"/>
      <point x="479" y="802" type="curve" smooth="yes"/>
      <point x="630" y="499"/>
      <point x="696" y="386"/>
      <point x="898" y="157" type="curve" smooth="yes"/>
      <point x="1009" y="32"/>
      <point x="1106" y="-23"/>
      <point x="1229" y="-23" type="curve" smooth="yes"/>
      <point x="1426" y="-23"/>
      <point x="1543" y="139"/>
      <point x="1567" y="334" type="curve"/>
      <point x="1507" y="346" type="line"/>
      <point x="1483" y="217"/>
      <point x="1415" y="139"/>
      <point x="1315" y="139" type="curve" smooth="yes"/>
      <point x="1228" y="139"/>
      <point x="1107" y="207"/>
      <point x="1014" y="317" type="curve" smooth="yes"/>
      <point x="910" y="440"/>
      <point x="772" y="649"/>
      <point x="645" y="890" type="curve" smooth="yes"/>
      <point x="571" y="1031"/>
      <point x="538" y="1135"/>
      <point x="538" y="1219" type="curve" smooth="yes"/>
      <point x="538" y="1357"/>
      <point x="631" y="1432"/>
      <point x="725" y="1432" type="curve" smooth="yes"/>
      <point x="819" y="1432"/>
      <point x="887" y="1361"/>
      <point x="887" y="1229" type="curve" smooth="yes"/>
      <point x="887" y="1070"/>
      <point x="779" y="961"/>
      <point x="604" y="893" type="curve" smooth="yes"/>
      <point x="494" y="850" type="line" smooth="yes"/>
      <point x="238" y="750"/>
      <point x="104" y="580"/>
      <point x="104" y="387" type="curve" smooth="yes"/>
      <point x="104" y="227"/>
      <point x="214" y="-31"/>
    </contour>
  </outline>
</glyph>
<glyph name="quotesingle" format="2">
  <advance width="394"/>
  <unicode hex="0027"/>
  <note>
quotesingle
</note>
  <outline>
    <contour>
      <point x="175" y="962" type="curve"/>
      <point x="218" y="962" type="line"/>
      <point x="280" y="1318"/>
      <point x="280" y="1329"/>
      <point x="280" y="1338" type="curve" smooth="yes"/>
      <point x="280" y="1387"/>
      <point x="245" y="1421"/>
      <point x="197" y="1421" type="curve" smooth="yes"/>
      <point x="149" y="1421"/>
      <point x="114" y="1387"/>
      <point x="114" y="1338" type="curve" smooth="yes"/>
      <point x="114" y="1329"/>
      <point x="114" y="1320"/>
    </contour>
  </outline>
</glyph>
<glyph name="parenleft" format="2">
  <advance width="682"/>
  <unicode hex="0028"/>
  <outline>
    <contour>
      <point x="551" y="-241" type="curve"/>
      <point x="579" y="-180" type="line"/>
      <point x="375" y="2"/>
      <point x="267" y="233"/>
      <point x="267" y="629" type="curve" smooth="yes"/>
      <point x="267" y="1024"/>
      <point x="375" y="1255"/>
      <point x="579" y="1436" type="curve"/>
      <point x="551" y="1497" type="line"/>
      <point x="203" y="1288"/>
      <point x="74" y="975"/>
      <point x="74" y="629" type="curve" smooth="yes"/>
      <point x="74" y="291"/>
      <point x="203" y="-32"/>
    </contour>
  </outline>
</glyph>
<glyph name="parenright" format="2">
  <advance width="643"/>
  <unicode hex="0029"/>
  <outline>
    <contour>
      <point x="96" y="-227" type="line"/>
      <point x="424" y="-30"/>
      <point x="546" y="274"/>
      <point x="546" y="593" type="curve" smooth="yes"/>
      <point x="546" y="920"/>
      <point x="424" y="1215"/>
      <point x="96" y="1412" type="curve"/>
      <point x="70" y="1354" type="line"/>
      <point x="262" y="1184"/>
      <point x="364" y="966"/>
      <point x="364" y="593" type="curve" smooth="yes"/>
      <point x="364" y="220"/>
      <point x="262" y="2"/>
      <point x="70" y="-170" type="curve"/>
    </contour>
  </outline>
</glyph>
<glyph name="asterisk" format="2">
  <advance width="1024"/>
  <unicode hex="002A"/>
  <outline>
    <contour>
      <point x="555" y="1067" type="curve"/>
      <point x="588" y="1080"/>
      <point x="620" y="1091"/>
      <point x="654" y="1091" type="curve" smooth="yes"/>
      <point x="694" y="1091"/>
      <point x="757" y="1086"/>
      <point x="770" y="1086" type="curve" smooth="yes"/>
      <point x="889" y="1086"/>
      <point x="925" y="1131"/>
      <point x="925" y="1188" type="curve" smooth="yes"/>
      <point x="925" y="1242"/>
      <point x="878" y="1283"/>
      <point x="832" y="1283" type="curve" smooth="yes"/>
      <point x="775" y="1283"/>
      <point x="711" y="1232"/>
      <point x="662" y="1190" type="curve" smooth="yes"/>
      <point x="620" y="1154"/>
      <point x="578" y="1134"/>
      <point x="537" y="1118" type="curve"/>
      <point x="537" y="1160"/>
      <point x="547" y="1216"/>
      <point x="561" y="1260" type="curve" smooth="yes"/>
      <point x="580" y="1321"/>
      <point x="606" y="1366"/>
      <point x="606" y="1421" type="curve" smooth="yes"/>
      <point x="606" y="1482"/>
      <point x="555" y="1518"/>
      <point x="511" y="1518" type="curve" smooth="yes"/>
      <point x="467" y="1518"/>
      <point x="416" y="1482"/>
      <point x="416" y="1421" type="curve" smooth="yes"/>
      <point x="416" y="1366"/>
      <point x="446" y="1315"/>
      <point x="463" y="1260" type="curve" smooth="yes"/>
      <point x="477" y="1216"/>
      <point x="485" y="1160"/>
      <point x="485" y="1118" type="curve"/>
      <point x="444" y="1134"/>
      <point x="402" y="1154"/>
      <point x="360" y="1190" type="curve" smooth="yes"/>
      <point x="311" y="1232"/>
      <point x="247" y="1283"/>
      <point x="190" y="1283" type="curve" smooth="yes"/>
      <point x="144" y="1283"/>
      <point x="97" y="1242"/>
      <point x="97" y="1188" type="curve" smooth="yes"/>
      <point x="97" y="1131"/>
      <point x="133" y="1090"/>
      <point x="252" y="1085" type="curve" smooth="yes"/>
      <point x="265" y="1085"/>
      <point x="328" y="1091"/>
      <point x="368" y="1091" type="curve" smooth="yes"/>
      <point x="402" y="1091"/>
      <point x="434" y="1080"/>
      <point x="467" y="1067" type="curve"/>
      <point x="442" y="1037"/>
      <point x="396" y="990"/>
      <point x="362" y="970" type="curve" smooth="yes"/>
      <point x="295" y="931"/>
      <point x="225" y="890"/>
      <point x="225" y="817" type="curve" smooth="yes"/>
      <point x="225" y="769"/>
      <point x="261" y="724"/>
      <point x="322" y="724" type="curve" smooth="yes"/>
      <point x="357" y="724"/>
      <point x="376" y="733"/>
      <point x="402" y="764" type="curve" smooth="yes"/>
      <point x="428" y="795"/>
      <point x="440" y="856"/>
      <point x="448" y="901" type="curve" smooth="yes"/>
      <point x="456" y="945"/>
      <point x="482" y="991"/>
      <point x="511" y="1036" type="curve"/>
      <point x="540" y="991"/>
      <point x="566" y="945"/>
      <point x="574" y="901" type="curve" smooth="yes"/>
      <point x="582" y="856"/>
      <point x="594" y="795"/>
      <point x="620" y="764" type="curve" smooth="yes"/>
      <point x="646" y="733"/>
      <point x="665" y="724"/>
      <point x="700" y="724" type="curve" smooth="yes"/>
      <point x="761" y="724"/>
      <point x="797" y="769"/>
      <point x="797" y="817" type="curve" smooth="yes"/>
      <point x="797" y="890"/>
      <point x="727" y="931"/>
      <point x="660" y="970" type="curve" smooth="yes"/>
      <point x="626" y="990"/>
      <point x="580" y="1037"/>
    </contour>
  </outline>
</glyph>
<glyph name="plus" format="2">
  <advance width="1171"/>
  <unicode hex="002B"/>
  <note>
plus
</note>
  <outline>
    <contour>
      <point x="98" y="421" type="line"/>
      <point x="1072" y="421" type="line"/>
      <point x="1072" y="556" type="line"/>
      <point x="98" y="556" type="line"/>
    </contour>
    <contour>
      <point x="518" y="0" type="line"/>
      <point x="654" y="0" type="line"/>
      <point x="654" y="975" type="line"/>
      <point x="518" y="975" type="line"/>
    </contour>
  </outline>
</glyph>
<glyph name="comma" format="2">
  <advance width="569"/>
  <unicode hex="002C"/>
  <note>
comma
</note>
  <outline>
    <contour>
      <point x="131" y="-317" type="curve"/>
      <point x="178" y="-377" type="line"/>
      <point x="362" y="-250"/>
      <point x="446" y="-125"/>
      <point x="446" y="18" type="curve" smooth="yes"/>
      <point x="446" y="141"/>
      <point x="379" y="221"/>
      <point x="279" y="221" type="curve" smooth="yes"/>
      <point x="203" y="221"/>
      <point x="145" y="168"/>
      <point x="145" y="98" type="curve" smooth="yes"/>
      <point x="145" y="25"/>
      <point x="201" y="-23"/>
      <point x="287" y="-23" type="curve" smooth="yes"/>
      <point x="297" y="-23"/>
      <point x="311" y="-23"/>
      <point x="317" y="-20" type="curve"/>
      <point x="324" y="-20" type="line" smooth="yes"/>
      <point x="334" y="-20"/>
      <point x="338" y="-27"/>
      <point x="338" y="-39" type="curve" smooth="yes"/>
      <point x="338" y="-125"/>
      <point x="268" y="-221"/>
    </contour>
  </outline>
</glyph>
<glyph name="hyphen" format="2">
  <advance width="1171"/>
  <unicode hex="002D"/>
  <note>
hyphen
</note>
  <outline>
    <contour>
      <point x="1072" y="556" type="line"/>
      <point x="98" y="556" type="line"/>
      <point x="98" y="421" type="line"/>
      <point x="1072" y="421" type="line"/>
    </contour>
  </outline>
</glyph>
<glyph name="period" format="2">
  <advance width="537"/>
  <unicode hex="002E"/>
  <note>
period
</note>
  <outline>
    <contour>
      <point x="263" y="-27" type="curve" smooth="yes"/>
      <point x="330" y="-27"/>
      <point x="385" y="27"/>
      <point x="385" y="94" type="curve" smooth="yes"/>
      <point x="385" y="160"/>
      <point x="330" y="214"/>
      <point x="265" y="214" type="curve" smooth="yes"/>
      <point x="197" y="214"/>
      <point x="143" y="160"/>
      <point x="143" y="94" type="curve" smooth="yes"/>
      <point x="143" y="27"/>
      <point x="197" y="-27"/>
    </contour>
  </outline>
</glyph>
<glyph name="slash" format="2">
  <advance width="537"/>
  <unicode hex="002F"/>
  <note>
slash
</note>
  <outline>
    <contour>
      <point x="583" y="1421" type="line"/>
      <point x="472" y="1421" type="line"/>
      <point x="-44" y="-27" type="line"/>
      <point x="68" y="-27" type="line"/>
    </contour>
  </outline>
</glyph>
<glyph name="zero" format="2">
  <advance width="1139"/>
  <unicode hex="0030"/>
  <outline>
    <contour>
      <point x="570" y="1443" type="curve" smooth="yes"/>
      <point x="294" y="1443"/>
      <point x="94" y="1136"/>
      <point x="94" y="706" type="curve" smooth="yes"/>
      <point x="94" y="276"/>
      <point x="294" y="-31"/>
      <point x="570" y="-31" type="curve" smooth="yes"/>
      <point x="846" y="-31"/>
      <point x="1046" y="276"/>
      <point x="1046" y="706" type="curve" smooth="yes"/>
      <point x="1046" y="1136"/>
      <point x="846" y="1443"/>
    </contour>
    <contour>
      <point x="570" y="1356" type="curve" smooth="yes"/>
      <point x="792" y="1356"/>
      <point x="849" y="1067"/>
      <point x="849" y="706" type="curve" smooth="yes"/>
      <point x="849" y="345"/>
      <point x="792" y="56"/>
      <point x="570" y="56" type="curve" smooth="yes"/>
      <point x="348" y="56"/>
      <point x="291" y="345"/>
      <point x="291" y="706" type="curve" smooth="yes"/>
      <point x="291" y="1067"/>
      <point x="348" y="1356"/>
    </contour>
  </outline>
</glyph>
<glyph name="one" format="2">
  <advance width="1139"/>
  <unicode hex="0031"/>
  <note>
one
</note>
  <outline>
    <contour>
      <point x="245" y="0" type="line"/>
      <point x="961" y="0" type="line"/>
      <point x="961" y="75" type="line"/>
      <point x="848" y="75" type="line" smooth="yes"/>
      <point x="733" y="75"/>
      <point x="717" y="83"/>
      <point x="700" y="104" type="curve" smooth="yes"/>
      <point x="686" y="122"/>
      <point x="686" y="124"/>
      <point x="686" y="231" type="curve"/>
      <point x="686" y="1442" type="line"/>
      <point x="624" y="1442" type="line"/>
      <point x="555" y="1358"/>
      <point x="401" y="1290"/>
      <point x="213" y="1290" type="curve"/>
      <point x="213" y="1215" type="line"/>
      <point x="393" y="1215" type="line" smooth="yes"/>
      <point x="512" y="1215"/>
      <point x="520" y="1201"/>
      <point x="520" y="1086" type="curve" smooth="yes"/>
      <point x="520" y="231" type="line" smooth="yes"/>
      <point x="520" y="126"/>
      <point x="517" y="115"/>
      <point x="508" y="104" type="curve" smooth="yes"/>
      <point x="492" y="84"/>
      <point x="479" y="75"/>
      <point x="378" y="75" type="curve" smooth="yes"/>
      <point x="245" y="75" type="line"/>
    </contour>
  </outline>
</glyph>
<glyph name="two" format="2">
  <advance width="1139"/>
  <unicode hex="0032"/>
  <outline>
    <contour>
      <point x="82" y="0" type="line"/>
      <point x="971" y="0" type="line"/>
      <point x="1010" y="420" type="line"/>
      <point x="930" y="420" type="line"/>
      <point x="910" y="316" type="line" smooth="yes"/>
      <point x="897" y="247"/>
      <point x="885" y="212"/>
      <point x="860" y="191" type="curve" smooth="yes"/>
      <point x="838" y="173"/>
      <point x="801" y="171"/>
      <point x="740" y="171" type="curve" smooth="yes"/>
      <point x="209" y="171" type="line"/>
      <point x="244" y="138" type="line"/>
      <point x="411" y="305"/>
      <point x="479" y="368"/>
      <point x="624" y="485" type="curve" smooth="yes"/>
      <point x="790" y="619"/>
      <point x="875" y="697"/>
      <point x="919" y="762" type="curve" smooth="yes"/>
      <point x="982" y="854"/>
      <point x="1012" y="942"/>
      <point x="1012" y="1042" type="curve" smooth="yes"/>
      <point x="1012" y="1286"/>
      <point x="844" y="1442"/>
      <point x="575" y="1442" type="curve" smooth="yes"/>
      <point x="271" y="1442"/>
      <point x="115" y="1250"/>
      <point x="115" y="1020" type="curve" smooth="yes"/>
      <point x="115" y="920"/>
      <point x="186" y="844"/>
      <point x="273" y="844" type="curve" smooth="yes"/>
      <point x="330" y="844"/>
      <point x="400" y="889"/>
      <point x="400" y="967" type="curve" smooth="yes"/>
      <point x="400" y="1024"/>
      <point x="364" y="1064"/>
      <point x="322" y="1076" type="curve" smooth="yes"/>
      <point x="259" y="1094"/>
      <point x="237" y="1119"/>
      <point x="237" y="1152" type="curve" smooth="yes"/>
      <point x="237" y="1260"/>
      <point x="367" y="1365"/>
      <point x="534" y="1365" type="curve" smooth="yes"/>
      <point x="704" y="1365"/>
      <point x="825" y="1249"/>
      <point x="825" y="1077" type="curve" smooth="yes"/>
      <point x="825" y="926"/>
      <point x="742" y="791"/>
      <point x="573" y="608" type="curve" smooth="yes"/>
      <point x="492" y="521"/>
      <point x="380" y="398"/>
      <point x="279" y="285" type="curve" smooth="yes"/>
      <point x="198" y="195"/>
      <point x="125" y="111"/>
      <point x="82" y="57" type="curve"/>
    </contour>
  </outline>
</glyph>
<glyph name="three" format="2">
  <advance width="1074"/>
  <unicode hex="0033"/>
  <outline>
    <contour>
      <point x="501" y="-29" type="curve" smooth="yes"/>
      <point x="779" y="-29"/>
      <point x="966" y="125"/>
      <point x="966" y="363" type="curve" smooth="yes"/>
      <point x="966" y="556"/>
      <point x="860" y="667"/>
      <point x="637" y="721" type="curve"/>
      <point x="637" y="699" type="line"/>
      <point x="813" y="754"/>
      <point x="929" y="863"/>
      <point x="929" y="1028" type="curve" smooth="yes"/>
      <point x="929" y="1231"/>
      <point x="773" y="1360"/>
      <point x="523" y="1360" type="curve" smooth="yes"/>
      <point x="328" y="1360"/>
      <point x="159" y="1224"/>
      <point x="159" y="1052" type="curve" smooth="yes"/>
      <point x="159" y="976"/>
      <point x="203" y="923"/>
      <point x="268" y="923" type="curve" smooth="yes"/>
      <point x="326" y="923"/>
      <point x="365" y="969"/>
      <point x="365" y="1030" type="curve" smooth="yes"/>
      <point x="365" y="1066"/>
      <point x="342" y="1086"/>
      <point x="320" y="1104" type="curve" smooth="yes"/>
      <point x="305" y="1117"/>
      <point x="288" y="1131"/>
      <point x="288" y="1149" type="curve" smooth="yes"/>
      <point x="288" y="1210"/>
      <point x="386" y="1287"/>
      <point x="504" y="1287" type="curve" smooth="yes"/>
      <point x="664" y="1287"/>
      <point x="747" y="1190"/>
      <point x="747" y="1025" type="curve" smooth="yes"/>
      <point x="747" y="846"/>
      <point x="673" y="738"/>
      <point x="537" y="738" type="curve" smooth="yes"/>
      <point x="519" y="738"/>
      <point x="487" y="739"/>
      <point x="457" y="741" type="curve" smooth="yes"/>
      <point x="441" y="743"/>
      <point x="426" y="743"/>
      <point x="415" y="743" type="curve" smooth="yes"/>
      <point x="374" y="743"/>
      <point x="353" y="734"/>
      <point x="353" y="702" type="curve" smooth="yes"/>
      <point x="353" y="669"/>
      <point x="373" y="667"/>
      <point x="415" y="667" type="curve" smooth="yes"/>
      <point x="426" y="667"/>
      <point x="441" y="667"/>
      <point x="459" y="669" type="curve" smooth="yes"/>
      <point x="498" y="673"/>
      <point x="529" y="674"/>
      <point x="550" y="674" type="curve" smooth="yes"/>
      <point x="693" y="674"/>
      <point x="771" y="558"/>
      <point x="771" y="358" type="curve" smooth="yes"/>
      <point x="771" y="166"/>
      <point x="692" y="43"/>
      <point x="481" y="43" type="curve" smooth="yes"/>
      <point x="338" y="43"/>
      <point x="242" y="128"/>
      <point x="242" y="190" type="curve" smooth="yes"/>
      <point x="242" y="199"/>
      <point x="258" y="216"/>
      <point x="281" y="234" type="curve" smooth="yes"/>
      <point x="305" y="253"/>
      <point x="331" y="277"/>
      <point x="331" y="309" type="curve" smooth="yes"/>
      <point x="331" y="375"/>
      <point x="290" y="425"/>
      <point x="224" y="425" type="curve" smooth="yes"/>
      <point x="157" y="425"/>
      <point x="104" y="366"/>
      <point x="104" y="288" type="curve" smooth="yes"/>
      <point x="104" y="103"/>
      <point x="277" y="-29"/>
    </contour>
  </outline>
</glyph>
<glyph name="four" format="2">
  <advance width="1139"/>
  <unicode hex="0034"/>
  <outline>
    <contour>
      <point x="426" y="0" type="line"/>
      <point x="996" y="0" type="line"/>
      <point x="996" y="75" type="line"/>
      <point x="871" y="75"/>
      <point x="832" y="81"/>
      <point x="816" y="104" type="curve" smooth="yes"/>
      <point x="803" y="122"/>
      <point x="803" y="124"/>
      <point x="803" y="231" type="curve"/>
      <point x="803" y="1442" type="line"/>
      <point x="752" y="1442" type="line"/>
      <point x="57" y="473" type="line"/>
      <point x="57" y="373" type="line"/>
      <point x="1051" y="373" type="line"/>
      <point x="1051" y="458" type="line"/>
      <point x="106" y="458" type="line"/>
      <point x="135" y="441" type="line"/>
      <point x="640" y="1136" type="line"/>
      <point x="633" y="1180" type="line"/>
      <point x="633" y="231" type="line" smooth="yes"/>
      <point x="633" y="129"/>
      <point x="633" y="121"/>
      <point x="621" y="104" type="curve" smooth="yes"/>
      <point x="605" y="81"/>
      <point x="565" y="75"/>
      <point x="426" y="75" type="curve"/>
    </contour>
  </outline>
</glyph>
<glyph name="five" format="2">
  <advance width="1074"/>
  <unicode hex="0035"/>
  <outline>
    <contour>
      <point x="482" y="-29" type="curve" smooth="yes"/>
      <point x="775" y="-29"/>
      <point x="953" y="158"/>
      <point x="953" y="433" type="curve" smooth="yes"/>
      <point x="953" y="695"/>
      <point x="796" y="862"/>
      <point x="533" y="862" type="curve" smooth="yes"/>
      <point x="383" y="862"/>
      <point x="125" y="788"/>
      <point x="125" y="645" type="curve" smooth="yes"/>
      <point x="125" y="608"/>
      <point x="146" y="590"/>
      <point x="169" y="590" type="curve" smooth="yes"/>
      <point x="195" y="590"/>
      <point x="211" y="607"/>
      <point x="226" y="655" type="curve" smooth="yes"/>
      <point x="234" y="678"/>
      <point x="273" y="1065"/>
      <point x="287" y="1208" type="curve"/>
      <point x="266" y="1176" type="line"/>
      <point x="408" y="1139"/>
      <point x="445" y="1133"/>
      <point x="532" y="1133" type="curve" smooth="yes"/>
      <point x="743" y="1133"/>
      <point x="918" y="1254"/>
      <point x="918" y="1342" type="curve" smooth="yes"/>
      <point x="918" y="1354"/>
      <point x="914" y="1360"/>
      <point x="903" y="1360" type="curve" smooth="yes"/>
      <point x="899" y="1360"/>
      <point x="892" y="1357"/>
      <point x="882" y="1353" type="curve" smooth="yes"/>
      <point x="846" y="1337"/>
      <point x="767" y="1302"/>
      <point x="630" y="1302" type="curve" smooth="yes"/>
      <point x="506" y="1302"/>
      <point x="429" y="1314"/>
      <point x="232" y="1360" type="curve"/>
      <point x="224" y="1190"/>
      <point x="205" y="971"/>
      <point x="175" y="718" type="curve"/>
      <point x="216" y="695" type="line"/>
      <point x="293" y="757"/>
      <point x="395" y="784"/>
      <point x="483" y="784" type="curve" smooth="yes"/>
      <point x="659" y="784"/>
      <point x="759" y="646"/>
      <point x="759" y="421" type="curve" smooth="yes"/>
      <point x="759" y="191"/>
      <point x="668" y="43"/>
      <point x="475" y="43" type="curve" smooth="yes"/>
      <point x="328" y="43"/>
      <point x="224" y="128"/>
      <point x="224" y="190" type="curve" smooth="yes"/>
      <point x="224" y="199"/>
      <point x="240" y="216"/>
      <point x="262" y="234" type="curve" smooth="yes"/>
      <point x="286" y="253"/>
      <point x="312" y="277"/>
      <point x="312" y="309" type="curve" smooth="yes"/>
      <point x="312" y="375"/>
      <point x="271" y="425"/>
      <point x="206" y="425" type="curve" smooth="yes"/>
      <point x="138" y="425"/>
      <point x="85" y="366"/>
      <point x="85" y="288" type="curve" smooth="yes"/>
      <point x="85" y="103"/>
      <point x="258" y="-29"/>
    </contour>
  </outline>
</glyph>
<glyph name="six" format="2">
  <advance width="1139"/>
  <unicode hex="0036"/>
  <outline>
    <contour>
      <point x="602" y="-31" type="curve" smooth="yes"/>
      <point x="902" y="-31"/>
      <point x="1057" y="219"/>
      <point x="1057" y="459" type="curve" smooth="yes"/>
      <point x="1057" y="692"/>
      <point x="897" y="864"/>
      <point x="673" y="864" type="curve" smooth="yes"/>
      <point x="523" y="864"/>
      <point x="398" y="797"/>
      <point x="294" y="646" type="curve"/>
      <point x="309" y="632" type="line"/>
      <point x="316" y="900"/>
      <point x="322" y="1037"/>
      <point x="401" y="1178" type="curve" smooth="yes"/>
      <point x="468" y="1298"/>
      <point x="553" y="1373"/>
      <point x="683" y="1373" type="curve" smooth="yes"/>
      <point x="804" y="1373"/>
      <point x="848" y="1332"/>
      <point x="848" y="1296" type="curve" smooth="yes"/>
      <point x="848" y="1280"/>
      <point x="835" y="1269"/>
      <point x="815" y="1253" type="curve" smooth="yes"/>
      <point x="783" y="1227"/>
      <point x="774" y="1204"/>
      <point x="774" y="1170" type="curve" smooth="yes"/>
      <point x="774" y="1105"/>
      <point x="815" y="1064"/>
      <point x="877" y="1064" type="curve" smooth="yes"/>
      <point x="946" y="1064"/>
      <point x="1002" y="1113"/>
      <point x="1002" y="1193" type="curve" smooth="yes"/>
      <point x="1002" y="1352"/>
      <point x="862" y="1442"/>
      <point x="685" y="1442" type="curve" smooth="yes"/>
      <point x="521" y="1442"/>
      <point x="380" y="1370"/>
      <point x="282" y="1233" type="curve" smooth="yes"/>
      <point x="169" y="1075"/>
      <point x="108" y="857"/>
      <point x="108" y="634" type="curve" smooth="yes"/>
      <point x="108" y="229"/>
      <point x="299" y="-31"/>
    </contour>
    <contour>
      <point x="606" y="46" type="curve" smooth="yes"/>
      <point x="409" y="46"/>
      <point x="326" y="229"/>
      <point x="326" y="416" type="curve" smooth="yes"/>
      <point x="326" y="627"/>
      <point x="450" y="769"/>
      <point x="616" y="769" type="curve" smooth="yes"/>
      <point x="765" y="769"/>
      <point x="861" y="639"/>
      <point x="861" y="398" type="curve" smooth="yes"/>
      <point x="861" y="184"/>
      <point x="793" y="46"/>
    </contour>
  </outline>
</glyph>
<glyph name="seven" format="2">
  <advance width="1139"/>
  <unicode hex="0037"/>
  <outline>
    <contour>
      <point x="1047" y="1374" type="curve"/>
      <point x="1047" y="1434" type="line"/>
      <point x="925" y="1423"/>
      <point x="859" y="1419"/>
      <point x="732" y="1419" type="curve" smooth="yes"/>
      <point x="554" y="1419"/>
      <point x="383" y="1420"/>
      <point x="201" y="1442" type="curve"/>
      <point x="138" y="946" type="line"/>
      <point x="211" y="932" type="line"/>
      <point x="248" y="1121" type="line" smooth="yes"/>
      <point x="274" y="1256"/>
      <point x="293" y="1264"/>
      <point x="352" y="1264" type="curve" smooth="yes"/>
      <point x="483" y="1264"/>
      <point x="696" y="1260"/>
      <point x="962" y="1266" type="curve"/>
      <point x="941" y="1305" type="line"/>
      <point x="751" y="977" type="line" smooth="yes"/>
      <point x="572" y="669"/>
      <point x="455" y="303"/>
      <point x="455" y="123" type="curve" smooth="yes"/>
      <point x="455" y="29"/>
      <point x="489" y="-29"/>
      <point x="569" y="-29" type="curve" smooth="yes"/>
      <point x="637" y="-29"/>
      <point x="689" y="37"/>
      <point x="689" y="215" type="curve" smooth="yes"/>
      <point x="689" y="566"/>
      <point x="760" y="770"/>
      <point x="934" y="1134" type="curve" smooth="yes"/>
      <point x="977" y="1224"/>
      <point x="1025" y="1326"/>
    </contour>
  </outline>
</glyph>
<glyph name="eight" format="2">
  <advance width="1139"/>
  <unicode hex="0038"/>
  <outline>
    <contour>
      <point x="537" y="-31" type="curve" smooth="yes"/>
      <point x="823" y="-31"/>
      <point x="1021" y="142"/>
      <point x="1021" y="412" type="curve" smooth="yes"/>
      <point x="1021" y="621"/>
      <point x="895" y="714"/>
      <point x="725" y="796" type="curve" smooth="yes"/>
      <point x="669" y="823"/>
      <point x="596" y="841"/>
      <point x="537" y="864" type="curve" smooth="yes"/>
      <point x="371" y="923"/>
      <point x="276" y="1018"/>
      <point x="276" y="1137" type="curve" smooth="yes"/>
      <point x="276" y="1268"/>
      <point x="396" y="1365"/>
      <point x="558" y="1365" type="curve" smooth="yes"/>
      <point x="715" y="1365"/>
      <point x="830" y="1253"/>
      <point x="830" y="1104" type="curve" smooth="yes"/>
      <point x="830" y="987"/>
      <point x="791" y="916"/>
      <point x="647" y="801" type="curve"/>
      <point x="417" y="718" type="line" smooth="yes"/>
      <point x="214" y="645"/>
      <point x="84" y="544"/>
      <point x="84" y="344" type="curve" smooth="yes"/>
      <point x="84" y="102"/>
      <point x="275" y="-31"/>
    </contour>
    <contour>
      <point x="547" y="46" type="curve" smooth="yes"/>
      <point x="342" y="46"/>
      <point x="231" y="157"/>
      <point x="231" y="344" type="curve" smooth="yes"/>
      <point x="231" y="509"/>
      <point x="327" y="603"/>
      <point x="514" y="680" type="curve"/>
      <point x="731" y="781" type="line"/>
      <point x="907" y="866"/>
      <point x="966" y="973"/>
      <point x="966" y="1116" type="curve" smooth="yes"/>
      <point x="966" y="1305"/>
      <point x="801" y="1442"/>
      <point x="564" y="1442" type="curve" smooth="yes"/>
      <point x="314" y="1442"/>
      <point x="142" y="1278"/>
      <point x="142" y="1051" type="curve" smooth="yes"/>
      <point x="142" y="866"/>
      <point x="243" y="765"/>
      <point x="420" y="686" type="curve" smooth="yes"/>
      <point x="495" y="652"/>
      <point x="583" y="626"/>
      <point x="660" y="598" type="curve" smooth="yes"/>
      <point x="815" y="543"/>
      <point x="887" y="461"/>
      <point x="887" y="326" type="curve" smooth="yes"/>
      <point x="887" y="162"/>
      <point x="748" y="46"/>
    </contour>
  </outline>
</glyph>
<glyph name="nine" format="2">
  <advance width="1139"/>
  <unicode hex="0039"/>
  <outline>
    <contour>
      <point x="450" y="-31" type="curve" smooth="yes"/>
      <point x="614" y="-31"/>
      <point x="759" y="41"/>
      <point x="857" y="178" type="curve" smooth="yes"/>
      <point x="970" y="336"/>
      <point x="1031" y="554"/>
      <point x="1031" y="777" type="curve" smooth="yes"/>
      <point x="1031" y="1182"/>
      <point x="840" y="1442"/>
      <point x="537" y="1442" type="curve" smooth="yes"/>
      <point x="237" y="1442"/>
      <point x="82" y="1192"/>
      <point x="82" y="952" type="curve" smooth="yes"/>
      <point x="82" y="719"/>
      <point x="242" y="547"/>
      <point x="466" y="547" type="curve" smooth="yes"/>
      <point x="616" y="547"/>
      <point x="741" y="614"/>
      <point x="845" y="765" type="curve"/>
      <point x="830" y="779" type="line"/>
      <point x="823" y="511"/>
      <point x="817" y="374"/>
      <point x="738" y="233" type="curve" smooth="yes"/>
      <point x="671" y="113"/>
      <point x="582" y="38"/>
      <point x="452" y="38" type="curve" smooth="yes"/>
      <point x="319" y="38"/>
      <point x="271" y="76"/>
      <point x="271" y="109" type="curve" smooth="yes"/>
      <point x="271" y="119"/>
      <point x="288" y="137"/>
      <point x="312" y="156" type="curve" smooth="yes"/>
      <point x="337" y="176"/>
      <point x="365" y="202"/>
      <point x="365" y="236" type="curve" smooth="yes"/>
      <point x="365" y="306"/>
      <point x="321" y="359"/>
      <point x="252" y="359" type="curve" smooth="yes"/>
      <point x="180" y="359"/>
      <point x="124" y="296"/>
      <point x="124" y="213" type="curve" smooth="yes"/>
      <point x="124" y="44"/>
      <point x="258" y="-31"/>
    </contour>
    <contour>
      <point x="523" y="642" type="curve" smooth="yes"/>
      <point x="374" y="642"/>
      <point x="278" y="772"/>
      <point x="278" y="1013" type="curve" smooth="yes"/>
      <point x="278" y="1227"/>
      <point x="346" y="1365"/>
      <point x="533" y="1365" type="curve" smooth="yes"/>
      <point x="730" y="1365"/>
      <point x="813" y="1182"/>
      <point x="813" y="995" type="curve" smooth="yes"/>
      <point x="813" y="784"/>
      <point x="689" y="642"/>
    </contour>
  </outline>
</glyph>
<glyph name="colon" format="2">
  <advance width="569"/>
  <unicode hex="003A"/>
  <note>
colon
</note>
  <outline>
    <contour>
      <point x="303" y="-29" type="curve" smooth="yes"/>
      <point x="375" y="-29"/>
      <point x="432" y="29"/>
      <point x="432" y="100" type="curve" smooth="yes"/>
      <point x="432" y="170"/>
      <point x="375" y="227"/>
      <point x="305" y="227" type="curve" smooth="yes"/>
      <point x="233" y="227"/>
      <point x="176" y="170"/>
      <point x="176" y="100" type="curve" smooth="yes"/>
      <point x="176" y="29"/>
      <point x="233" y="-29"/>
    </contour>
    <contour>
      <point x="303" y="713" type="curve" smooth="yes"/>
      <point x="375" y="713"/>
      <point x="432" y="770"/>
      <point x="432" y="842" type="curve" smooth="yes"/>
      <point x="432" y="911"/>
      <point x="375" y="969"/>
      <point x="305" y="969" type="curve" smooth="yes"/>
      <point x="233" y="969"/>
      <point x="176" y="911"/>
      <point x="176" y="840" type="curve" smooth="yes"/>
      <point x="176" y="770"/>
      <point x="233" y="713"/>
    </contour>
  </outline>
</glyph>
<glyph name="semicolon" format="2">
  <advance width="569"/>
  <unicode hex="003B"/>
  <note>
semicolon
</note>
  <outline>
    <component base="comma" xOffset="20"/>
    <contour>
      <point x="305" y="711" type="curve" smooth="yes"/>
      <point x="377" y="711"/>
      <point x="434" y="768"/>
      <point x="434" y="840" type="curve" smooth="yes"/>
      <point x="434" y="909"/>
      <point x="377" y="967"/>
      <point x="307" y="967" type="curve" smooth="yes"/>
      <point x="236" y="967"/>
      <point x="178" y="909"/>
      <point x="178" y="840" type="curve" smooth="yes"/>
      <point x="178" y="768"/>
      <point x="236" y="711"/>
    </contour>
  </outline>
</glyph>
<glyph name="less" format="2">
  <advance width="1241"/>
  <unicode hex="003C"/>
  <note>
less
</note>
  <outline>
    <contour>
      <point x="246" y="511" type="line"/>
      <point x="1171" y="904" type="line"/>
      <point x="1171" y="1058" type="line"/>
      <point x="70" y="582" type="line"/>
      <point x="70" y="459" type="line"/>
      <point x="1171" y="-16" type="line"/>
      <point x="1171" y="138" type="line"/>
      <point x="246" y="529" type="line"/>
    </contour>
  </outline>
</glyph>
<glyph name="equal" format="2">
  <advance width="1241"/>
  <unicode hex="003D"/>
  <note>
equal
</note>
  <outline>
    <contour>
      <point x="104" y="400" type="line"/>
      <point x="104" y="256" type="line"/>
      <point x="1137" y="256" type="line"/>
      <point x="1137" y="400" type="line"/>
    </contour>
    <contour>
      <point x="104" y="783" type="line"/>
      <point x="104" y="639" type="line"/>
      <point x="1137" y="639" type="line"/>
      <point x="1137" y="783" type="line"/>
    </contour>
  </outline>
</glyph>
<glyph name="greater" format="2">
  <advance width="1171"/>
  <unicode hex="003E"/>
  <note>
greater
</note>
  <outline>
    <contour>
      <point x="66" y="-15" type="line"/>
      <point x="1104" y="433" type="line"/>
      <point x="1104" y="549" type="line"/>
      <point x="66" y="998" type="line"/>
      <point x="66" y="853" type="line"/>
      <point x="938" y="482" type="line"/>
      <point x="938" y="499" type="line"/>
      <point x="66" y="130" type="line"/>
    </contour>
  </outline>
</glyph>
<glyph name="question" format="2">
  <advance width="909"/>
  <unicode hex="003F"/>
  <outline>
    <contour>
      <point x="354" y="391" type="curve"/>
      <point x="429" y="391" type="line"/>
      <point x="429" y="592"/>
      <point x="465" y="646"/>
      <point x="596" y="760" type="curve" smooth="yes"/>
      <point x="741" y="887"/>
      <point x="812" y="1008"/>
      <point x="812" y="1151" type="curve" smooth="yes"/>
      <point x="812" y="1364"/>
      <point x="649" y="1507"/>
      <point x="436" y="1507" type="curve" smooth="yes"/>
      <point x="199" y="1507"/>
      <point x="51" y="1384"/>
      <point x="51" y="1190" type="curve" smooth="yes"/>
      <point x="51" y="1108"/>
      <point x="112" y="1041"/>
      <point x="178" y="1041" type="curve" smooth="yes"/>
      <point x="255" y="1041"/>
      <point x="293" y="1097"/>
      <point x="293" y="1168" type="curve" smooth="yes"/>
      <point x="293" y="1202"/>
      <point x="260" y="1238"/>
      <point x="228" y="1264" type="curve" smooth="yes"/>
      <point x="208" y="1280"/>
      <point x="195" y="1291"/>
      <point x="195" y="1307" type="curve" smooth="yes"/>
      <point x="195" y="1370"/>
      <point x="281" y="1429"/>
      <point x="393" y="1429" type="curve" smooth="yes"/>
      <point x="543" y="1429"/>
      <point x="627" y="1323"/>
      <point x="627" y="1163" type="curve" smooth="yes"/>
      <point x="627" y="1079"/>
      <point x="608" y="1002"/>
      <point x="561" y="944" type="curve" smooth="yes"/>
      <point x="417" y="769"/>
      <point x="354" y="680"/>
      <point x="354" y="457" type="curve" smooth="yes"/>
      <point x="354" y="435"/>
      <point x="354" y="413"/>
    </contour>
    <contour>
      <point x="395" y="-25" type="curve" smooth="yes"/>
      <point x="457" y="-25"/>
      <point x="507" y="25"/>
      <point x="507" y="88" type="curve" smooth="yes"/>
      <point x="507" y="150"/>
      <point x="457" y="200"/>
      <point x="395" y="200" type="curve" smooth="yes"/>
      <point x="332" y="200"/>
      <point x="282" y="150"/>
      <point x="282" y="88" type="curve" smooth="yes"/>
      <point x="282" y="25"/>
      <point x="332" y="-25"/>
    </contour>
  </outline>
</glyph>
<glyph name="at" format="2">
  <advance width="1509"/>
  <unicode hex="0040"/>
  <note>
at
</note>
  <outline>
    <contour>
      <point x="1440" y="375" type="curve"/>
      <point x="1345" y="375" type="line"/>
      <point x="1232" y="174"/>
      <point x="1020" y="80"/>
      <point x="805" y="80" type="curve" smooth="yes"/>
      <point x="384" y="80"/>
      <point x="167" y="317"/>
      <point x="167" y="681" type="curve" smooth="yes"/>
      <point x="167" y="1142"/>
      <point x="442" y="1433"/>
      <point x="807" y="1433" type="curve" smooth="yes"/>
      <point x="1149" y="1433"/>
      <point x="1366" y="1163"/>
      <point x="1366" y="877" type="curve" smooth="yes"/>
      <point x="1366" y="739"/>
      <point x="1305" y="618"/>
      <point x="1234" y="525" type="curve" smooth="yes"/>
      <point x="1168" y="439"/>
      <point x="1108" y="408"/>
      <point x="1029" y="408" type="curve" smooth="yes"/>
      <point x="982" y="408"/>
      <point x="957" y="437"/>
      <point x="957" y="476" type="curve" smooth="yes"/>
      <point x="957" y="493"/>
      <point x="959" y="513"/>
      <point x="965" y="538" type="curve" smooth="yes"/>
      <point x="1105" y="1094" type="line"/>
      <point x="975" y="1114" type="line"/>
      <point x="942" y="999" type="line"/>
      <point x="917" y="1085"/>
      <point x="860" y="1132"/>
      <point x="782" y="1132" type="curve" smooth="yes"/>
      <point x="692" y="1132"/>
      <point x="581" y="1078"/>
      <point x="519" y="1010" type="curve" smooth="yes"/>
      <point x="416" y="896"/>
      <point x="370" y="765"/>
      <point x="370" y="638" type="curve" smooth="yes"/>
      <point x="370" y="550"/>
      <point x="396" y="479"/>
      <point x="438" y="426" type="curve" smooth="yes"/>
      <point x="483" y="369"/>
      <point x="559" y="333"/>
      <point x="626" y="333" type="curve" smooth="yes"/>
      <point x="717" y="333"/>
      <point x="778" y="386"/>
      <point x="875" y="536" type="curve"/>
      <point x="857" y="545" type="line"/>
      <point x="846" y="491"/>
      <point x="846" y="480"/>
      <point x="846" y="454" type="curve" smooth="yes"/>
      <point x="846" y="374"/>
      <point x="903" y="321"/>
      <point x="987" y="321" type="curve" smooth="yes"/>
      <point x="1232" y="321"/>
      <point x="1444" y="622"/>
      <point x="1444" y="891" type="curve" smooth="yes"/>
      <point x="1444" y="1231"/>
      <point x="1155" y="1507"/>
      <point x="797" y="1507" type="curve" smooth="yes"/>
      <point x="393" y="1507"/>
      <point x="88" y="1171"/>
      <point x="88" y="669" type="curve" smooth="yes"/>
      <point x="88" y="279"/>
      <point x="343" y="1"/>
      <point x="789" y="1" type="curve" smooth="yes"/>
      <point x="967" y="1"/>
      <point x="1162" y="66"/>
      <point x="1283" y="172" type="curve" smooth="yes"/>
      <point x="1330" y="213"/>
      <point x="1401" y="285"/>
    </contour>
    <contour>
      <point x="802" y="1058" type="curve" smooth="yes"/>
      <point x="868" y="1058"/>
      <point x="903" y="991"/>
      <point x="903" y="901" type="curve" smooth="yes"/>
      <point x="903" y="819"/>
      <point x="872" y="692"/>
      <point x="829" y="593" type="curve" smooth="yes"/>
      <point x="780" y="481"/>
      <point x="717" y="415"/>
      <point x="653" y="415" type="curve" smooth="yes"/>
      <point x="590" y="415"/>
      <point x="515" y="453"/>
      <point x="515" y="575" type="curve" smooth="yes"/>
      <point x="515" y="690"/>
      <point x="566" y="845"/>
      <point x="642" y="962" type="curve" smooth="yes"/>
      <point x="687" y="1031"/>
      <point x="754" y="1058"/>
    </contour>
  </outline>
</glyph>
<glyph name="A" format="2">
  <advance width="1479"/>
  <unicode hex="0041"/>
  <note>
A
</note>
  <guideline x="1519" y="857" angle="111.3291"/>
  <anchor x="733" y="1640" name="Lupper"/>
  <outline>
    <contour>
      <point x="-15" y="0" type="line"/>
      <point x="516" y="0" type="line"/>
      <point x="516" y="75" type="line"/>
      <point x="485" y="75" type="line" smooth="yes"/>
      <point x="375" y="75"/>
      <point x="315" y="114"/>
      <point x="315" y="192" type="curve" smooth="yes"/>
      <point x="315" y="219"/>
      <point x="320" y="243"/>
      <point x="334" y="278" type="curve" smooth="yes"/>
      <point x="699" y="1214" type="line"/>
      <point x="669" y="1240" type="line"/>
      <point x="1082" y="184" type="line" smooth="yes"/>
      <point x="1095" y="151"/>
      <point x="1098" y="139"/>
      <point x="1098" y="129" type="curve" smooth="yes"/>
      <point x="1098" y="96"/>
      <point x="1038" y="75"/>
      <point x="962" y="75" type="curve" smooth="yes"/>
      <point x="896" y="75" type="line"/>
      <point x="896" y="0" type="line"/>
      <point x="1490" y="0" type="line"/>
      <point x="1490" y="75" type="line"/>
      <point x="1364" y="75"/>
      <point x="1330" y="90"/>
      <point x="1285" y="206" type="curve" smooth="yes"/>
      <point x="777" y="1507" type="line"/>
      <point x="707" y="1507" type="line"/>
      <point x="217" y="252" type="line" smooth="yes"/>
      <point x="171" y="135"/>
      <point x="110" y="75"/>
      <point x="-15" y="75" type="curve"/>
    </contour>
    <contour>
      <point x="985" y="567" type="line"/>
      <point x="414" y="567" type="line"/>
      <point x="374" y="489" type="line"/>
      <point x="1008" y="489" type="line"/>
    </contour>
  </outline>
</glyph>
<glyph name="B" format="2">
  <advance width="1395"/>
  <unicode hex="0042"/>
  <outline>
    <contour>
      <point x="94" y="0" type="line"/>
      <point x="796" y="0" type="line" smooth="yes"/>
      <point x="1122" y="0"/>
      <point x="1332" y="141"/>
      <point x="1332" y="378" type="curve" smooth="yes"/>
      <point x="1332" y="581"/>
      <point x="1197" y="693"/>
      <point x="905" y="735" type="curve"/>
      <point x="902" y="720" type="line"/>
      <point x="1070" y="752"/>
      <point x="1255" y="848"/>
      <point x="1255" y="1053" type="curve" smooth="yes"/>
      <point x="1255" y="1300"/>
      <point x="1047" y="1395"/>
      <point x="789" y="1395" type="curve" smooth="yes"/>
      <point x="94" y="1395" type="line"/>
      <point x="94" y="1324" type="line"/>
      <point x="240" y="1324"/>
      <point x="278" y="1318"/>
      <point x="291" y="1298" type="curve" smooth="yes"/>
      <point x="304" y="1279"/>
      <point x="304" y="1276"/>
      <point x="304" y="1178" type="curve" smooth="yes"/>
      <point x="304" y="218" type="line" smooth="yes"/>
      <point x="304" y="119"/>
      <point x="304" y="115"/>
      <point x="291" y="98" type="curve" smooth="yes"/>
      <point x="276" y="78"/>
      <point x="240" y="71"/>
      <point x="94" y="71" type="curve"/>
    </contour>
    <contour>
      <point x="632" y="91" type="line"/>
      <point x="535" y="91"/>
      <point x="506" y="110"/>
      <point x="506" y="212" type="curve" smooth="yes"/>
      <point x="506" y="1208" type="line" smooth="yes"/>
      <point x="506" y="1284"/>
      <point x="545" y="1304"/>
      <point x="647" y="1304" type="curve" smooth="yes"/>
      <point x="894" y="1304"/>
      <point x="1034" y="1271"/>
      <point x="1034" y="1032" type="curve" smooth="yes"/>
      <point x="1034" y="840"/>
      <point x="940" y="767"/>
      <point x="767" y="767" type="curve" smooth="yes"/>
      <point x="462" y="767" type="line"/>
      <point x="462" y="676" type="line"/>
      <point x="784" y="676" type="line" smooth="yes"/>
      <point x="986" y="676"/>
      <point x="1103" y="597"/>
      <point x="1103" y="385" type="curve" smooth="yes"/>
      <point x="1103" y="158"/>
      <point x="979" y="91"/>
      <point x="783" y="91" type="curve"/>
    </contour>
  </outline>
</glyph>
<glyph name="C" format="2">
  <advance width="1479"/>
  <unicode hex="0043"/>
  <anchor x="741" y="0" name="Llower"/>
  <outline>
    <contour>
      <point x="1358" y="901" type="line"/>
      <point x="1322" y="1493" type="line"/>
      <point x="1258" y="1493" type="line"/>
      <point x="1192" y="1334" type="line"/>
      <point x="1208" y="1345" type="line"/>
      <point x="1047" y="1476"/>
      <point x="958" y="1509"/>
      <point x="818" y="1509" type="curve" smooth="yes"/>
      <point x="432" y="1509"/>
      <point x="135" y="1152"/>
      <point x="135" y="725" type="curve" smooth="yes"/>
      <point x="135" y="283"/>
      <point x="414" y="-31"/>
      <point x="831" y="-31" type="curve" smooth="yes"/>
      <point x="1135" y="-31"/>
      <point x="1349" y="174"/>
      <point x="1395" y="511" type="curve"/>
      <point x="1317" y="511" type="line"/>
      <point x="1261" y="199"/>
      <point x="1088" y="53"/>
      <point x="852" y="53" type="curve" smooth="yes"/>
      <point x="529" y="53"/>
      <point x="385" y="280"/>
      <point x="385" y="723" type="curve" smooth="yes"/>
      <point x="385" y="1061"/>
      <point x="469" y="1430"/>
      <point x="826" y="1430" type="curve" smooth="yes"/>
      <point x="1108" y="1430"/>
      <point x="1204" y="1189"/>
      <point x="1291" y="901" type="curve"/>
    </contour>
  </outline>
</glyph>
<glyph name="D" format="2">
  <advance width="1593"/>
  <unicode hex="0044"/>
  <note>
D
</note>
  <outline>
    <contour>
      <point x="68" y="75" type="line"/>
      <point x="68" y="0" type="line"/>
      <point x="753" y="0" type="line" smooth="yes"/>
      <point x="935" y="0"/>
      <point x="1069" y="27"/>
      <point x="1178" y="90" type="curve" smooth="yes"/>
      <point x="1383" y="209"/>
      <point x="1480" y="440"/>
      <point x="1480" y="768" type="curve" smooth="yes"/>
      <point x="1480" y="1030"/>
      <point x="1397" y="1250"/>
      <point x="1208" y="1374" type="curve" smooth="yes"/>
      <point x="1097" y="1447"/>
      <point x="949" y="1479"/>
      <point x="716" y="1479" type="curve" smooth="yes"/>
      <point x="68" y="1479" type="line"/>
      <point x="68" y="1404" type="line"/>
      <point x="107" y="1404" type="line" smooth="yes"/>
      <point x="222" y="1404"/>
      <point x="260" y="1399"/>
      <point x="276" y="1376" type="curve" smooth="yes"/>
      <point x="289" y="1358"/>
      <point x="290" y="1317"/>
      <point x="290" y="1249" type="curve" smooth="yes"/>
      <point x="290" y="231" type="line" smooth="yes"/>
      <point x="290" y="126"/>
      <point x="290" y="122"/>
      <point x="277" y="104" type="curve" smooth="yes"/>
      <point x="261" y="83"/>
      <point x="222" y="75"/>
      <point x="107" y="75" type="curve" smooth="yes"/>
    </contour>
    <contour>
      <point x="751" y="96" type="curve" smooth="yes"/>
      <point x="636" y="96" type="line" smooth="yes"/>
      <point x="523" y="96"/>
      <point x="504" y="109"/>
      <point x="504" y="209" type="curve" smooth="yes"/>
      <point x="504" y="1269" type="line" smooth="yes"/>
      <point x="504" y="1369"/>
      <point x="518" y="1383"/>
      <point x="636" y="1383" type="curve" smooth="yes"/>
      <point x="738" y="1383" type="line" smooth="yes"/>
      <point x="1088" y="1383"/>
      <point x="1230" y="1192"/>
      <point x="1230" y="739" type="curve" smooth="yes"/>
      <point x="1230" y="281"/>
      <point x="1103" y="96"/>
    </contour>
  </outline>
</glyph>
<glyph name="E" format="2">
  <advance width="1395"/>
  <unicode hex="0045"/>
  <note>
E
</note>
  <guideline x="1202" y="760" angle="270"/>
  <anchor x="770" y="1547" name="Lupper"/>
  <outline>
    <contour>
      <point x="108" y="0" type="line"/>
      <point x="1266" y="0" type="line"/>
      <point x="1304" y="497" type="line"/>
      <point x="1234" y="497" type="line"/>
      <point x="1160" y="153"/>
      <point x="1081" y="91"/>
      <point x="814" y="91" type="curve" smooth="yes"/>
      <point x="606" y="91" type="line" smooth="yes"/>
      <point x="542" y="91"/>
      <point x="519" y="114"/>
      <point x="519" y="184" type="curve" smooth="yes"/>
      <point x="519" y="1217" type="line" smooth="yes"/>
      <point x="519" y="1288"/>
      <point x="536" y="1304"/>
      <point x="617" y="1304" type="curve" smooth="yes"/>
      <point x="767" y="1304" type="line" smooth="yes"/>
      <point x="1052" y="1304"/>
      <point x="1131" y="1255"/>
      <point x="1193" y="921" type="curve"/>
      <point x="1264" y="921" type="line"/>
      <point x="1237" y="1395" type="line"/>
      <point x="108" y="1395" type="line"/>
      <point x="108" y="1324" type="line"/>
      <point x="142" y="1324" type="line" smooth="yes"/>
      <point x="253" y="1324"/>
      <point x="289" y="1318"/>
      <point x="305" y="1298" type="curve" smooth="yes"/>
      <point x="316" y="1284"/>
      <point x="317" y="1263"/>
      <point x="317" y="1216" type="curve" smooth="yes"/>
      <point x="317" y="180" type="line" smooth="yes"/>
      <point x="317" y="119"/>
      <point x="317" y="115"/>
      <point x="305" y="98" type="curve" smooth="yes"/>
      <point x="290" y="78"/>
      <point x="253" y="71"/>
      <point x="142" y="71" type="curve" smooth="yes"/>
      <point x="108" y="71" type="line"/>
    </contour>
    <contour>
      <point x="851" y="398" type="curve"/>
      <point x="922" y="398" type="line"/>
      <point x="922" y="1032" type="line"/>
      <point x="851" y="1032" type="line"/>
      <point x="839" y="842"/>
      <point x="750" y="762"/>
      <point x="566" y="762" type="curve" smooth="yes"/>
      <point x="475" y="762" type="line"/>
      <point x="475" y="681" type="line"/>
      <point x="558" y="681" type="line" smooth="yes"/>
      <point x="757" y="681"/>
      <point x="843" y="612"/>
    </contour>
  </outline>
</glyph>
<glyph name="F" format="2">
  <advance width="1366"/>
  <unicode hex="0046"/>
  <note>
F
</note>
  <outline>
    <contour>
      <point x="120" y="0" type="line"/>
      <point x="808" y="0" type="line"/>
      <point x="808" y="75" type="line"/>
      <point x="740" y="75" type="line" smooth="yes"/>
      <point x="624" y="75"/>
      <point x="587" y="82"/>
      <point x="570" y="104" type="curve" smooth="yes"/>
      <point x="557" y="121"/>
      <point x="556" y="129"/>
      <point x="556" y="191" type="curve" smooth="yes"/>
      <point x="556" y="1280" type="line" smooth="yes"/>
      <point x="556" y="1366"/>
      <point x="574" y="1382"/>
      <point x="700" y="1382" type="curve" smooth="yes"/>
      <point x="859" y="1382" type="line" smooth="yes"/>
      <point x="1105" y="1382"/>
      <point x="1189" y="1319"/>
      <point x="1253" y="966" type="curve"/>
      <point x="1328" y="966" type="line"/>
      <point x="1299" y="1479" type="line"/>
      <point x="120" y="1479" type="line"/>
      <point x="120" y="1404" type="line"/>
      <point x="157" y="1404" type="line" smooth="yes"/>
      <point x="274" y="1404"/>
      <point x="314" y="1399"/>
      <point x="327" y="1376" type="curve" smooth="yes"/>
      <point x="338" y="1357"/>
      <point x="342" y="1320"/>
      <point x="342" y="1289" type="curve" smooth="yes"/>
      <point x="342" y="201" type="line" smooth="yes"/>
      <point x="342" y="126"/>
      <point x="342" y="122"/>
      <point x="329" y="104" type="curve" smooth="yes"/>
      <point x="313" y="83"/>
      <point x="274" y="75"/>
      <point x="157" y="75" type="curve" smooth="yes"/>
      <point x="120" y="75" type="line"/>
    </contour>
    <contour>
      <point x="928" y="422" type="curve"/>
      <point x="1003" y="422" type="line"/>
      <point x="1003" y="1094" type="line"/>
      <point x="928" y="1094" type="line"/>
      <point x="916" y="893"/>
      <point x="821" y="808"/>
      <point x="626" y="808" type="curve" smooth="yes"/>
      <point x="510" y="808" type="line"/>
      <point x="510" y="722" type="line"/>
      <point x="618" y="722" type="line" smooth="yes"/>
      <point x="829" y="722"/>
      <point x="920" y="649"/>
    </contour>
  </outline>
</glyph>
<glyph name="G" format="2">
  <advance width="1503"/>
  <unicode hex="0047"/>
  <note>
G
</note>
  <outline>
    <contour>
      <point x="734" y="-29" type="curve" smooth="yes"/>
      <point x="897" y="-29"/>
      <point x="1067" y="45"/>
      <point x="1172" y="231" type="curve"/>
      <point x="1132" y="222" type="line"/>
      <point x="1216" y="-27" type="line"/>
      <point x="1279" y="-27" type="line"/>
      <point x="1279" y="465" type="line" smooth="yes"/>
      <point x="1279" y="549"/>
      <point x="1291" y="565"/>
      <point x="1390" y="565" type="curve"/>
      <point x="1456" y="565" type="line"/>
      <point x="1456" y="636" type="line"/>
      <point x="865" y="636" type="line"/>
      <point x="865" y="565" type="line"/>
      <point x="958" y="565" type="line"/>
      <point x="1066" y="565"/>
      <point x="1080" y="522"/>
      <point x="1080" y="457" type="curve" smooth="yes"/>
      <point x="1080" y="342" type="line" smooth="yes"/>
      <point x="1080" y="193"/>
      <point x="966" y="48"/>
      <point x="725" y="48" type="curve" smooth="yes"/>
      <point x="435" y="48"/>
      <point x="326" y="347"/>
      <point x="326" y="673" type="curve" smooth="yes"/>
      <point x="326" y="1103"/>
      <point x="485" y="1350"/>
      <point x="754" y="1350" type="curve" smooth="yes"/>
      <point x="1038" y="1350"/>
      <point x="1128" y="1138"/>
      <point x="1210" y="867" type="curve"/>
      <point x="1273" y="867" type="line"/>
      <point x="1231" y="1409" type="line"/>
      <point x="1168" y="1409" type="line"/>
      <point x="1093" y="1259" type="line"/>
      <point x="1123" y="1270" type="line"/>
      <point x="971" y="1393"/>
      <point x="888" y="1424"/>
      <point x="743" y="1424" type="curve" smooth="yes"/>
      <point x="393" y="1424"/>
      <point x="91" y="1122"/>
      <point x="91" y="673" type="curve" smooth="yes"/>
      <point x="91" y="200"/>
      <point x="421" y="-29"/>
    </contour>
  </outline>
</glyph>
<glyph name="H" format="2">
  <advance width="1706"/>
  <unicode hex="0048"/>
  <note>
H
</note>
  <outline>
    <contour>
      <point x="67" y="0" type="line"/>
      <point x="725" y="0" type="line"/>
      <point x="725" y="75" type="line"/>
      <point x="570" y="75"/>
      <point x="534" y="83"/>
      <point x="517" y="104" type="curve" smooth="yes"/>
      <point x="503" y="122"/>
      <point x="503" y="126"/>
      <point x="503" y="231" type="curve" smooth="yes"/>
      <point x="503" y="1249" type="line" smooth="yes"/>
      <point x="503" y="1353"/>
      <point x="503" y="1357"/>
      <point x="517" y="1376" type="curve" smooth="yes"/>
      <point x="534" y="1398"/>
      <point x="570" y="1404"/>
      <point x="725" y="1404" type="curve"/>
      <point x="725" y="1479" type="line"/>
      <point x="67" y="1479" type="line"/>
      <point x="67" y="1404" type="line"/>
      <point x="221" y="1404"/>
      <point x="256" y="1401"/>
      <point x="273" y="1378" type="curve" smooth="yes"/>
      <point x="286" y="1360"/>
      <point x="289" y="1353"/>
      <point x="289" y="1249" type="curve" smooth="yes"/>
      <point x="289" y="231" type="line" smooth="yes"/>
      <point x="289" y="129"/>
      <point x="289" y="122"/>
      <point x="276" y="104" type="curve" smooth="yes"/>
      <point x="260" y="83"/>
      <point x="221" y="75"/>
      <point x="67" y="75" type="curve"/>
    </contour>
    <contour>
      <point x="982" y="0" type="line"/>
      <point x="1640" y="0" type="line"/>
      <point x="1640" y="75" type="line"/>
      <point x="1486" y="75"/>
      <point x="1447" y="83"/>
      <point x="1431" y="104" type="curve" smooth="yes"/>
      <point x="1418" y="122"/>
      <point x="1418" y="124"/>
      <point x="1418" y="231" type="curve" smooth="yes"/>
      <point x="1418" y="1249" type="line" smooth="yes"/>
      <point x="1418" y="1355"/>
      <point x="1419" y="1357"/>
      <point x="1433" y="1376" type="curve" smooth="yes"/>
      <point x="1450" y="1399"/>
      <point x="1486" y="1404"/>
      <point x="1640" y="1404" type="curve"/>
      <point x="1640" y="1479" type="line"/>
      <point x="982" y="1479" type="line"/>
      <point x="982" y="1404" type="line"/>
      <point x="1128" y="1404"/>
      <point x="1175" y="1402"/>
      <point x="1190" y="1379" type="curve" smooth="yes"/>
      <point x="1202" y="1361"/>
      <point x="1204" y="1351"/>
      <point x="1204" y="1249" type="curve" smooth="yes"/>
      <point x="1204" y="231" type="line" smooth="yes"/>
      <point x="1204" y="126"/>
      <point x="1203" y="120"/>
      <point x="1189" y="104" type="curve" smooth="yes"/>
      <point x="1172" y="85"/>
      <point x="1135" y="75"/>
      <point x="982" y="75" type="curve"/>
    </contour>
    <contour>
      <point x="457" y="711" type="line"/>
      <point x="1250" y="711" type="line"/>
      <point x="1250" y="809" type="line"/>
      <point x="457" y="809" type="line"/>
    </contour>
  </outline>
</glyph>
<glyph name="I" format="2">
  <advance width="834"/>
  <unicode hex="0049"/>
  <note>
I
</note>
  <anchor x="417" y="1640" name="Lupper"/>
  <outline>
    <contour>
      <point x="88" y="0" type="line"/>
      <point x="746" y="0" type="line"/>
      <point x="746" y="75" type="line"/>
      <point x="590" y="75"/>
      <point x="553" y="81"/>
      <point x="537" y="104" type="curve" smooth="yes"/>
      <point x="524" y="122"/>
      <point x="524" y="135"/>
      <point x="524" y="231" type="curve" smooth="yes"/>
      <point x="524" y="1249" type="line" smooth="yes"/>
      <point x="524" y="1345"/>
      <point x="526" y="1356"/>
      <point x="539" y="1376" type="curve" smooth="yes"/>
      <point x="553" y="1397"/>
      <point x="588" y="1404"/>
      <point x="746" y="1404" type="curve"/>
      <point x="746" y="1479" type="line"/>
      <point x="88" y="1479" type="line"/>
      <point x="88" y="1404" type="line"/>
      <point x="246" y="1404"/>
      <point x="281" y="1401"/>
      <point x="295" y="1378" type="curve" smooth="yes"/>
      <point x="307" y="1358"/>
      <point x="310" y="1351"/>
      <point x="310" y="1249" type="curve" smooth="yes"/>
      <point x="310" y="231" type="line" smooth="yes"/>
      <point x="310" y="129"/>
      <point x="307" y="121"/>
      <point x="294" y="104" type="curve" smooth="yes"/>
      <point x="277" y="82"/>
      <point x="246" y="75"/>
      <point x="88" y="75" type="curve"/>
    </contour>
  </outline>
</glyph>
<glyph name="J" format="2">
  <advance width="1139"/>
  <unicode hex="004A"/>
  <outline>
    <contour>
      <point x="433" y="-31" type="curve" smooth="yes"/>
      <point x="606" y="-31"/>
      <point x="720" y="29"/>
      <point x="805" y="140" type="curve" smooth="yes"/>
      <point x="862" y="214"/>
      <point x="880" y="275"/>
      <point x="880" y="449" type="curve" smooth="yes"/>
      <point x="880" y="1249" type="line" smooth="yes"/>
      <point x="880" y="1353"/>
      <point x="880" y="1357"/>
      <point x="894" y="1376" type="curve" smooth="yes"/>
      <point x="908" y="1396"/>
      <point x="921" y="1404"/>
      <point x="1077" y="1404" type="curve"/>
      <point x="1077" y="1479" type="line"/>
      <point x="424" y="1479" type="line"/>
      <point x="424" y="1404" type="line"/>
      <point x="578" y="1404"/>
      <point x="636" y="1400"/>
      <point x="651" y="1380" type="curve" smooth="yes"/>
      <point x="665" y="1361"/>
      <point x="666" y="1353"/>
      <point x="666" y="1249" type="curve" smooth="yes"/>
      <point x="666" y="467" type="line" smooth="yes"/>
      <point x="666" y="287"/>
      <point x="663" y="235"/>
      <point x="618" y="161" type="curve" smooth="yes"/>
      <point x="577" y="93"/>
      <point x="498" y="50"/>
      <point x="396" y="50" type="curve" smooth="yes"/>
      <point x="257" y="50"/>
      <point x="141" y="147"/>
      <point x="141" y="254" type="curve" smooth="yes"/>
      <point x="141" y="282"/>
      <point x="162" y="306"/>
      <point x="177" y="306" type="curve" smooth="yes"/>
      <point x="198" y="306"/>
      <point x="234" y="287"/>
      <point x="260" y="287" type="curve" smooth="yes"/>
      <point x="331" y="287"/>
      <point x="386" y="350"/>
      <point x="386" y="420" type="curve" smooth="yes"/>
      <point x="386" y="511"/>
      <point x="319" y="577"/>
      <point x="226" y="577" type="curve" smooth="yes"/>
      <point x="107" y="577"/>
      <point x="32" y="474"/>
      <point x="32" y="328" type="curve" smooth="yes"/>
      <point x="32" y="166"/>
      <point x="158" y="-31"/>
    </contour>
  </outline>
</glyph>
<glyph name="K" format="2">
  <advance width="1503"/>
  <unicode hex="004B"/>
  <note>
K
</note>
  <outline>
    <contour>
      <point x="76" y="0" type="line"/>
      <point x="697" y="0" type="line"/>
      <point x="697" y="71" type="line"/>
      <point x="551" y="71"/>
      <point x="517" y="78"/>
      <point x="501" y="98" type="curve" smooth="yes"/>
      <point x="488" y="115"/>
      <point x="488" y="135"/>
      <point x="488" y="210" type="curve" smooth="yes"/>
      <point x="488" y="1178" type="line" smooth="yes"/>
      <point x="488" y="1276"/>
      <point x="488" y="1280"/>
      <point x="501" y="1298" type="curve" smooth="yes"/>
      <point x="515" y="1317"/>
      <point x="553" y="1324"/>
      <point x="714" y="1324" type="curve"/>
      <point x="714" y="1395" type="line"/>
      <point x="76" y="1395" type="line"/>
      <point x="76" y="1324" type="line"/>
      <point x="222" y="1324"/>
      <point x="257" y="1320"/>
      <point x="272" y="1301" type="curve" smooth="yes"/>
      <point x="284" y="1285"/>
      <point x="286" y="1265"/>
      <point x="286" y="1178" type="curve" smooth="yes"/>
      <point x="286" y="218" type="line" smooth="yes"/>
      <point x="286" y="122"/>
      <point x="286" y="113"/>
      <point x="274" y="98" type="curve" smooth="yes"/>
      <point x="257" y="79"/>
      <point x="222" y="71"/>
      <point x="76" y="71" type="curve"/>
    </contour>
    <contour>
      <point x="451" y="444" type="line"/>
      <point x="1154" y="1180" type="line" smooth="yes"/>
      <point x="1249" y="1278"/>
      <point x="1364" y="1324"/>
      <point x="1461" y="1324" type="curve"/>
      <point x="1461" y="1395" type="line"/>
      <point x="889" y="1395" type="line"/>
      <point x="889" y="1324" type="line"/>
      <point x="946" y="1324" type="line" smooth="yes"/>
      <point x="1054" y="1324"/>
      <point x="1070" y="1298"/>
      <point x="1070" y="1259" type="curve" smooth="yes"/>
      <point x="1070" y="1228"/>
      <point x="1044" y="1190"/>
      <point x="1007" y="1152" type="curve" smooth="yes"/>
      <point x="459" y="579" type="line"/>
    </contour>
    <contour>
      <point x="909" y="0" type="line"/>
      <point x="1535" y="0" type="line"/>
      <point x="1535" y="71" type="line"/>
      <point x="1402" y="71"/>
      <point x="1380" y="84"/>
      <point x="1321" y="168" type="curve"/>
      <point x="816" y="897" type="line"/>
      <point x="687" y="768" type="line"/>
      <point x="1076" y="196" type="line"/>
      <point x="1107" y="150"/>
      <point x="1115" y="135"/>
      <point x="1115" y="115" type="curve" smooth="yes"/>
      <point x="1115" y="83"/>
      <point x="1064" y="71"/>
      <point x="909" y="71" type="curve"/>
    </contour>
  </outline>
</glyph>
<glyph name="L" format="2">
  <advance width="1366"/>
  <unicode hex="004C"/>
  <note>
L
</note>
  <outline>
    <contour>
      <point x="64" y="0" type="line"/>
      <point x="1287" y="0" type="line"/>
      <point x="1330" y="561" type="line"/>
      <point x="1260" y="561" type="line"/>
      <point x="1192" y="193"/>
      <point x="1100" y="96"/>
      <point x="783" y="96" type="curve" smooth="yes"/>
      <point x="588" y="96" type="line" smooth="yes"/>
      <point x="525" y="96"/>
      <point x="500" y="121"/>
      <point x="500" y="195" type="curve" smooth="yes"/>
      <point x="500" y="1249" type="line" smooth="yes"/>
      <point x="500" y="1347"/>
      <point x="500" y="1356"/>
      <point x="513" y="1376" type="curve" smooth="yes"/>
      <point x="527" y="1397"/>
      <point x="587" y="1404"/>
      <point x="740" y="1404" type="curve"/>
      <point x="740" y="1479" type="line"/>
      <point x="64" y="1479" type="line"/>
      <point x="64" y="1404" type="line"/>
      <point x="217" y="1404"/>
      <point x="250" y="1404"/>
      <point x="269" y="1384" type="curve" smooth="yes"/>
      <point x="285" y="1368"/>
      <point x="286" y="1348"/>
      <point x="286" y="1249" type="curve" smooth="yes"/>
      <point x="286" y="231" type="line" smooth="yes"/>
      <point x="286" y="126"/>
      <point x="286" y="118"/>
      <point x="272" y="102" type="curve" smooth="yes"/>
      <point x="255" y="82"/>
      <point x="217" y="75"/>
      <point x="64" y="75" type="curve"/>
    </contour>
  </outline>
</glyph>
<glyph name="M" format="2">
  <advance width="1933"/>
  <unicode hex="004D"/>
  <guideline x="617" y="696" angle="290.6418"/>
  <outline>
    <contour>
      <point x="39" y="0" type="line"/>
      <point x="580" y="0" type="line"/>
      <point x="580" y="75" type="line"/>
      <point x="393" y="85"/>
      <point x="356" y="143"/>
      <point x="356" y="421" type="curve" smooth="yes"/>
      <point x="356" y="1424" type="line"/>
      <point x="345" y="1419" type="line"/>
      <point x="879" y="0" type="line"/>
      <point x="954" y="0" type="line"/>
      <point x="1447" y="1391" type="line"/>
      <point x="1444" y="1394" type="line"/>
      <point x="1444" y="231" type="line" smooth="yes"/>
      <point x="1444" y="135"/>
      <point x="1444" y="118"/>
      <point x="1432" y="102" type="curve" smooth="yes"/>
      <point x="1416" y="81"/>
      <point x="1376" y="75"/>
      <point x="1222" y="75" type="curve"/>
      <point x="1222" y="0" type="line"/>
      <point x="1881" y="0" type="line"/>
      <point x="1881" y="75" type="line"/>
      <point x="1727" y="75"/>
      <point x="1690" y="75"/>
      <point x="1676" y="97" type="curve" smooth="yes"/>
      <point x="1664" y="116"/>
      <point x="1659" y="131"/>
      <point x="1659" y="231" type="curve" smooth="yes"/>
      <point x="1659" y="1249" type="line" smooth="yes"/>
      <point x="1659" y="1373"/>
      <point x="1677" y="1404"/>
      <point x="1881" y="1404" type="curve"/>
      <point x="1881" y="1479" type="line"/>
      <point x="1386" y="1479" type="line"/>
      <point x="952" y="282" type="line"/>
      <point x="984" y="282" type="line"/>
      <point x="533" y="1479" type="line"/>
      <point x="39" y="1479" type="line"/>
      <point x="39" y="1404" type="line"/>
      <point x="195" y="1404"/>
      <point x="230" y="1396"/>
      <point x="246" y="1376" type="curve" smooth="yes"/>
      <point x="261" y="1357"/>
      <point x="261" y="1355"/>
      <point x="261" y="1249" type="curve" smooth="yes"/>
      <point x="261" y="421" type="line" smooth="yes"/>
      <point x="261" y="143"/>
      <point x="238" y="75"/>
      <point x="39" y="75" type="curve"/>
    </contour>
  </outline>
</glyph>
<glyph name="N" format="2">
  <advance width="1669"/>
  <unicode hex="004E"/>
  <note>
N
</note>
  <anchor x="857" y="1640" name="Lupper"/>
  <outline>
    <contour>
      <point x="1324" y="302" type="line"/>
      <point x="448" y="1479" type="line"/>
      <point x="84" y="1479" type="line"/>
      <point x="84" y="1404" type="line"/>
      <point x="234" y="1404"/>
      <point x="273" y="1386"/>
      <point x="306" y="1337" type="curve"/>
      <point x="306" y="274" type="line" smooth="yes"/>
      <point x="306" y="145"/>
      <point x="271" y="85"/>
      <point x="82" y="75" type="curve"/>
      <point x="82" y="0" type="line"/>
      <point x="638" y="0" type="line"/>
      <point x="638" y="75" type="line"/>
      <point x="451" y="85"/>
      <point x="416" y="145"/>
      <point x="416" y="274" type="curve" smooth="yes"/>
      <point x="416" y="1250" type="line"/>
      <point x="389" y="1241" type="line"/>
      <point x="1324" y="-29" type="line"/>
      <point x="1410" y="-29" type="line"/>
      <point x="1410" y="1216" type="line" smooth="yes"/>
      <point x="1410" y="1335"/>
      <point x="1439" y="1394"/>
      <point x="1632" y="1404" type="curve"/>
      <point x="1632" y="1479" type="line"/>
      <point x="1077" y="1479" type="line"/>
      <point x="1077" y="1404" type="line"/>
      <point x="1274" y="1394"/>
      <point x="1299" y="1337"/>
      <point x="1299" y="1216" type="curve" smooth="yes"/>
      <point x="1299" y="306" type="line"/>
    </contour>
  </outline>
</glyph>
<glyph name="O" format="2">
  <advance width="1593"/>
  <unicode hex="004F"/>
  <anchor x="797" y="1640" name="Lupper"/>
  <outline>
    <contour>
      <point x="797" y="-31" type="curve" smooth="yes"/>
      <point x="1198" y="-31"/>
      <point x="1481" y="301"/>
      <point x="1481" y="744" type="curve" smooth="yes"/>
      <point x="1481" y="1174"/>
      <point x="1198" y="1509"/>
      <point x="795" y="1509" type="curve" smooth="yes"/>
      <point x="345" y="1509"/>
      <point x="112" y="1125"/>
      <point x="112" y="734" type="curve" smooth="yes"/>
      <point x="112" y="340"/>
      <point x="364" y="-31"/>
    </contour>
    <contour>
      <point x="797" y="47" type="curve" smooth="yes"/>
      <point x="449" y="47"/>
      <point x="362" y="375"/>
      <point x="362" y="743" type="curve" smooth="yes"/>
      <point x="362" y="1116"/>
      <point x="452" y="1432"/>
      <point x="813" y="1432" type="curve" smooth="yes"/>
      <point x="1140" y="1432"/>
      <point x="1231" y="1094"/>
      <point x="1231" y="731" type="curve" smooth="yes"/>
      <point x="1231" y="376"/>
      <point x="1142" y="47"/>
    </contour>
  </outline>
</glyph>
<glyph name="P" format="2">
  <advance width="1288"/>
  <unicode hex="0050"/>
  <outline>
    <contour>
      <point x="75" y="0" type="line"/>
      <point x="733" y="0" type="line"/>
      <point x="733" y="70" type="line"/>
      <point x="573" y="70"/>
      <point x="516" y="73"/>
      <point x="501" y="93" type="curve" smooth="yes"/>
      <point x="490" y="108"/>
      <point x="486" y="123"/>
      <point x="486" y="217" type="curve" smooth="yes"/>
      <point x="486" y="1234" type="line" smooth="yes"/>
      <point x="486" y="1275"/>
      <point x="540" y="1304"/>
      <point x="665" y="1304" type="curve" smooth="yes"/>
      <point x="730" y="1304" type="line" smooth="yes"/>
      <point x="922" y="1304"/>
      <point x="1025" y="1200"/>
      <point x="1025" y="995" type="curve" smooth="yes"/>
      <point x="1025" y="796"/>
      <point x="927" y="692"/>
      <point x="675" y="692" type="curve" smooth="yes"/>
      <point x="442" y="692" type="line"/>
      <point x="442" y="601" type="line"/>
      <point x="706" y="601" type="line" smooth="yes"/>
      <point x="1014" y="601"/>
      <point x="1242" y="716"/>
      <point x="1242" y="984" type="curve" smooth="yes"/>
      <point x="1242" y="1276"/>
      <point x="1024" y="1395"/>
      <point x="739" y="1395" type="curve" smooth="yes"/>
      <point x="75" y="1395" type="line"/>
      <point x="75" y="1324" type="line"/>
      <point x="220" y="1324"/>
      <point x="257" y="1317"/>
      <point x="272" y="1298" type="curve" smooth="yes"/>
      <point x="282" y="1285"/>
      <point x="284" y="1276"/>
      <point x="284" y="1178" type="curve" smooth="yes"/>
      <point x="284" y="217" type="line" smooth="yes"/>
      <point x="284" y="118"/>
      <point x="284" y="114"/>
      <point x="272" y="97" type="curve" smooth="yes"/>
      <point x="257" y="77"/>
      <point x="220" y="70"/>
      <point x="75" y="70" type="curve"/>
    </contour>
  </outline>
</glyph>
<glyph name="Q" format="2">
  <advance width="1593"/>
  <unicode hex="0051"/>
  <outline>
    <component base="O" xOffset="-1"/>
    <contour>
      <point x="1262" y="-399" type="curve" smooth="yes"/>
      <point x="1426" y="-399"/>
      <point x="1514" y="-260"/>
      <point x="1514" y="-45" type="curve"/>
      <point x="1451" y="-45" type="line"/>
      <point x="1441" y="-176"/>
      <point x="1418" y="-231"/>
      <point x="1354" y="-231" type="curve" smooth="yes"/>
      <point x="1143" y="-231"/>
      <point x="1228" y="547"/>
      <point x="793" y="547" type="curve" smooth="yes"/>
      <point x="621" y="547"/>
      <point x="497" y="408"/>
      <point x="497" y="244" type="curve" smooth="yes"/>
      <point x="497" y="125"/>
      <point x="564" y="39"/>
      <point x="652" y="36" type="curve"/>
      <point x="664" y="64" type="line"/>
      <point x="602" y="88"/>
      <point x="571" y="157"/>
      <point x="571" y="232" type="curve" smooth="yes"/>
      <point x="571" y="343"/>
      <point x="640" y="455"/>
      <point x="783" y="455" type="curve" smooth="yes"/>
      <point x="919" y="455"/>
      <point x="1012" y="343"/>
      <point x="1012" y="122" type="curve" smooth="yes"/>
      <point x="1012" y="5"/>
      <point x="1015" y="87"/>
      <point x="1015" y="-14" type="curve"/>
      <point x="1015" y="-222"/>
      <point x="1095" y="-399"/>
    </contour>
  </outline>
</glyph>
<glyph name="R" format="2">
  <advance width="1395"/>
  <unicode hex="0052"/>
  <outline>
    <contour>
      <point x="1128" y="-17" type="curve" smooth="yes"/>
      <point x="1271" y="-17"/>
      <point x="1362" y="98"/>
      <point x="1368" y="309" type="curve"/>
      <point x="1302" y="309" type="line"/>
      <point x="1294" y="175"/>
      <point x="1265" y="115"/>
      <point x="1210" y="115" type="curve" smooth="yes"/>
      <point x="1160" y="115"/>
      <point x="1127" y="151"/>
      <point x="1084" y="345" type="curve" smooth="yes"/>
      <point x="1027" y="601"/>
      <point x="948" y="673"/>
      <point x="750" y="712" type="curve"/>
      <point x="740" y="701" type="line"/>
      <point x="1041" y="733"/>
      <point x="1208" y="844"/>
      <point x="1208" y="1049" type="curve" smooth="yes"/>
      <point x="1208" y="1270"/>
      <point x="1020" y="1395"/>
      <point x="756" y="1395" type="curve" smooth="yes"/>
      <point x="49" y="1395" type="line"/>
      <point x="49" y="1324" type="line"/>
      <point x="194" y="1324"/>
      <point x="236" y="1320"/>
      <point x="253" y="1302" type="curve" smooth="yes"/>
      <point x="267" y="1286"/>
      <point x="268" y="1276"/>
      <point x="268" y="1178" type="curve" smooth="yes"/>
      <point x="268" y="216" type="line" smooth="yes"/>
      <point x="268" y="119"/>
      <point x="266" y="109"/>
      <point x="252" y="92" type="curve" smooth="yes"/>
      <point x="235" y="73"/>
      <point x="194" y="71"/>
      <point x="49" y="71" type="curve"/>
      <point x="49" y="0" type="line"/>
      <point x="689" y="0" type="line"/>
      <point x="689" y="71" type="line"/>
      <point x="543" y="71"/>
      <point x="497" y="76"/>
      <point x="481" y="96" type="curve" smooth="yes"/>
      <point x="470" y="110"/>
      <point x="470" y="119"/>
      <point x="470" y="216" type="curve" smooth="yes"/>
      <point x="470" y="1192" type="line" smooth="yes"/>
      <point x="470" y="1288"/>
      <point x="488" y="1304"/>
      <point x="618" y="1304" type="curve" smooth="yes"/>
      <point x="713" y="1304" type="line" smooth="yes"/>
      <point x="894" y="1304"/>
      <point x="991" y="1222"/>
      <point x="991" y="1047" type="curve" smooth="yes"/>
      <point x="991" y="848"/>
      <point x="885" y="767"/>
      <point x="697" y="767" type="curve" smooth="yes"/>
      <point x="426" y="767" type="line"/>
      <point x="426" y="676" type="line"/>
      <point x="582" y="676" type="line" smooth="yes"/>
      <point x="775" y="676"/>
      <point x="864" y="608"/>
      <point x="881" y="414" type="curve" smooth="yes"/>
      <point x="896" y="241"/>
      <point x="908" y="153"/>
      <point x="938" y="93" type="curve" smooth="yes"/>
      <point x="978" y="14"/>
      <point x="1048" y="-17"/>
    </contour>
  </outline>
</glyph>
<glyph name="S" format="2">
  <advance width="1290"/>
  <unicode hex="0053"/>
  <anchor x="679" y="1640" name="Lupper"/>
  <outline>
    <contour>
      <point x="1122" y="958" type="line"/>
      <point x="1107" y="1491" type="line"/>
      <point x="1037" y="1491" type="line"/>
      <point x="937" y="1330" type="line"/>
      <point x="965" y="1349" type="line"/>
      <point x="863" y="1454"/>
      <point x="739" y="1509"/>
      <point x="600" y="1509" type="curve" smooth="yes"/>
      <point x="329" y="1509"/>
      <point x="151" y="1329"/>
      <point x="151" y="1081" type="curve" smooth="yes"/>
      <point x="151" y="858"/>
      <point x="256" y="746"/>
      <point x="557" y="669" type="curve" smooth="yes"/>
      <point x="896" y="582"/>
      <point x="1064" y="538"/>
      <point x="1064" y="350" type="curve" smooth="yes"/>
      <point x="1064" y="163"/>
      <point x="906" y="53"/>
      <point x="721" y="53" type="curve" smooth="yes"/>
      <point x="424" y="53"/>
      <point x="254" y="275"/>
      <point x="198" y="567" type="curve"/>
      <point x="126" y="567" type="line"/>
      <point x="135" y="-16" type="line"/>
      <point x="215" y="-16" type="line"/>
      <point x="332" y="161" type="line"/>
      <point x="280" y="146" type="line"/>
      <point x="430" y="16"/>
      <point x="535" y="-31"/>
      <point x="727" y="-31" type="curve" smooth="yes"/>
      <point x="1008" y="-31"/>
      <point x="1203" y="165"/>
      <point x="1203" y="420" type="curve" smooth="yes"/>
      <point x="1203" y="717"/>
      <point x="979" y="796"/>
      <point x="697" y="869" type="curve" smooth="yes"/>
      <point x="452" y="932"/>
      <point x="295" y="983"/>
      <point x="295" y="1159" type="curve" smooth="yes"/>
      <point x="295" y="1323"/>
      <point x="418" y="1431"/>
      <point x="602" y="1431" type="curve" smooth="yes"/>
      <point x="862" y="1431"/>
      <point x="999" y="1188"/>
      <point x="1054" y="958" type="curve"/>
    </contour>
  </outline>
</glyph>
<glyph name="T" format="2">
  <advance width="1366"/>
  <unicode hex="0054"/>
  <outline>
    <contour>
      <point x="360" y="0" type="line"/>
      <point x="1018" y="0" type="line"/>
      <point x="1018" y="75" type="line"/>
      <point x="850" y="75"/>
      <point x="825" y="80"/>
      <point x="810" y="102" type="curve" smooth="yes"/>
      <point x="798" y="119"/>
      <point x="796" y="126"/>
      <point x="796" y="171" type="curve" smooth="yes"/>
      <point x="796" y="1309" type="line" smooth="yes"/>
      <point x="796" y="1360"/>
      <point x="839" y="1382"/>
      <point x="907" y="1382" type="curve" smooth="yes"/>
      <point x="1120" y="1382"/>
      <point x="1213" y="1147"/>
      <point x="1245" y="909" type="curve"/>
      <point x="1318" y="909" type="line"/>
      <point x="1287" y="1479" type="line"/>
      <point x="89" y="1479" type="line"/>
      <point x="58" y="909" type="line"/>
      <point x="131" y="909" type="line"/>
      <point x="163" y="1148"/>
      <point x="258" y="1382"/>
      <point x="471" y="1382" type="curve" smooth="yes"/>
      <point x="539" y="1382"/>
      <point x="582" y="1360"/>
      <point x="582" y="1309" type="curve" smooth="yes"/>
      <point x="582" y="171" type="line" smooth="yes"/>
      <point x="582" y="126"/>
      <point x="582" y="119"/>
      <point x="568" y="102" type="curve" smooth="yes"/>
      <point x="552" y="82"/>
      <point x="530" y="75"/>
      <point x="360" y="75" type="curve"/>
    </contour>
  </outline>
</glyph>
<glyph name="U" format="2">
  <advance width="1574"/>
  <unicode hex="0055"/>
  <anchor x="805" y="1547" name="Lupper"/>
  <outline>
    <contour>
      <point x="806" y="-29" type="curve" smooth="yes"/>
      <point x="1140" y="-29"/>
      <point x="1330" y="131"/>
      <point x="1330" y="452" type="curve" smooth="yes"/>
      <point x="1330" y="1119" type="line" smooth="yes"/>
      <point x="1330" y="1259"/>
      <point x="1353" y="1324"/>
      <point x="1539" y="1324" type="curve"/>
      <point x="1539" y="1395" type="line"/>
      <point x="1016" y="1395" type="line"/>
      <point x="1016" y="1324" type="line"/>
      <point x="1201" y="1324"/>
      <point x="1225" y="1261"/>
      <point x="1225" y="1119" type="curve" smooth="yes"/>
      <point x="1225" y="436" type="line" smooth="yes"/>
      <point x="1225" y="249"/>
      <point x="1115" y="74"/>
      <point x="858" y="74" type="curve" smooth="yes"/>
      <point x="567" y="74"/>
      <point x="470" y="228"/>
      <point x="470" y="463" type="curve" smooth="yes"/>
      <point x="470" y="1178" type="line" smooth="yes"/>
      <point x="470" y="1270"/>
      <point x="472" y="1280"/>
      <point x="482" y="1298" type="curve" smooth="yes"/>
      <point x="494" y="1320"/>
      <point x="541" y="1324"/>
      <point x="689" y="1324" type="curve"/>
      <point x="689" y="1395" type="line"/>
      <point x="58" y="1395" type="line"/>
      <point x="58" y="1324" type="line"/>
      <point x="199" y="1324"/>
      <point x="241" y="1320"/>
      <point x="255" y="1300" type="curve" smooth="yes"/>
      <point x="266" y="1284"/>
      <point x="268" y="1270"/>
      <point x="268" y="1178" type="curve" smooth="yes"/>
      <point x="268" y="418" type="line" smooth="yes"/>
      <point x="268" y="107"/>
      <point x="474" y="-29"/>
    </contour>
  </outline>
</glyph>
<glyph name="V" format="2">
  <advance width="1395"/>
  <unicode hex="0056"/>
  <note>
V
</note>
  <guideline x="445" y="619" angle="291.7405"/>
  <guideline x="1018" y="576" angle="68.7791"/>
  <outline>
    <contour>
      <point x="671" y="-29" type="line"/>
      <point x="740" y="-29" type="line"/>
      <point x="1184" y="1136" type="line" smooth="yes"/>
      <point x="1241" y="1287"/>
      <point x="1274" y="1324"/>
      <point x="1405" y="1324" type="curve"/>
      <point x="1405" y="1395" type="line"/>
      <point x="895" y="1395" type="line"/>
      <point x="895" y="1324" type="line"/>
      <point x="952" y="1324" type="line"/>
      <point x="1038" y="1324"/>
      <point x="1112" y="1313"/>
      <point x="1112" y="1227" type="curve" smooth="yes"/>
      <point x="1112" y="1194"/>
      <point x="1099" y="1156"/>
      <point x="1084" y="1116" type="curve"/>
      <point x="733" y="194" type="line"/>
      <point x="778" y="194" type="line"/>
      <point x="384" y="1217" type="line" smooth="yes"/>
      <point x="374" y="1241"/>
      <point x="369" y="1267"/>
      <point x="369" y="1276" type="curve" smooth="yes"/>
      <point x="369" y="1311"/>
      <point x="410" y="1324"/>
      <point x="497" y="1324" type="curve" smooth="yes"/>
      <point x="574" y="1324" type="line"/>
      <point x="574" y="1395" type="line"/>
      <point x="-8" y="1395" type="line"/>
      <point x="-8" y="1324" type="line"/>
      <point x="119" y="1324"/>
      <point x="150" y="1301"/>
      <point x="183" y="1217" type="curve" smooth="yes"/>
    </contour>
  </outline>
</glyph>
<glyph name="W" format="2">
  <advance width="2009"/>
  <unicode hex="0057"/>
  <outline>
    <contour>
      <point x="1354" y="-31" type="line"/>
      <point x="1428" y="-31" type="line"/>
      <point x="1787" y="1193" type="line" smooth="yes"/>
      <point x="1833" y="1350"/>
      <point x="1874" y="1404"/>
      <point x="1999" y="1404" type="curve"/>
      <point x="1999" y="1479" type="line"/>
      <point x="1535" y="1479" type="line"/>
      <point x="1535" y="1404" type="line"/>
      <point x="1598" y="1404"/>
      <point x="1630" y="1397"/>
      <point x="1661" y="1381" type="curve" smooth="yes"/>
      <point x="1697" y="1363"/>
      <point x="1714" y="1336"/>
      <point x="1714" y="1298" type="curve" smooth="yes"/>
      <point x="1714" y="1277"/>
      <point x="1708" y="1250"/>
      <point x="1692" y="1196" type="curve" smooth="yes"/>
      <point x="1414" y="248" type="line"/>
      <point x="1463" y="248" type="line"/>
      <point x="1139" y="1292" type="line" smooth="yes"/>
      <point x="1128" y="1328"/>
      <point x="1125" y="1340"/>
      <point x="1125" y="1349" type="curve" smooth="yes"/>
      <point x="1125" y="1368"/>
      <point x="1137" y="1387"/>
      <point x="1155" y="1394" type="curve" smooth="yes"/>
      <point x="1178" y="1403"/>
      <point x="1211" y="1404"/>
      <point x="1321" y="1404" type="curve"/>
      <point x="1321" y="1479" type="line"/>
      <point x="716" y="1479" type="line"/>
      <point x="716" y="1404" type="line"/>
      <point x="851" y="1404"/>
      <point x="899" y="1390"/>
      <point x="915" y="1341" type="curve" smooth="yes"/>
    </contour>
    <contour>
      <point x="631" y="-31" type="line"/>
      <point x="710" y="-31" type="line"/>
      <point x="1021" y="1053" type="line"/>
      <point x="975" y="1225" type="line"/>
      <point x="699" y="265" type="line"/>
      <point x="731" y="265" type="line"/>
      <point x="401" y="1312" type="line" smooth="yes"/>
      <point x="394" y="1333"/>
      <point x="391" y="1353"/>
      <point x="391" y="1363" type="curve" smooth="yes"/>
      <point x="391" y="1394"/>
      <point x="419" y="1404"/>
      <point x="485" y="1404" type="curve" smooth="yes"/>
      <point x="543" y="1404" type="line"/>
      <point x="543" y="1479" type="line"/>
      <point x="32" y="1479" type="line"/>
      <point x="32" y="1404" type="line"/>
      <point x="154" y="1404"/>
      <point x="166" y="1396"/>
      <point x="189" y="1325" type="curve" smooth="yes"/>
    </contour>
  </outline>
</glyph>
<glyph name="X" format="2">
  <advance width="1442"/>
  <unicode hex="0058"/>
  <guideline x="835" y="1075" angle="235.2726"/>
  <guideline x="770" y="819" angle="124.5923"/>
  <outline>
    <contour>
      <point x="836" y="0" type="line"/>
      <point x="1445" y="0" type="line"/>
      <point x="1445" y="75" type="line"/>
      <point x="1323" y="75"/>
      <point x="1297" y="84"/>
      <point x="1234" y="175" type="curve" smooth="yes"/>
      <point x="455" y="1303" type="line" smooth="yes"/>
      <point x="433" y="1335"/>
      <point x="423" y="1357"/>
      <point x="423" y="1372" type="curve" smooth="yes"/>
      <point x="423" y="1398"/>
      <point x="441" y="1404"/>
      <point x="630" y="1404" type="curve"/>
      <point x="630" y="1479" type="line"/>
      <point x="19" y="1479" type="line"/>
      <point x="19" y="1404" type="line"/>
      <point x="143" y="1404"/>
      <point x="155" y="1393"/>
      <point x="220" y="1299" type="curve" smooth="yes"/>
      <point x="962" y="224" type="line" smooth="yes"/>
      <point x="996" y="175"/>
      <point x="1010" y="142"/>
      <point x="1010" y="120" type="curve" smooth="yes"/>
      <point x="1010" y="78"/>
      <point x="959" y="75"/>
      <point x="902" y="75" type="curve"/>
      <point x="836" y="75" type="line"/>
    </contour>
    <contour>
      <point x="21" y="0" type="line"/>
      <point x="572" y="0" type="line"/>
      <point x="572" y="75" type="line"/>
      <point x="442" y="75"/>
      <point x="375" y="103"/>
      <point x="375" y="167" type="curve" smooth="yes"/>
      <point x="375" y="202"/>
      <point x="395" y="248"/>
      <point x="435" y="306" type="curve" smooth="yes"/>
      <point x="685" y="667" type="line"/>
      <point x="780" y="750" type="line"/>
      <point x="1100" y="1211" type="line" smooth="yes"/>
      <point x="1204" y="1361"/>
      <point x="1246" y="1404"/>
      <point x="1393" y="1404" type="curve"/>
      <point x="1393" y="1479" type="line"/>
      <point x="859" y="1479" type="line"/>
      <point x="859" y="1404" type="line"/>
      <point x="981" y="1404"/>
      <point x="1045" y="1388"/>
      <point x="1045" y="1335" type="curve" smooth="yes"/>
      <point x="1045" y="1306"/>
      <point x="1026" y="1267"/>
      <point x="989" y="1213" type="curve" smooth="yes"/>
      <point x="732" y="843" type="line"/>
      <point x="641" y="765" type="line"/>
      <point x="277" y="239" type="line" smooth="yes"/>
      <point x="191" y="115"/>
      <point x="137" y="75"/>
      <point x="21" y="75" type="curve"/>
    </contour>
  </outline>
</glyph>
<glyph name="Y" format="2">
  <advance width="1360"/>
  <unicode hex="0059"/>
  <note>
Y
</note>
  <anchor x="714" y="1547" name="Lupper"/>
  <outline>
    <contour>
      <point x="1024" y="1145" type="curve" smooth="yes"/>
      <point x="739" y="622" type="line"/>
      <point x="771" y="622" type="line"/>
      <point x="396" y="1234" type="line" smooth="yes"/>
      <point x="381" y="1258"/>
      <point x="374" y="1274"/>
      <point x="374" y="1287" type="curve" smooth="yes"/>
      <point x="374" y="1313"/>
      <point x="398" y="1324"/>
      <point x="450" y="1324" type="curve" smooth="yes"/>
      <point x="590" y="1324" type="line"/>
      <point x="590" y="1395" type="line"/>
      <point x="-11" y="1395" type="line"/>
      <point x="-11" y="1324" type="line"/>
      <point x="119" y="1324"/>
      <point x="138" y="1310"/>
      <point x="183" y="1236" type="curve" smooth="yes"/>
      <point x="599" y="555" type="line"/>
      <point x="599" y="161" type="line" smooth="yes"/>
      <point x="599" y="119"/>
      <point x="599" y="115"/>
      <point x="587" y="98" type="curve" smooth="yes"/>
      <point x="565" y="70"/>
      <point x="519" y="71"/>
      <point x="390" y="71" type="curve"/>
      <point x="390" y="0" type="line"/>
      <point x="1010" y="0" type="line"/>
      <point x="1010" y="71" type="line"/>
      <point x="850" y="71"/>
      <point x="827" y="77"/>
      <point x="812" y="98" type="curve" smooth="yes"/>
      <point x="801" y="114"/>
      <point x="801" y="129"/>
      <point x="801" y="161" type="curve" smooth="yes"/>
      <point x="801" y="552" type="line"/>
      <point x="1133" y="1162" type="line" smooth="yes"/>
      <point x="1193" y="1273"/>
      <point x="1240" y="1324"/>
      <point x="1379" y="1324" type="curve"/>
      <point x="1379" y="1395" type="line"/>
      <point x="838" y="1395" type="line"/>
      <point x="838" y="1324" type="line"/>
      <point x="894" y="1324" type="line" smooth="yes"/>
      <point x="999" y="1324"/>
      <point x="1051" y="1288"/>
      <point x="1051" y="1230" type="curve" smooth="yes"/>
      <point x="1051" y="1205"/>
      <point x="1041" y="1177"/>
    </contour>
  </outline>
</glyph>
<glyph name="Z" format="2">
  <advance width="1251"/>
  <unicode hex="005A"/>
  <note>
Z
</note>
  <guideline x="638" y="1382" angle="90"/>
  <anchor x="638" y="1640" name="Lupper"/>
  <outline>
    <contour>
      <point x="1158" y="1395" type="line"/>
      <point x="1158" y="1479" type="line"/>
      <point x="165" y="1479" type="line"/>
      <point x="124" y="961" type="line"/>
      <point x="194" y="961" type="line"/>
      <point x="261" y="1305"/>
      <point x="415" y="1382"/>
      <point x="608" y="1382" type="curve" smooth="yes"/>
      <point x="956" y="1382" type="line"/>
      <point x="935" y="1421" type="line"/>
      <point x="74" y="84" type="line"/>
      <point x="74" y="0" type="line"/>
      <point x="1135" y="0" type="line"/>
      <point x="1172" y="569" type="line"/>
      <point x="1102" y="569" type="line"/>
      <point x="1054" y="264"/>
      <point x="937" y="96"/>
      <point x="685" y="96" type="curve" smooth="yes"/>
      <point x="274" y="96" type="line"/>
      <point x="294" y="57" type="line"/>
    </contour>
  </outline>
</glyph>
<glyph name="bracketleft" format="2">
  <advance width="682"/>
  <unicode hex="005B"/>
  <note>
bracketleft
</note>
  <outline>
    <contour>
      <point x="135" y="-221" type="line"/>
      <point x="608" y="-221" type="line"/>
      <point x="608" y="-146" type="line"/>
      <point x="348" y="-146" type="line" smooth="yes"/>
      <point x="310" y="-146"/>
      <point x="288" y="-124"/>
      <point x="288" y="-86" type="curve" smooth="yes"/>
      <point x="288" y="1344" type="line" smooth="yes"/>
      <point x="288" y="1382"/>
      <point x="310" y="1404"/>
      <point x="348" y="1404" type="curve" smooth="yes"/>
      <point x="608" y="1404" type="line"/>
      <point x="608" y="1479" type="line"/>
      <point x="135" y="1479" type="line"/>
    </contour>
  </outline>
</glyph>
<glyph name="backslash" format="2">
  <advance width="1171"/>
  <unicode hex="005C"/>
  <note>
backslash
</note>
  <outline>
    <contour>
      <point x="1028" y="0" type="line"/>
      <point x="255" y="1423" type="line"/>
      <point x="143" y="1423" type="line"/>
      <point x="916" y="0" type="line"/>
    </contour>
  </outline>
</glyph>
<glyph name="bracketright" format="2">
  <advance width="643"/>
  <unicode hex="005D"/>
  <note>
bracketright
</note>
  <outline>
    <contour>
      <point x="516" y="1393" type="line"/>
      <point x="70" y="1393" type="line"/>
      <point x="70" y="1322" type="line"/>
      <point x="315" y="1322" type="line" smooth="yes"/>
      <point x="351" y="1322"/>
      <point x="372" y="1302"/>
      <point x="372" y="1266" type="curve" smooth="yes"/>
      <point x="372" y="-83" type="line" smooth="yes"/>
      <point x="372" y="-119"/>
      <point x="351" y="-140"/>
      <point x="315" y="-140" type="curve" smooth="yes"/>
      <point x="70" y="-140" type="line"/>
      <point x="70" y="-210" type="line"/>
      <point x="516" y="-210" type="line"/>
    </contour>
  </outline>
</glyph>
<glyph name="asciicircum" format="2">
  <advance width="1171"/>
  <unicode hex="005E"/>
  <note>
asciicircum
</note>
  <guideline x="776" y="990" angle="117.9671"/>
  <outline>
    <contour>
      <point x="938" y="614" type="line"/>
      <point x="1071" y="614" type="line"/>
      <point x="669" y="1395" type="line"/>
      <point x="505" y="1395" type="line"/>
      <point x="100" y="614" type="line"/>
      <point x="231" y="614" type="line"/>
      <point x="599" y="1307" type="line"/>
      <point x="571" y="1307" type="line"/>
    </contour>
  </outline>
</glyph>
<glyph name="underscore" format="2">
  <advance width="966"/>
  <unicode hex="005F"/>
  <note>
underscore
</note>
  <outline>
    <contour>
      <point x="966" y="-141" type="line"/>
      <point x="0" y="-141" type="line"/>
      <point x="0" y="-258" type="line"/>
      <point x="966" y="-258" type="line"/>
    </contour>
  </outline>
</glyph>
<glyph name="a" format="2">
  <advance width="1139"/>
  <unicode hex="0061"/>
  <anchor x="528" y="1100" name="Lupper"/>
  <outline>
    <contour>
      <point x="539" y="965" type="curve" smooth="yes"/>
      <point x="326" y="965"/>
      <point x="148" y="848"/>
      <point x="148" y="702" type="curve" smooth="yes"/>
      <point x="148" y="627"/>
      <point x="202" y="581"/>
      <point x="268" y="581" type="curve" smooth="yes"/>
      <point x="325" y="581"/>
      <point x="370" y="619"/>
      <point x="370" y="684" type="curve" smooth="yes"/>
      <point x="370" y="710"/>
      <point x="358" y="729"/>
      <point x="341" y="754" type="curve" smooth="yes"/>
      <point x="326" y="775"/>
      <point x="316" y="792"/>
      <point x="316" y="799" type="curve" smooth="yes"/>
      <point x="316" y="856"/>
      <point x="447" y="889"/>
      <point x="504" y="889" type="curve" smooth="yes"/>
      <point x="574" y="889"/>
      <point x="644" y="874"/>
      <point x="680" y="844" type="curve" smooth="yes"/>
      <point x="719" y="812"/>
      <point x="733" y="749"/>
      <point x="733" y="659" type="curve" smooth="yes"/>
      <point x="733" y="402" type="line" smooth="yes"/>
      <point x="733" y="282"/>
      <point x="717" y="223"/>
      <point x="682" y="171" type="curve" smooth="yes"/>
      <point x="631" y="96"/>
      <point x="549" y="48"/>
      <point x="459" y="48" type="curve" smooth="yes"/>
      <point x="345" y="48"/>
      <point x="287" y="102"/>
      <point x="287" y="223" type="curve" smooth="yes"/>
      <point x="287" y="308"/>
      <point x="339" y="389"/>
      <point x="430" y="429" type="curve" smooth="yes"/>
      <point x="501" y="460"/>
      <point x="589" y="481"/>
      <point x="782" y="512" type="curve"/>
      <point x="782" y="579" type="line"/>
      <point x="526" y="539"/>
      <point x="461" y="519"/>
      <point x="352" y="480" type="curve" smooth="yes"/>
      <point x="197" y="425"/>
      <point x="100" y="308"/>
      <point x="100" y="180" type="curve" smooth="yes"/>
      <point x="100" y="63"/>
      <point x="205" y="-30"/>
      <point x="387" y="-30" type="curve" smooth="yes"/>
      <point x="539" y="-30"/>
      <point x="676" y="45"/>
      <point x="757" y="162" type="curve"/>
      <point x="732" y="168" type="line"/>
      <point x="764" y="36"/>
      <point x="815" y="-24"/>
      <point x="924" y="-24" type="curve" smooth="yes"/>
      <point x="996" y="-24"/>
      <point x="1039" y="7"/>
      <point x="1089" y="58" type="curve"/>
      <point x="1054" y="111" type="line"/>
      <point x="1015" y="88"/>
      <point x="995" y="84"/>
      <point x="979" y="84" type="curve" smooth="yes"/>
      <point x="921" y="84"/>
      <point x="901" y="140"/>
      <point x="901" y="243" type="curve" smooth="yes"/>
      <point x="901" y="636" type="line" smooth="yes"/>
      <point x="901" y="747"/>
      <point x="880" y="823"/>
      <point x="832" y="871" type="curve" smooth="yes"/>
      <point x="767" y="935"/>
      <point x="661" y="965"/>
    </contour>
  </outline>
</glyph>
<glyph name="b" format="2">
  <advance width="1074"/>
  <unicode hex="0062"/>
  <outline>
    <contour>
      <point x="587" y="-17" type="curve" smooth="yes"/>
      <point x="826" y="-17"/>
      <point x="978" y="183"/>
      <point x="978" y="457" type="curve" smooth="yes"/>
      <point x="978" y="730"/>
      <point x="839" y="922"/>
      <point x="607" y="922" type="curve" smooth="yes"/>
      <point x="498" y="922"/>
      <point x="390" y="845"/>
      <point x="321" y="724" type="curve"/>
      <point x="333" y="712" type="line"/>
      <point x="333" y="1406" type="line"/>
      <point x="26" y="1386" type="line"/>
      <point x="26" y="1315" type="line"/>
      <point x="94" y="1315" type="line" smooth="yes"/>
      <point x="168" y="1315"/>
      <point x="177" y="1301"/>
      <point x="177" y="1220" type="curve" smooth="yes"/>
      <point x="177" y="473" type="line" smooth="yes"/>
      <point x="177" y="210"/>
      <point x="172" y="87"/>
      <point x="148" y="6" type="curve"/>
      <point x="186" y="-8" type="line"/>
      <point x="239" y="40"/>
      <point x="267" y="87"/>
      <point x="307" y="169" type="curve"/>
      <point x="286" y="176" type="line"/>
      <point x="361" y="45"/>
      <point x="457" y="-17"/>
    </contour>
    <contour>
      <point x="578" y="45" type="curve" smooth="yes"/>
      <point x="426" y="45"/>
      <point x="332" y="174"/>
      <point x="332" y="436" type="curve" smooth="yes"/>
      <point x="332" y="689"/>
      <point x="423" y="839"/>
      <point x="573" y="839" type="curve" smooth="yes"/>
      <point x="718" y="839"/>
      <point x="799" y="705"/>
      <point x="799" y="454" type="curve" smooth="yes"/>
      <point x="799" y="213"/>
      <point x="720" y="45"/>
    </contour>
  </outline>
</glyph>
<glyph name="c" format="2">
  <advance width="909"/>
  <unicode hex="0063"/>
  <anchor x="478" y="0" name="Llower"/>
  <outline>
    <contour>
      <point x="858" y="255" type="curve"/>
      <point x="779" y="285" type="line"/>
      <point x="720" y="141"/>
      <point x="642" y="56"/>
      <point x="519" y="56" type="curve" smooth="yes"/>
      <point x="355" y="56"/>
      <point x="248" y="229"/>
      <point x="248" y="473" type="curve" smooth="yes"/>
      <point x="248" y="728"/>
      <point x="368" y="895"/>
      <point x="516" y="895" type="curve" smooth="yes"/>
      <point x="618" y="895"/>
      <point x="665" y="851"/>
      <point x="665" y="819" type="curve" smooth="yes"/>
      <point x="665" y="810"/>
      <point x="663" y="807"/>
      <point x="648" y="790" type="curve" smooth="yes"/>
      <point x="620" y="757"/>
      <point x="612" y="737"/>
      <point x="612" y="703" type="curve" smooth="yes"/>
      <point x="612" y="638"/>
      <point x="653" y="590"/>
      <point x="715" y="590" type="curve" smooth="yes"/>
      <point x="784" y="590"/>
      <point x="830" y="646"/>
      <point x="830" y="726" type="curve" smooth="yes"/>
      <point x="830" y="863"/>
      <point x="713" y="965"/>
      <point x="519" y="965" type="curve" smooth="yes"/>
      <point x="253" y="965"/>
      <point x="63" y="753"/>
      <point x="63" y="452" type="curve" smooth="yes"/>
      <point x="63" y="167"/>
      <point x="232" y="-30"/>
      <point x="476" y="-30" type="curve" smooth="yes"/>
      <point x="658" y="-30"/>
      <point x="770" y="42"/>
    </contour>
  </outline>
</glyph>
<glyph name="d" format="2">
  <advance width="1109"/>
  <unicode hex="0064"/>
  <outline>
    <contour>
      <point x="488" y="-28" type="curve" smooth="yes"/>
      <point x="648" y="-28"/>
      <point x="734" y="87"/>
      <point x="793" y="221" type="curve"/>
      <point x="763" y="209" type="line"/>
      <point x="763" y="135"/>
      <point x="769" y="58"/>
      <point x="784" y="-13" type="curve"/>
      <point x="1071" y="0" type="line"/>
      <point x="1071" y="81" type="line"/>
      <point x="1037" y="81" type="line" smooth="yes"/>
      <point x="926" y="81"/>
      <point x="917" y="98"/>
      <point x="917" y="220" type="curve" smooth="yes"/>
      <point x="917" y="1395" type="line"/>
      <point x="566" y="1374" type="line"/>
      <point x="566" y="1304" type="line"/>
      <point x="680" y="1304" type="line" smooth="yes"/>
      <point x="754" y="1304"/>
      <point x="763" y="1289"/>
      <point x="763" y="1208" type="curve" smooth="yes"/>
      <point x="763" y="689" type="line"/>
      <point x="783" y="723" type="line"/>
      <point x="713" y="839"/>
      <point x="609" y="910"/>
      <point x="488" y="910" type="curve" smooth="yes"/>
      <point x="269" y="910"/>
      <point x="103" y="705"/>
      <point x="103" y="432" type="curve" smooth="yes"/>
      <point x="103" y="162"/>
      <point x="263" y="-28"/>
    </contour>
    <contour>
      <point x="517" y="830" type="curve" smooth="yes"/>
      <point x="684" y="830"/>
      <point x="761" y="616"/>
      <point x="761" y="438" type="curve" smooth="yes"/>
      <point x="761" y="215"/>
      <point x="663" y="58"/>
      <point x="534" y="58" type="curve" smooth="yes"/>
      <point x="380" y="58"/>
      <point x="288" y="199"/>
      <point x="288" y="447" type="curve" smooth="yes"/>
      <point x="288" y="658"/>
      <point x="361" y="830"/>
    </contour>
  </outline>
</glyph>
<glyph name="e" format="2">
  <advance width="966"/>
  <unicode hex="0065"/>
  <anchor x="496" y="1038" name="Lupper"/>
  <outline>
    <contour>
      <point x="503" y="-28" type="curve" smooth="yes"/>
      <point x="688" y="-28"/>
      <point x="822" y="52"/>
      <point x="902" y="231" type="curve"/>
      <point x="835" y="267" type="line"/>
      <point x="756" y="121"/>
      <point x="669" y="56"/>
      <point x="539" y="56" type="curve" smooth="yes"/>
      <point x="336" y="56"/>
      <point x="256" y="225"/>
      <point x="256" y="447" type="curve" smooth="yes"/>
      <point x="256" y="623"/>
      <point x="317" y="854"/>
      <point x="496" y="854" type="curve" smooth="yes"/>
      <point x="612" y="854"/>
      <point x="704" y="756"/>
      <point x="704" y="605" type="curve" smooth="yes"/>
      <point x="704" y="548"/>
      <point x="687" y="503"/>
      <point x="624" y="503" type="curve" smooth="yes"/>
      <point x="223" y="503" type="line"/>
      <point x="223" y="436" type="line"/>
      <point x="886" y="436" type="line"/>
      <point x="886" y="720"/>
      <point x="734" y="910"/>
      <point x="498" y="910" type="curve" smooth="yes"/>
      <point x="251" y="910"/>
      <point x="80" y="701"/>
      <point x="80" y="417" type="curve" smooth="yes"/>
      <point x="80" y="150"/>
      <point x="241" y="-28"/>
    </contour>
  </outline>
</glyph>
<glyph name="f" format="2">
  <advance width="682"/>
  <unicode hex="0066"/>
  <outline>
    <contour>
      <point x="383" y="159" type="curve" smooth="yes"/>
      <point x="383" y="1050" type="line" smooth="yes"/>
      <point x="383" y="1150"/>
      <point x="387" y="1236"/>
      <point x="403" y="1276" type="curve" smooth="yes"/>
      <point x="438" y="1364"/>
      <point x="511" y="1408"/>
      <point x="583" y="1408" type="curve" smooth="yes"/>
      <point x="626" y="1408"/>
      <point x="673" y="1389"/>
      <point x="673" y="1365" type="curve" smooth="yes"/>
      <point x="673" y="1349"/>
      <point x="655" y="1331"/>
      <point x="644" y="1320" type="curve" smooth="yes"/>
      <point x="628" y="1305"/>
      <point x="608" y="1276"/>
      <point x="608" y="1250" type="curve" smooth="yes"/>
      <point x="608" y="1190"/>
      <point x="650" y="1151"/>
      <point x="708" y="1151" type="curve" smooth="yes"/>
      <point x="771" y="1151"/>
      <point x="813" y="1207"/>
      <point x="813" y="1280" type="curve" smooth="yes"/>
      <point x="813" y="1396"/>
      <point x="740" y="1479"/>
      <point x="574" y="1479" type="curve" smooth="yes"/>
      <point x="354" y="1479"/>
      <point x="215" y="1275"/>
      <point x="215" y="1036" type="curve" smooth="yes"/>
      <point x="215" y="153" type="line" smooth="yes"/>
      <point x="215" y="124"/>
      <point x="211" y="113"/>
      <point x="203" y="100" type="curve" smooth="yes"/>
      <point x="189" y="82"/>
      <point x="150" y="73"/>
      <point x="62" y="73" type="curve" smooth="yes"/>
      <point x="53" y="73" type="line"/>
      <point x="53" y="0" type="line"/>
      <point x="616" y="0" type="line"/>
      <point x="616" y="73" type="line"/>
      <point x="599" y="73"/>
      <point x="584" y="73"/>
      <point x="569" y="73" type="curve" smooth="yes"/>
      <point x="431" y="73"/>
      <point x="383" y="93"/>
    </contour>
    <contour>
      <point x="65" y="849" type="line"/>
      <point x="616" y="849" type="line"/>
      <point x="616" y="935" type="line"/>
      <point x="65" y="935" type="line"/>
    </contour>
  </outline>
</glyph>
<glyph name="g" format="2">
  <advance width="1100"/>
  <unicode hex="0067"/>
  <outline>
    <contour>
      <point x="487" y="-408" type="curve" smooth="yes"/>
      <point x="807" y="-408"/>
      <point x="988" y="-251"/>
      <point x="988" y="-90" type="curve" smooth="yes"/>
      <point x="988" y="-22"/>
      <point x="970" y="28"/>
      <point x="934" y="64" type="curve" smooth="yes"/>
      <point x="867" y="131"/>
      <point x="749" y="151"/>
      <point x="606" y="151" type="curve" smooth="yes"/>
      <point x="407" y="151" type="line" smooth="yes"/>
      <point x="295" y="151"/>
      <point x="236" y="167"/>
      <point x="236" y="219" type="curve" smooth="yes"/>
      <point x="236" y="287"/>
      <point x="294" y="319"/>
      <point x="431" y="319" type="curve" smooth="yes"/>
      <point x="590" y="319"/>
      <point x="728" y="354"/>
      <point x="815" y="426" type="curve" smooth="yes"/>
      <point x="877" y="478"/>
      <point x="914" y="548"/>
      <point x="914" y="638" type="curve" smooth="yes"/>
      <point x="914" y="842"/>
      <point x="746" y="965"/>
      <point x="534" y="965" type="curve" smooth="yes"/>
      <point x="291" y="965"/>
      <point x="136" y="833"/>
      <point x="136" y="632" type="curve" smooth="yes"/>
      <point x="136" y="503"/>
      <point x="233" y="396"/>
      <point x="358" y="352" type="curve"/>
      <point x="351" y="372" type="line"/>
      <point x="183" y="344"/>
      <point x="126" y="278"/>
      <point x="126" y="183" type="curve" smooth="yes"/>
      <point x="126" y="93"/>
      <point x="198" y="26"/>
      <point x="324" y="-7" type="curve"/>
      <point x="337" y="0" type="line"/>
      <point x="599" y="0" type="line"/>
      <point x="817" y="0"/>
      <point x="870" y="-94"/>
      <point x="870" y="-158" type="curve" smooth="yes"/>
      <point x="870" y="-243"/>
      <point x="743" y="-343"/>
      <point x="515" y="-343" type="curve" smooth="yes"/>
      <point x="325" y="-343"/>
      <point x="236" y="-275"/>
      <point x="236" y="-184" type="curve" smooth="yes"/>
      <point x="236" y="-110"/>
      <point x="316" y="-45"/>
      <point x="447" y="8" type="curve"/>
      <point x="317" y="14" type="line"/>
      <point x="161" y="-33"/>
      <point x="105" y="-110"/>
      <point x="105" y="-201" type="curve" smooth="yes"/>
      <point x="105" y="-320"/>
      <point x="266" y="-408"/>
    </contour>
    <contour>
      <point x="524" y="380" type="curve" smooth="yes"/>
      <point x="397" y="380"/>
      <point x="312" y="479"/>
      <point x="312" y="630" type="curve" smooth="yes"/>
      <point x="312" y="789"/>
      <point x="395" y="901"/>
      <point x="532" y="901" type="curve" smooth="yes"/>
      <point x="659" y="901"/>
      <point x="736" y="793"/>
      <point x="736" y="636" type="curve" smooth="yes"/>
      <point x="736" y="479"/>
      <point x="653" y="380"/>
    </contour>
    <contour>
      <point x="1020" y="786" type="curve" smooth="yes"/>
      <point x="1065" y="786"/>
      <point x="1094" y="823"/>
      <point x="1094" y="877" type="curve" smooth="yes"/>
      <point x="1094" y="940"/>
      <point x="1038" y="992"/>
      <point x="974" y="992" type="curve" smooth="yes"/>
      <point x="899" y="992"/>
      <point x="873" y="967"/>
      <point x="752" y="852" type="curve"/>
      <point x="801" y="800" type="line"/>
      <point x="864" y="874"/>
      <point x="891" y="889"/>
      <point x="913" y="889" type="curve" smooth="yes"/>
      <point x="923" y="889"/>
      <point x="937" y="877"/>
      <point x="941" y="855" type="curve" smooth="yes"/>
      <point x="949" y="807"/>
      <point x="981" y="786"/>
    </contour>
  </outline>
</glyph>
<glyph name="h" format="2">
  <advance width="1251"/>
  <unicode hex="0068"/>
  <outline>
    <contour>
      <point x="71" y="0" type="line"/>
      <point x="560" y="0" type="line"/>
      <point x="560" y="73" type="line"/>
      <point x="415" y="73"/>
      <point x="397" y="86"/>
      <point x="397" y="159" type="curve" smooth="yes"/>
      <point x="397" y="456" type="line" smooth="yes"/>
      <point x="397" y="554"/>
      <point x="406" y="645"/>
      <point x="430" y="691" type="curve" smooth="yes"/>
      <point x="477" y="781"/>
      <point x="568" y="850"/>
      <point x="666" y="850" type="curve" smooth="yes"/>
      <point x="815" y="850"/>
      <point x="876" y="717"/>
      <point x="876" y="570" type="curve" smooth="yes"/>
      <point x="876" y="151" type="line" smooth="yes"/>
      <point x="876" y="123"/>
      <point x="872" y="111"/>
      <point x="864" y="100" type="curve" smooth="yes"/>
      <point x="846" y="77"/>
      <point x="790" y="73"/>
      <point x="712" y="73" type="curve"/>
      <point x="712" y="0" type="line"/>
      <point x="1200" y="0" type="line"/>
      <point x="1200" y="73" type="line"/>
      <point x="1057" y="73"/>
      <point x="1039" y="86"/>
      <point x="1039" y="159" type="curve" smooth="yes"/>
      <point x="1039" y="562" type="line" smooth="yes"/>
      <point x="1039" y="707"/>
      <point x="1032" y="743"/>
      <point x="996" y="810" type="curve" smooth="yes"/>
      <point x="943" y="909"/>
      <point x="858" y="965"/>
      <point x="735" y="965" type="curve" smooth="yes"/>
      <point x="592" y="965"/>
      <point x="458" y="882"/>
      <point x="365" y="723" type="curve"/>
      <point x="397" y="726" type="line"/>
      <point x="397" y="1479" type="line"/>
      <point x="47" y="1457" type="line"/>
      <point x="47" y="1382" type="line"/>
      <point x="145" y="1382" type="line" smooth="yes"/>
      <point x="223" y="1382"/>
      <point x="233" y="1367"/>
      <point x="233" y="1281" type="curve" smooth="yes"/>
      <point x="233" y="151" type="line" smooth="yes"/>
      <point x="233" y="123"/>
      <point x="229" y="111"/>
      <point x="221" y="100" type="curve" smooth="yes"/>
      <point x="206" y="82"/>
      <point x="168" y="73"/>
      <point x="79" y="73" type="curve" smooth="yes"/>
      <point x="71" y="73" type="line"/>
    </contour>
  </outline>
</glyph>
<glyph name="i" format="2">
  <advance width="645"/>
  <unicode hex="0069"/>
  <note>
i
</note>
  <outline>
    <component base="dotlessi"/>
    <contour>
      <point x="308" y="1228" type="curve" smooth="yes"/>
      <point x="370" y="1228"/>
      <point x="420" y="1278"/>
      <point x="420" y="1341" type="curve" smooth="yes"/>
      <point x="420" y="1403"/>
      <point x="370" y="1453"/>
      <point x="308" y="1453" type="curve" smooth="yes"/>
      <point x="245" y="1453"/>
      <point x="195" y="1403"/>
      <point x="195" y="1341" type="curve" smooth="yes"/>
      <point x="195" y="1278"/>
      <point x="245" y="1228"/>
    </contour>
  </outline>
</glyph>
<glyph name="j" format="2">
  <advance width="606"/>
  <unicode hex="006A"/>
  <outline>
    <contour>
      <point x="137" y="-260" type="curve" smooth="yes"/>
      <point x="127" y="-207"/>
      <point x="100" y="-169"/>
      <point x="46" y="-169" type="curve" smooth="yes"/>
      <point x="-18" y="-169"/>
      <point x="-56" y="-222"/>
      <point x="-56" y="-278" type="curve" smooth="yes"/>
      <point x="-56" y="-361"/>
      <point x="5" y="-399"/>
      <point x="82" y="-399" type="curve" smooth="yes"/>
      <point x="197" y="-399"/>
      <point x="278" y="-360"/>
      <point x="335" y="-275" type="curve" smooth="yes"/>
      <point x="387" y="-197"/>
      <point x="427" y="-84"/>
      <point x="427" y="142" type="curve" smooth="yes"/>
      <point x="427" y="935" type="line"/>
      <point x="58" y="913" type="line"/>
      <point x="58" y="838" type="line"/>
      <point x="176" y="838" type="line" smooth="yes"/>
      <point x="254" y="838"/>
      <point x="264" y="823"/>
      <point x="264" y="737" type="curve" smooth="yes"/>
      <point x="264" y="46" type="line" smooth="yes"/>
      <point x="264" y="-114"/>
      <point x="254" y="-305"/>
      <point x="173" y="-305" type="curve" smooth="yes"/>
      <point x="152" y="-305"/>
      <point x="143" y="-290"/>
    </contour>
    <contour>
      <point x="315" y="1228" type="curve" smooth="yes"/>
      <point x="377" y="1228"/>
      <point x="427" y="1278"/>
      <point x="427" y="1341" type="curve" smooth="yes"/>
      <point x="427" y="1403"/>
      <point x="377" y="1453"/>
      <point x="315" y="1453" type="curve" smooth="yes"/>
      <point x="252" y="1453"/>
      <point x="202" y="1403"/>
      <point x="202" y="1341" type="curve" smooth="yes"/>
      <point x="202" y="1278"/>
      <point x="252" y="1228"/>
    </contour>
  </outline>
</glyph>
<glyph name="k" format="2">
  <advance width="1214"/>
  <unicode hex="006B"/>
  <guideline x="543" y="586" angle="223.4425"/>
  <outline>
    <contour>
      <point x="69" y="0" type="line"/>
      <point x="559" y="0" type="line"/>
      <point x="559" y="73" type="line"/>
      <point x="414" y="73"/>
      <point x="396" y="86"/>
      <point x="396" y="159" type="curve" smooth="yes"/>
      <point x="396" y="1479" type="line"/>
      <point x="45" y="1457" type="line"/>
      <point x="45" y="1382" type="line"/>
      <point x="143" y="1382" type="line" smooth="yes"/>
      <point x="221" y="1382"/>
      <point x="231" y="1367"/>
      <point x="231" y="1281" type="curve" smooth="yes"/>
      <point x="231" y="151" type="line" smooth="yes"/>
      <point x="231" y="123"/>
      <point x="227" y="111"/>
      <point x="219" y="100" type="curve" smooth="yes"/>
      <point x="204" y="82"/>
      <point x="166" y="73"/>
      <point x="77" y="73" type="curve" smooth="yes"/>
      <point x="69" y="73" type="line"/>
    </contour>
    <contour>
      <point x="678" y="0" type="line"/>
      <point x="1181" y="0" type="line"/>
      <point x="1181" y="73" type="line"/>
      <point x="1165" y="74"/>
      <point x="1160" y="75"/>
      <point x="1147" y="75" type="curve" smooth="yes"/>
      <point x="1062" y="75"/>
      <point x="1011" y="119"/>
      <point x="942" y="211" type="curve" smooth="yes"/>
      <point x="624" y="637" type="line"/>
      <point x="521" y="514" type="line"/>
      <point x="792" y="142" type="line" smooth="yes"/>
      <point x="803" y="127"/>
      <point x="807" y="117"/>
      <point x="807" y="109" type="curve" smooth="yes"/>
      <point x="807" y="80"/>
      <point x="784" y="73"/>
      <point x="716" y="73" type="curve" smooth="yes"/>
      <point x="678" y="73" type="line"/>
    </contour>
    <contour>
      <point x="360" y="302" type="line"/>
      <point x="780" y="688" type="line" smooth="yes"/>
      <point x="902" y="801"/>
      <point x="987" y="847"/>
      <point x="1126" y="863" type="curve"/>
      <point x="1126" y="935" type="line"/>
      <point x="616" y="935" type="line"/>
      <point x="616" y="863" type="line"/>
      <point x="680" y="863" type="line" smooth="yes"/>
      <point x="745" y="863"/>
      <point x="776" y="851"/>
      <point x="776" y="825" type="curve" smooth="yes"/>
      <point x="776" y="803"/>
      <point x="764" y="780"/>
      <point x="729" y="747" type="curve" smooth="yes"/>
      <point x="360" y="398" type="line"/>
    </contour>
  </outline>
</glyph>
<glyph name="l" format="2">
  <advance width="645"/>
  <unicode hex="006C"/>
  <outline>
    <contour>
      <point x="414" y="159" type="curve" smooth="yes"/>
      <point x="414" y="1479" type="line"/>
      <point x="63" y="1457" type="line"/>
      <point x="63" y="1382" type="line"/>
      <point x="163" y="1382" type="line" smooth="yes"/>
      <point x="239" y="1382"/>
      <point x="249" y="1367"/>
      <point x="249" y="1281" type="curve" smooth="yes"/>
      <point x="249" y="153" type="line" smooth="yes"/>
      <point x="249" y="123"/>
      <point x="245" y="111"/>
      <point x="237" y="100" type="curve" smooth="yes"/>
      <point x="223" y="82"/>
      <point x="184" y="73"/>
      <point x="96" y="73" type="curve" smooth="yes"/>
      <point x="81" y="73" type="line"/>
      <point x="81" y="0" type="line"/>
      <point x="584" y="0" type="line"/>
      <point x="584" y="73" type="line"/>
      <point x="569" y="73" type="line" smooth="yes"/>
      <point x="432" y="73"/>
      <point x="414" y="86"/>
    </contour>
  </outline>
</glyph>
<glyph name="m" format="2">
  <advance width="1718"/>
  <unicode hex="006D"/>
  <outline>
    <contour>
      <point x="85" y="0" type="line"/>
      <point x="545" y="0" type="line"/>
      <point x="545" y="69" type="line"/>
      <point x="410" y="69"/>
      <point x="393" y="81"/>
      <point x="393" y="152" type="curve" smooth="yes"/>
      <point x="393" y="502" type="line" smooth="yes"/>
      <point x="393" y="677"/>
      <point x="514" y="805"/>
      <point x="639" y="805" type="curve" smooth="yes"/>
      <point x="750" y="805"/>
      <point x="805" y="717"/>
      <point x="805" y="564" type="curve" smooth="yes"/>
      <point x="805" y="142" type="line" smooth="yes"/>
      <point x="805" y="117"/>
      <point x="801" y="106"/>
      <point x="792" y="94" type="curve" smooth="yes"/>
      <point x="780" y="78"/>
      <point x="742" y="69"/>
      <point x="651" y="69" type="curve"/>
      <point x="651" y="0" type="line"/>
      <point x="1114" y="0" type="line"/>
      <point x="1114" y="69" type="line"/>
      <point x="978" y="69"/>
      <point x="961" y="81"/>
      <point x="961" y="150" type="curve" smooth="yes"/>
      <point x="961" y="485" type="line" smooth="yes"/>
      <point x="961" y="673"/>
      <point x="1074" y="805"/>
      <point x="1209" y="805" type="curve" smooth="yes"/>
      <point x="1320" y="805"/>
      <point x="1373" y="714"/>
      <point x="1373" y="543" type="curve" smooth="yes"/>
      <point x="1373" y="144" type="line" smooth="yes"/>
      <point x="1373" y="117"/>
      <point x="1369" y="106"/>
      <point x="1360" y="94" type="curve" smooth="yes"/>
      <point x="1344" y="74"/>
      <point x="1291" y="69"/>
      <point x="1220" y="69" type="curve"/>
      <point x="1220" y="0" type="line"/>
      <point x="1682" y="0" type="line"/>
      <point x="1682" y="69" type="line"/>
      <point x="1546" y="69"/>
      <point x="1529" y="81"/>
      <point x="1529" y="152" type="curve" smooth="yes"/>
      <point x="1529" y="581" type="line" smooth="yes"/>
      <point x="1529" y="868"/>
      <point x="1361" y="910"/>
      <point x="1266" y="910" type="curve" smooth="yes"/>
      <point x="1131" y="910"/>
      <point x="1010" y="820"/>
      <point x="930" y="679" type="curve"/>
      <point x="954" y="682" type="line"/>
      <point x="931" y="812"/>
      <point x="838" y="910"/>
      <point x="698" y="910" type="curve" smooth="yes"/>
      <point x="571" y="910"/>
      <point x="455" y="837"/>
      <point x="374" y="696" type="curve"/>
      <point x="393" y="693" type="line"/>
      <point x="393" y="756"/>
      <point x="382" y="822"/>
      <point x="366" y="882" type="curve"/>
      <point x="75" y="861" type="line"/>
      <point x="75" y="790" type="line"/>
      <point x="155" y="790" type="line" smooth="yes"/>
      <point x="228" y="790"/>
      <point x="238" y="776"/>
      <point x="238" y="695" type="curve" smooth="yes"/>
      <point x="238" y="144" type="line" smooth="yes"/>
      <point x="238" y="116"/>
      <point x="234" y="105"/>
      <point x="226" y="94" type="curve" smooth="yes"/>
      <point x="213" y="77"/>
      <point x="176" y="69"/>
      <point x="93" y="69" type="curve" smooth="yes"/>
      <point x="85" y="69" type="line"/>
    </contour>
  </outline>
</glyph>
<glyph name="n" format="2">
  <advance width="1180"/>
  <unicode hex="006E"/>
  <anchor x="601" y="1038" name="Lupper"/>
  <outline>
    <contour>
      <point x="67" y="0" type="line"/>
      <point x="529" y="0" type="line"/>
      <point x="529" y="69" type="line"/>
      <point x="392" y="69"/>
      <point x="375" y="81"/>
      <point x="375" y="150" type="curve" smooth="yes"/>
      <point x="375" y="430" type="line" smooth="yes"/>
      <point x="375" y="523"/>
      <point x="384" y="610"/>
      <point x="406" y="654" type="curve" smooth="yes"/>
      <point x="449" y="739"/>
      <point x="536" y="804"/>
      <point x="628" y="804" type="curve" smooth="yes"/>
      <point x="769" y="804"/>
      <point x="826" y="678"/>
      <point x="826" y="540" type="curve" smooth="yes"/>
      <point x="826" y="144" type="line" smooth="yes"/>
      <point x="826" y="116"/>
      <point x="822" y="105"/>
      <point x="815" y="94" type="curve" smooth="yes"/>
      <point x="802" y="77"/>
      <point x="763" y="69"/>
      <point x="672" y="69" type="curve"/>
      <point x="672" y="0" type="line"/>
      <point x="1132" y="0" type="line"/>
      <point x="1132" y="69" type="line"/>
      <point x="997" y="69"/>
      <point x="980" y="81"/>
      <point x="980" y="150" type="curve" smooth="yes"/>
      <point x="980" y="608" type="line" smooth="yes"/>
      <point x="980" y="752"/>
      <point x="926" y="912"/>
      <point x="693" y="912" type="curve" smooth="yes"/>
      <point x="558" y="912"/>
      <point x="432" y="834"/>
      <point x="344" y="684" type="curve"/>
      <point x="385" y="693" type="line"/>
      <point x="385" y="756"/>
      <point x="374" y="822"/>
      <point x="357" y="882" type="curve"/>
      <point x="67" y="861" type="line"/>
      <point x="67" y="790" type="line"/>
      <point x="137" y="790" type="line" smooth="yes"/>
      <point x="210" y="790"/>
      <point x="220" y="776"/>
      <point x="220" y="695" type="curve" smooth="yes"/>
      <point x="220" y="144" type="line" smooth="yes"/>
      <point x="220" y="116"/>
      <point x="216" y="105"/>
      <point x="208" y="94" type="curve" smooth="yes"/>
      <point x="194" y="77"/>
      <point x="158" y="69"/>
      <point x="67" y="69" type="curve"/>
    </contour>
  </outline>
</glyph>
<glyph name="o" format="2">
  <advance width="966"/>
  <unicode hex="006F"/>
  <anchor x="483" y="1038" name="Lupper"/>
  <outline>
    <contour>
      <point x="483" y="910" type="curve" smooth="yes"/>
      <point x="245" y="910"/>
      <point x="80" y="705"/>
      <point x="80" y="440" type="curve" smooth="yes"/>
      <point x="80" y="180"/>
      <point x="251" y="-28"/>
      <point x="483" y="-28" type="curve" smooth="yes"/>
      <point x="715" y="-28"/>
      <point x="885" y="180"/>
      <point x="885" y="440" type="curve" smooth="yes"/>
      <point x="885" y="701"/>
      <point x="711" y="910"/>
    </contour>
    <contour>
      <point x="487" y="843" type="curve" smooth="yes"/>
      <point x="622" y="843"/>
      <point x="711" y="710"/>
      <point x="711" y="440" type="curve" smooth="yes"/>
      <point x="711" y="190"/>
      <point x="622" y="39"/>
      <point x="483" y="39" type="curve" smooth="yes"/>
      <point x="344" y="39"/>
      <point x="254" y="190"/>
      <point x="254" y="440" type="curve" smooth="yes"/>
      <point x="254" y="697"/>
      <point x="341" y="843"/>
    </contour>
  </outline>
</glyph>
<glyph name="p" format="2">
  <advance width="1176"/>
  <unicode hex="0070"/>
  <outline>
    <contour>
      <point x="63" y="-406" type="line"/>
      <point x="567" y="-406" type="line"/>
      <point x="567" y="-333" type="line"/>
      <point x="407" y="-333"/>
      <point x="389" y="-319"/>
      <point x="389" y="-247" type="curve" smooth="yes"/>
      <point x="389" y="178" type="line"/>
      <point x="373" y="180" type="line"/>
      <point x="438" y="39"/>
      <point x="534" y="-30"/>
      <point x="668" y="-30" type="curve" smooth="yes"/>
      <point x="933" y="-30"/>
      <point x="1078" y="192"/>
      <point x="1078" y="471" type="curve" smooth="yes"/>
      <point x="1078" y="760"/>
      <point x="929" y="965"/>
      <point x="680" y="965" type="curve" smooth="yes"/>
      <point x="542" y="965"/>
      <point x="444" y="877"/>
      <point x="374" y="734" type="curve"/>
      <point x="400" y="735" type="line"/>
      <point x="400" y="802"/>
      <point x="388" y="872"/>
      <point x="371" y="935" type="curve"/>
      <point x="63" y="913" type="line"/>
      <point x="63" y="838" type="line"/>
      <point x="137" y="838" type="line" smooth="yes"/>
      <point x="215" y="838"/>
      <point x="225" y="823"/>
      <point x="225" y="737" type="curve" smooth="yes"/>
      <point x="225" y="-255" type="line" smooth="yes"/>
      <point x="225" y="-283"/>
      <point x="221" y="-295"/>
      <point x="213" y="-305" type="curve" smooth="yes"/>
      <point x="199" y="-323"/>
      <point x="160" y="-333"/>
      <point x="63" y="-333" type="curve"/>
    </contour>
    <contour>
      <point x="642" y="877" type="curve" smooth="yes"/>
      <point x="796" y="877"/>
      <point x="881" y="698"/>
      <point x="881" y="454" type="curve" smooth="yes"/>
      <point x="881" y="199"/>
      <point x="795" y="41"/>
      <point x="647" y="41" type="curve" smooth="yes"/>
      <point x="500" y="41"/>
      <point x="387" y="191"/>
      <point x="387" y="438" type="curve" smooth="yes"/>
      <point x="387" y="706"/>
      <point x="494" y="877"/>
    </contour>
  </outline>
</glyph>
<glyph name="q" format="2">
  <advance width="1139"/>
  <unicode hex="0071"/>
  <outline>
    <contour>
      <point x="501" y="-30" type="curve" smooth="yes"/>
      <point x="671" y="-30"/>
      <point x="762" y="92"/>
      <point x="825" y="234" type="curve"/>
      <point x="790" y="203" type="line"/>
      <point x="790" y="-253" type="line" smooth="yes"/>
      <point x="790" y="-281"/>
      <point x="786" y="-293"/>
      <point x="778" y="-303" type="curve" smooth="yes"/>
      <point x="763" y="-321"/>
      <point x="724" y="-331"/>
      <point x="612" y="-331" type="curve"/>
      <point x="612" y="-406" type="line"/>
      <point x="1116" y="-406" type="line"/>
      <point x="1116" y="-331" type="line"/>
      <point x="973" y="-331"/>
      <point x="955" y="-317"/>
      <point x="955" y="-245" type="curve" smooth="yes"/>
      <point x="955" y="620" type="line" smooth="yes"/>
      <point x="955" y="779"/>
      <point x="966" y="857"/>
      <point x="991" y="943" type="curve"/>
      <point x="951" y="957" type="line"/>
      <point x="895" y="907"/>
      <point x="859" y="857"/>
      <point x="817" y="770" type="curve"/>
      <point x="839" y="770" type="line"/>
      <point x="753" y="902"/>
      <point x="644" y="965"/>
      <point x="504" y="965" type="curve" smooth="yes"/>
      <point x="272" y="965"/>
      <point x="96" y="743"/>
      <point x="96" y="446" type="curve" smooth="yes"/>
      <point x="96" y="171"/>
      <point x="262" y="-30"/>
    </contour>
    <contour>
      <point x="535" y="880" type="curve" smooth="yes"/>
      <point x="712" y="880"/>
      <point x="794" y="653"/>
      <point x="794" y="464" type="curve" smooth="yes"/>
      <point x="794" y="228"/>
      <point x="690" y="61"/>
      <point x="553" y="61" type="curve" smooth="yes"/>
      <point x="390" y="61"/>
      <point x="292" y="211"/>
      <point x="292" y="474" type="curve" smooth="yes"/>
      <point x="292" y="698"/>
      <point x="370" y="880"/>
    </contour>
  </outline>
</glyph>
<glyph name="r" format="2">
  <advance width="909"/>
  <unicode hex="0072"/>
  <outline>
    <contour>
      <point x="79" y="0" type="line"/>
      <point x="599" y="0" type="line"/>
      <point x="599" y="73" type="line"/>
      <point x="425" y="73"/>
      <point x="407" y="86"/>
      <point x="407" y="159" type="curve" smooth="yes"/>
      <point x="407" y="267" type="line" smooth="yes"/>
      <point x="407" y="421"/>
      <point x="454" y="610"/>
      <point x="522" y="735" type="curve" smooth="yes"/>
      <point x="567" y="817"/>
      <point x="621" y="871"/>
      <point x="677" y="871" type="curve" smooth="yes"/>
      <point x="688" y="871"/>
      <point x="693" y="866"/>
      <point x="694" y="859" type="curve" smooth="yes"/>
      <point x="695" y="851"/>
      <point x="691" y="839"/>
      <point x="685" y="829" type="curve" smooth="yes"/>
      <point x="670" y="806"/>
      <point x="665" y="791"/>
      <point x="665" y="762" type="curve" smooth="yes"/>
      <point x="665" y="709"/>
      <point x="700" y="650"/>
      <point x="769" y="650" type="curve" smooth="yes"/>
      <point x="837" y="650"/>
      <point x="872" y="703"/>
      <point x="872" y="781" type="curve" smooth="yes"/>
      <point x="872" y="890"/>
      <point x="804" y="955"/>
      <point x="696" y="955" type="curve" smooth="yes"/>
      <point x="552" y="955"/>
      <point x="440" y="797"/>
      <point x="372" y="541" type="curve"/>
      <point x="383" y="520" type="line"/>
      <point x="383" y="935" type="line"/>
      <point x="71" y="913" type="line"/>
      <point x="71" y="838" type="line"/>
      <point x="233" y="838"/>
      <point x="243" y="823"/>
      <point x="243" y="737" type="curve" smooth="yes"/>
      <point x="243" y="153" type="line" smooth="yes"/>
      <point x="243" y="123"/>
      <point x="239" y="111"/>
      <point x="231" y="100" type="curve" smooth="yes"/>
      <point x="216" y="82"/>
      <point x="175" y="73"/>
      <point x="79" y="73" type="curve"/>
    </contour>
  </outline>
</glyph>
<glyph name="s" format="2">
  <advance width="948"/>
  <unicode hex="0073"/>
  <anchor x="481" y="1100" name="Lupper"/>
  <outline>
    <contour>
      <point x="534" y="-30" type="curve" smooth="yes"/>
      <point x="735" y="-30"/>
      <point x="868" y="92"/>
      <point x="868" y="279" type="curve" smooth="yes"/>
      <point x="868" y="461"/>
      <point x="751" y="521"/>
      <point x="567" y="560" type="curve" smooth="yes"/>
      <point x="443" y="586"/>
      <point x="244" y="604"/>
      <point x="244" y="739" type="curve" smooth="yes"/>
      <point x="244" y="821"/>
      <point x="321" y="890"/>
      <point x="434" y="890" type="curve" smooth="yes"/>
      <point x="591" y="890"/>
      <point x="686" y="778"/>
      <point x="743" y="620" type="curve"/>
      <point x="815" y="620" type="line"/>
      <point x="795" y="957" type="line"/>
      <point x="723" y="957" type="line"/>
      <point x="645" y="849" type="line"/>
      <point x="699" y="864" type="line"/>
      <point x="617" y="936"/>
      <point x="538" y="965"/>
      <point x="424" y="965" type="curve" smooth="yes"/>
      <point x="264" y="965"/>
      <point x="125" y="841"/>
      <point x="125" y="674" type="curve" smooth="yes"/>
      <point x="125" y="500"/>
      <point x="238" y="446"/>
      <point x="414" y="406" type="curve" smooth="yes"/>
      <point x="522" y="381" type="line" smooth="yes"/>
      <point x="684" y="343"/>
      <point x="741" y="297"/>
      <point x="741" y="217" type="curve" smooth="yes"/>
      <point x="741" y="123"/>
      <point x="657" y="46"/>
      <point x="538" y="46" type="curve" smooth="yes"/>
      <point x="364" y="46"/>
      <point x="237" y="165"/>
      <point x="187" y="366" type="curve"/>
      <point x="105" y="366" type="line"/>
      <point x="125" y="-14" type="line"/>
      <point x="197" y="-14" type="line"/>
      <point x="284" y="104" type="line"/>
      <point x="229" y="90" type="line"/>
      <point x="320" y="9"/>
      <point x="419" y="-30"/>
    </contour>
  </outline>
</glyph>
<glyph name="t" format="2">
  <advance width="797"/>
  <unicode hex="0074"/>
  <outline>
    <contour>
      <point x="466" y="-30" type="curve" smooth="yes"/>
      <point x="630" y="-30"/>
      <point x="757" y="107"/>
      <point x="757" y="366" type="curve"/>
      <point x="681" y="366" type="line"/>
      <point x="675" y="184"/>
      <point x="621" y="92"/>
      <point x="521" y="92" type="curve" smooth="yes"/>
      <point x="409" y="92"/>
      <point x="375" y="179"/>
      <point x="375" y="271" type="curve" smooth="yes"/>
      <point x="375" y="1333" type="line"/>
      <point x="301" y="1333" type="line"/>
      <point x="281" y="1072"/>
      <point x="212" y="936"/>
      <point x="46" y="924" type="curve"/>
      <point x="46" y="849" type="line"/>
      <point x="229" y="849" type="line"/>
      <point x="208" y="895" type="line"/>
      <point x="208" y="227" type="line" smooth="yes"/>
      <point x="208" y="77"/>
      <point x="306" y="-30"/>
    </contour>
    <contour>
      <point x="329" y="849" type="line"/>
      <point x="681" y="849" type="line"/>
      <point x="681" y="941" type="line"/>
      <point x="329" y="941" type="line"/>
    </contour>
  </outline>
</glyph>
<glyph name="u" format="2">
  <advance width="1251"/>
  <unicode hex="0075"/>
  <anchor x="582" y="1100" name="Lupper"/>
  <outline>
    <contour>
      <point x="536" y="-30" type="curve" smooth="yes"/>
      <point x="654" y="-30"/>
      <point x="781" y="34"/>
      <point x="877" y="185" type="curve"/>
      <point x="856" y="199" type="line"/>
      <point x="856" y="128"/>
      <point x="868" y="49"/>
      <point x="885" y="-14" type="curve"/>
      <point x="1199" y="0" type="line"/>
      <point x="1199" y="75" type="line"/>
      <point x="1147" y="75" type="line" smooth="yes"/>
      <point x="1029" y="75"/>
      <point x="1018" y="91"/>
      <point x="1018" y="222" type="curve" smooth="yes"/>
      <point x="1018" y="935" type="line"/>
      <point x="663" y="913" type="line"/>
      <point x="663" y="838" type="line"/>
      <point x="768" y="838" type="line" smooth="yes"/>
      <point x="846" y="838"/>
      <point x="856" y="823"/>
      <point x="856" y="737" type="curve" smooth="yes"/>
      <point x="856" y="479" type="line" smooth="yes"/>
      <point x="856" y="363"/>
      <point x="849" y="271"/>
      <point x="817" y="206" type="curve" smooth="yes"/>
      <point x="773" y="116"/>
      <point x="672" y="62"/>
      <point x="571" y="62" type="curve" smooth="yes"/>
      <point x="430" y="62"/>
      <point x="387" y="144"/>
      <point x="387" y="298" type="curve" smooth="yes"/>
      <point x="387" y="935" type="line"/>
      <point x="55" y="913" type="line"/>
      <point x="55" y="838" type="line"/>
      <point x="133" y="838" type="line" smooth="yes"/>
      <point x="211" y="838"/>
      <point x="221" y="823"/>
      <point x="221" y="737" type="curve" smooth="yes"/>
      <point x="221" y="333" type="line" smooth="yes"/>
      <point x="221" y="102"/>
      <point x="319" y="-30"/>
    </contour>
  </outline>
</glyph>
<glyph name="v" format="2">
  <advance width="1100"/>
  <unicode hex="0076"/>
  <outline>
    <contour>
      <point x="789" y="674" type="curve" smooth="yes"/>
      <point x="597" y="200" type="line"/>
      <point x="610" y="201" type="line"/>
      <point x="362" y="762" type="line" smooth="yes"/>
      <point x="351" y="788"/>
      <point x="347" y="805"/>
      <point x="347" y="817" type="curve" smooth="yes"/>
      <point x="347" y="851"/>
      <point x="374" y="863"/>
      <point x="487" y="863" type="curve"/>
      <point x="487" y="935" type="line"/>
      <point x="26" y="935" type="line"/>
      <point x="26" y="863" type="line"/>
      <point x="121" y="863"/>
      <point x="149" y="843"/>
      <point x="178" y="777" type="curve" smooth="yes"/>
      <point x="530" y="-30" type="line"/>
      <point x="590" y="-30" type="line"/>
      <point x="881" y="674" type="line" smooth="yes"/>
      <point x="938" y="811"/>
      <point x="987" y="857"/>
      <point x="1079" y="863" type="curve"/>
      <point x="1079" y="935" type="line"/>
      <point x="682" y="935" type="line"/>
      <point x="682" y="863" type="line"/>
      <point x="802" y="863"/>
      <point x="820" y="839"/>
      <point x="820" y="793" type="curve" smooth="yes"/>
      <point x="820" y="768"/>
      <point x="815" y="739"/>
    </contour>
  </outline>
</glyph>
<glyph name="w" format="2">
  <advance width="1593"/>
  <unicode hex="0077"/>
  <outline>
    <contour>
      <point x="1053" y="-30" type="line"/>
      <point x="1105" y="-30" type="line"/>
      <point x="1392" y="711" type="line" smooth="yes"/>
      <point x="1438" y="829"/>
      <point x="1468" y="863"/>
      <point x="1558" y="863" type="curve"/>
      <point x="1558" y="935" type="line"/>
      <point x="1182" y="935" type="line"/>
      <point x="1182" y="863" type="line"/>
      <point x="1216" y="863" type="line" smooth="yes"/>
      <point x="1288" y="863"/>
      <point x="1317" y="843"/>
      <point x="1317" y="789" type="curve" smooth="yes"/>
      <point x="1317" y="768"/>
      <point x="1310" y="743"/>
      <point x="1283" y="672" type="curve" smooth="yes"/>
      <point x="1110" y="216" type="line"/>
      <point x="1133" y="216" type="line"/>
      <point x="921" y="761" type="line" smooth="yes"/>
      <point x="910" y="790"/>
      <point x="906" y="801"/>
      <point x="906" y="817" type="curve" smooth="yes"/>
      <point x="906" y="853"/>
      <point x="926" y="863"/>
      <point x="993" y="863" type="curve" smooth="yes"/>
      <point x="1043" y="863" type="line"/>
      <point x="1043" y="935" type="line"/>
      <point x="594" y="935" type="line"/>
      <point x="594" y="863" type="line"/>
      <point x="694" y="863"/>
      <point x="716" y="843"/>
      <point x="737" y="789" type="curve" smooth="yes"/>
    </contour>
    <contour>
      <point x="487" y="-30" type="line"/>
      <point x="550" y="-30" type="line"/>
      <point x="810" y="647" type="line"/>
      <point x="771" y="780" type="line"/>
      <point x="556" y="226" type="line"/>
      <point x="566" y="226" type="line"/>
      <point x="351" y="772" type="line" smooth="yes"/>
      <point x="345" y="786"/>
      <point x="342" y="805"/>
      <point x="342" y="817" type="curve" smooth="yes"/>
      <point x="342" y="851"/>
      <point x="365" y="863"/>
      <point x="426" y="863" type="curve" smooth="yes"/>
      <point x="463" y="863" type="line"/>
      <point x="463" y="935" type="line"/>
      <point x="37" y="935" type="line"/>
      <point x="37" y="863" type="line"/>
      <point x="131" y="863"/>
      <point x="153" y="835"/>
      <point x="180" y="764" type="curve" smooth="yes"/>
    </contour>
  </outline>
</glyph>
<glyph name="x" format="2">
  <advance width="1100"/>
  <unicode hex="0078"/>
  <guideline x="727" y="627" angle="229.6001"/>
  <outline>
    <contour>
      <point x="580" y="0" type="line"/>
      <point x="1075" y="0" type="line"/>
      <point x="1075" y="73" type="line"/>
      <point x="989" y="73"/>
      <point x="942" y="97"/>
      <point x="883" y="171" type="curve" smooth="yes"/>
      <point x="398" y="783" type="line" smooth="yes"/>
      <point x="386" y="799"/>
      <point x="377" y="814"/>
      <point x="377" y="827" type="curve" smooth="yes"/>
      <point x="377" y="853"/>
      <point x="404" y="863"/>
      <point x="467" y="863" type="curve" smooth="yes"/>
      <point x="496" y="863" type="line"/>
      <point x="496" y="935" type="line"/>
      <point x="44" y="935" type="line"/>
      <point x="44" y="863" type="line"/>
      <point x="119" y="857"/>
      <point x="149" y="838"/>
      <point x="214" y="755" type="curve"/>
      <point x="677" y="169" type="line" smooth="yes"/>
      <point x="692" y="150"/>
      <point x="703" y="123"/>
      <point x="703" y="109" type="curve" smooth="yes"/>
      <point x="703" y="82"/>
      <point x="672" y="73"/>
      <point x="580" y="73" type="curve"/>
    </contour>
    <contour>
      <point x="41" y="0" type="line"/>
      <point x="445" y="0" type="line"/>
      <point x="445" y="73" type="line"/>
      <point x="353" y="73"/>
      <point x="313" y="75"/>
      <point x="313" y="126" type="curve" smooth="yes"/>
      <point x="313" y="140"/>
      <point x="320" y="159"/>
      <point x="341" y="184" type="curve" smooth="yes"/>
      <point x="532" y="406" type="line"/>
      <point x="595" y="457" type="line"/>
      <point x="869" y="779" type="line" smooth="yes"/>
      <point x="920" y="839"/>
      <point x="978" y="863"/>
      <point x="1041" y="863" type="curve"/>
      <point x="1041" y="935" type="line"/>
      <point x="648" y="935" type="line"/>
      <point x="648" y="863" type="line"/>
      <point x="687" y="863" type="line" smooth="yes"/>
      <point x="749" y="863"/>
      <point x="779" y="849"/>
      <point x="779" y="819" type="curve" smooth="yes"/>
      <point x="779" y="799"/>
      <point x="765" y="770"/>
      <point x="739" y="739" type="curve" smooth="yes"/>
      <point x="554" y="521" type="line"/>
      <point x="504" y="483" type="line"/>
      <point x="238" y="178" type="line" smooth="yes"/>
      <point x="170" y="100"/>
      <point x="104" y="73"/>
      <point x="41" y="73" type="curve"/>
    </contour>
  </outline>
</glyph>
<glyph name="y" format="2">
  <advance width="1038"/>
  <unicode hex="0079"/>
  <anchor x="541" y="1038" name="Lupper"/>
  <outline>
    <contour>
      <point x="193" y="-379" type="curve" smooth="yes"/>
      <point x="295" y="-379"/>
      <point x="367" y="-341"/>
      <point x="449" y="-233" type="curve" smooth="yes"/>
      <point x="496" y="-171"/>
      <point x="535" y="-81"/>
      <point x="619" y="125" type="curve" smooth="yes"/>
      <point x="839" y="661" type="line" smooth="yes"/>
      <point x="883" y="771"/>
      <point x="925" y="814"/>
      <point x="1012" y="814" type="curve"/>
      <point x="1012" y="882" type="line"/>
      <point x="640" y="882" type="line"/>
      <point x="640" y="814" type="line"/>
      <point x="744" y="814"/>
      <point x="775" y="793"/>
      <point x="775" y="744" type="curve" smooth="yes"/>
      <point x="775" y="722"/>
      <point x="770" y="702"/>
      <point x="756" y="669" type="curve" smooth="yes"/>
      <point x="458" y="-53" type="line" smooth="yes"/>
      <point x="398" y="-200"/>
      <point x="299" y="-296"/>
      <point x="235" y="-296" type="curve" smooth="yes"/>
      <point x="217" y="-296"/>
      <point x="209" y="-288"/>
      <point x="209" y="-269" type="curve" smooth="yes"/>
      <point x="209" y="-267"/>
      <point x="210" y="-261"/>
      <point x="212" y="-255" type="curve" smooth="yes"/>
      <point x="214" y="-243"/>
      <point x="218" y="-229"/>
      <point x="218" y="-219" type="curve" smooth="yes"/>
      <point x="218" y="-166"/>
      <point x="177" y="-139"/>
      <point x="135" y="-139" type="curve" smooth="yes"/>
      <point x="90" y="-139"/>
      <point x="42" y="-173"/>
      <point x="42" y="-242" type="curve" smooth="yes"/>
      <point x="42" y="-307"/>
      <point x="98" y="-379"/>
    </contour>
    <contour>
      <point x="511" y="-26" type="line"/>
      <point x="604" y="144" type="line"/>
      <point x="344" y="726" type="line" smooth="yes"/>
      <point x="336" y="746"/>
      <point x="333" y="756"/>
      <point x="333" y="764" type="curve" smooth="yes"/>
      <point x="333" y="801"/>
      <point x="356" y="814"/>
      <point x="422" y="814" type="curve" smooth="yes"/>
      <point x="462" y="814" type="line"/>
      <point x="462" y="882" type="line"/>
      <point x="26" y="882" type="line"/>
      <point x="26" y="814" type="line"/>
      <point x="113" y="814"/>
      <point x="141" y="795"/>
      <point x="178" y="712" type="curve" smooth="yes"/>
    </contour>
  </outline>
</glyph>
<glyph name="z" format="2">
  <advance width="929"/>
  <unicode hex="007A"/>
  <guideline x="910" y="481" angle="266.1186"/>
  <guideline x="501" y="755" angle="90"/>
  <anchor x="473" y="1038" name="Lupper"/>
  <outline>
    <contour>
      <point x="832" y="814" type="line"/>
      <point x="832" y="882" type="line"/>
      <point x="154" y="882" type="line"/>
      <point x="132" y="562" type="line"/>
      <point x="203" y="562" type="line"/>
      <point x="218" y="731"/>
      <point x="289" y="815"/>
      <point x="453" y="815" type="curve" smooth="yes"/>
      <point x="674" y="815" type="line"/>
      <point x="656" y="836" type="line"/>
      <point x="104" y="69" type="line"/>
      <point x="104" y="0" type="line"/>
      <point x="822" y="0" type="line"/>
      <point x="845" y="340" type="line"/>
      <point x="774" y="340" type="line"/>
      <point x="765" y="249"/>
      <point x="732" y="174"/>
      <point x="690" y="133" type="curve" smooth="yes"/>
      <point x="648" y="90"/>
      <point x="585" y="71"/>
      <point x="497" y="71" type="curve" smooth="yes"/>
      <point x="265" y="71" type="line"/>
      <point x="278" y="46" type="line"/>
    </contour>
  </outline>
</glyph>
<glyph name="braceleft" format="2">
  <advance width="682"/>
  <unicode hex="007B"/>
  <outline>
    <contour>
      <point x="678" y="-341" type="curve"/>
      <point x="678" y="-302" type="line"/>
      <point x="574" y="-298"/>
      <point x="423" y="-162"/>
      <point x="423" y="-65" type="curve" smooth="yes"/>
      <point x="423" y="32"/>
      <point x="497" y="100"/>
      <point x="497" y="208" type="curve" smooth="yes"/>
      <point x="497" y="431"/>
      <point x="304" y="541"/>
      <point x="161" y="578" type="curve"/>
      <point x="161" y="560" type="line"/>
      <point x="304" y="597"/>
      <point x="497" y="707"/>
      <point x="497" y="930" type="curve" smooth="yes"/>
      <point x="497" y="1038"/>
      <point x="423" y="1106"/>
      <point x="423" y="1203" type="curve" smooth="yes"/>
      <point x="423" y="1300"/>
      <point x="574" y="1436"/>
      <point x="678" y="1440" type="curve"/>
      <point x="678" y="1479" type="line"/>
      <point x="485" y="1479"/>
      <point x="288" y="1320"/>
      <point x="288" y="1094" type="curve" smooth="yes"/>
      <point x="288" y="997"/>
      <point x="346" y="948"/>
      <point x="346" y="840" type="curve" smooth="yes"/>
      <point x="346" y="730"/>
      <point x="217" y="612"/>
      <point x="105" y="590" type="curve"/>
      <point x="105" y="548" type="line"/>
      <point x="217" y="526"/>
      <point x="346" y="408"/>
      <point x="346" y="298" type="curve" smooth="yes"/>
      <point x="346" y="190"/>
      <point x="288" y="151"/>
      <point x="288" y="44" type="curve" smooth="yes"/>
      <point x="288" y="-182"/>
      <point x="485" y="-341"/>
    </contour>
  </outline>
</glyph>
<glyph name="bar" format="2">
  <advance width="1171"/>
  <unicode hex="007C"/>
  <note>
bar
</note>
  <outline>
    <contour>
      <point x="660" y="-377" type="line"/>
      <point x="660" y="1395" type="line"/>
      <point x="510" y="1395" type="line"/>
      <point x="510" y="-377" type="line"/>
    </contour>
  </outline>
</glyph>
<glyph name="braceright" format="2">
  <advance width="682"/>
  <unicode hex="007D"/>
  <outline>
    <contour>
      <point x="4" y="-341" type="line"/>
      <point x="197" y="-341"/>
      <point x="394" y="-182"/>
      <point x="394" y="44" type="curve" smooth="yes"/>
      <point x="394" y="151"/>
      <point x="336" y="190"/>
      <point x="336" y="298" type="curve" smooth="yes"/>
      <point x="336" y="408"/>
      <point x="465" y="526"/>
      <point x="577" y="548" type="curve"/>
      <point x="577" y="590" type="line"/>
      <point x="465" y="612"/>
      <point x="336" y="730"/>
      <point x="336" y="840" type="curve" smooth="yes"/>
      <point x="336" y="948"/>
      <point x="394" y="997"/>
      <point x="394" y="1094" type="curve" smooth="yes"/>
      <point x="394" y="1320"/>
      <point x="197" y="1479"/>
      <point x="4" y="1479" type="curve"/>
      <point x="4" y="1440" type="line"/>
      <point x="108" y="1436"/>
      <point x="259" y="1300"/>
      <point x="259" y="1203" type="curve" smooth="yes"/>
      <point x="259" y="1106"/>
      <point x="185" y="1038"/>
      <point x="185" y="930" type="curve" smooth="yes"/>
      <point x="185" y="657"/>
      <point x="378" y="597"/>
      <point x="521" y="560" type="curve"/>
      <point x="521" y="578" type="line"/>
      <point x="378" y="541"/>
      <point x="185" y="431"/>
      <point x="185" y="208" type="curve" smooth="yes"/>
      <point x="185" y="100"/>
      <point x="259" y="32"/>
      <point x="259" y="-65" type="curve" smooth="yes"/>
      <point x="259" y="-162"/>
      <point x="108" y="-298"/>
      <point x="4" y="-302" type="curve"/>
    </contour>
  </outline>
</glyph>
<glyph name="asciitilde" format="2">
  <advance width="1171"/>
  <unicode hex="007E"/>
  <note>
asciitilde
</note>
  <outline>
    <contour>
      <point x="682" y="589" type="curve" smooth="yes"/>
      <point x="551" y="650" type="line" smooth="yes"/>
      <point x="459" y="692"/>
      <point x="362" y="706"/>
      <point x="320" y="706" type="curve" smooth="yes"/>
      <point x="138" y="706"/>
      <point x="62" y="568"/>
      <point x="62" y="404" type="curve"/>
      <point x="120" y="404" type="line"/>
      <point x="137" y="494"/>
      <point x="168" y="602"/>
      <point x="282" y="602" type="curve" smooth="yes"/>
      <point x="359" y="602"/>
      <point x="406" y="582"/>
      <point x="490" y="545" type="curve" smooth="yes"/>
      <point x="622" y="488" type="line" smooth="yes"/>
      <point x="712" y="448"/>
      <point x="810" y="429"/>
      <point x="853" y="429" type="curve" smooth="yes"/>
      <point x="1035" y="429"/>
      <point x="1110" y="567"/>
      <point x="1110" y="731" type="curve"/>
      <point x="1053" y="731" type="line"/>
      <point x="1036" y="640"/>
      <point x="1005" y="533"/>
      <point x="890" y="533" type="curve" smooth="yes"/>
      <point x="808" y="533"/>
      <point x="768" y="550"/>
    </contour>
  </outline>
</glyph>
<glyph name="cent" format="2">
  <advance width="1139"/>
  <unicode hex="00A2"/>
  <guideline x="827" y="1055" angle="248.4408"/>
  <outline>
    <contour>
      <point x="255" y="-394" type="line"/>
      <point x="343" y="-394" type="line"/>
      <point x="1035" y="1358" type="line"/>
      <point x="947" y="1358" type="line"/>
      <point x="770" y="912" type="line"/>
      <point x="760" y="886" type="line"/>
      <point x="755" y="873"/>
      <point x="722" y="791"/>
      <point x="716" y="775" type="curve"/>
    </contour>
    <contour>
      <point x="600" y="-31" type="curve" smooth="yes"/>
      <point x="784" y="-31"/>
      <point x="913" y="72"/>
      <point x="981" y="272" type="curve"/>
      <point x="901" y="301" type="line"/>
      <point x="846" y="162"/>
      <point x="764" y="98"/>
      <point x="648" y="98" type="curve" smooth="yes"/>
      <point x="440" y="98"/>
      <point x="330" y="262"/>
      <point x="330" y="494" type="curve" smooth="yes"/>
      <point x="330" y="755"/>
      <point x="463" y="908"/>
      <point x="637" y="908" type="curve" smooth="yes"/>
      <point x="741" y="908"/>
      <point x="769" y="848"/>
      <point x="769" y="835" type="curve" smooth="yes"/>
      <point x="769" y="809"/>
      <point x="753" y="773"/>
      <point x="724" y="761" type="curve"/>
      <point x="724" y="665" type="line"/>
      <point x="759" y="619"/>
      <point x="786" y="604"/>
      <point x="829" y="604" type="curve" smooth="yes"/>
      <point x="901" y="604"/>
      <point x="963" y="666"/>
      <point x="963" y="737" type="curve" smooth="yes"/>
      <point x="963" y="816"/>
      <point x="899" y="900"/>
      <point x="830" y="939" type="curve" smooth="yes"/>
      <point x="784" y="965"/>
      <point x="690" y="985"/>
      <point x="629" y="985" type="curve" smooth="yes"/>
      <point x="344" y="985"/>
      <point x="145" y="768"/>
      <point x="145" y="459" type="curve" smooth="yes"/>
      <point x="145" y="162"/>
      <point x="358" y="-31"/>
    </contour>
  </outline>
</glyph>
<glyph name="sterling" format="2">
  <advance width="1074"/>
  <unicode hex="00A3"/>
  <outline>
    <contour>
      <point x="201" y="-29" type="curve" smooth="yes"/>
      <point x="310" y="-29"/>
      <point x="387" y="40"/>
      <point x="464" y="149" type="curve" smooth="yes"/>
      <point x="516" y="222"/>
      <point x="536" y="335"/>
      <point x="536" y="459" type="curve" smooth="yes"/>
      <point x="536" y="682"/>
      <point x="435" y="902"/>
      <point x="435" y="1049" type="curve" smooth="yes"/>
      <point x="435" y="1192"/>
      <point x="527" y="1294"/>
      <point x="665" y="1294" type="curve" smooth="yes"/>
      <point x="751" y="1294"/>
      <point x="795" y="1253"/>
      <point x="795" y="1222" type="curve" smooth="yes"/>
      <point x="795" y="1214"/>
      <point x="793" y="1211"/>
      <point x="779" y="1195" type="curve" smooth="yes"/>
      <point x="753" y="1164"/>
      <point x="745" y="1145"/>
      <point x="745" y="1113" type="curve" smooth="yes"/>
      <point x="745" y="1052"/>
      <point x="784" y="1006"/>
      <point x="842" y="1006" type="curve" smooth="yes"/>
      <point x="907" y="1006"/>
      <point x="951" y="1059"/>
      <point x="951" y="1135" type="curve" smooth="yes"/>
      <point x="951" y="1264"/>
      <point x="822" y="1360"/>
      <point x="649" y="1360" type="curve" smooth="yes"/>
      <point x="421" y="1360"/>
      <point x="253" y="1207"/>
      <point x="253" y="977" type="curve" smooth="yes"/>
      <point x="253" y="738"/>
      <point x="392" y="534"/>
      <point x="392" y="332" type="curve" smooth="yes"/>
      <point x="392" y="215"/>
      <point x="320" y="42"/>
      <point x="207" y="42" type="curve" smooth="yes"/>
      <point x="146" y="42"/>
      <point x="105" y="78"/>
      <point x="105" y="131" type="curve" smooth="yes"/>
      <point x="105" y="181"/>
      <point x="143" y="218"/>
      <point x="195" y="218" type="curve" smooth="yes"/>
      <point x="249" y="218"/>
      <point x="292" y="188"/>
      <point x="385" y="113" type="curve" smooth="yes"/>
      <point x="503" y="18"/>
      <point x="611" y="-29"/>
      <point x="717" y="-29" type="curve" smooth="yes"/>
      <point x="881" y="-29"/>
      <point x="991" y="79"/>
      <point x="1038" y="284" type="curve"/>
      <point x="978" y="311" type="line"/>
      <point x="924" y="184"/>
      <point x="852" y="139"/>
      <point x="726" y="139" type="curve" smooth="yes"/>
      <point x="618" y="139"/>
      <point x="523" y="182"/>
      <point x="434" y="224" type="curve" smooth="yes"/>
      <point x="357" y="261"/>
      <point x="286" y="291"/>
      <point x="214" y="291" type="curve" smooth="yes"/>
      <point x="107" y="291"/>
      <point x="33" y="224"/>
      <point x="33" y="124" type="curve" smooth="yes"/>
      <point x="33" y="35"/>
      <point x="103" y="-29"/>
    </contour>
    <contour>
      <point x="70" y="628" type="line"/>
      <point x="835" y="628" type="line"/>
      <point x="835" y="719" type="line"/>
      <point x="70" y="719" type="line"/>
    </contour>
  </outline>
</glyph>
<glyph name="currency" format="2">
  <advance width="1074"/>
  <unicode hex="00A4"/>
  <note>
currency
</note>
  <outline>
    <contour>
      <point x="542" y="210" type="curve" smooth="yes"/>
      <point x="639" y="210"/>
      <point x="731" y="241"/>
      <point x="813" y="302" type="curve"/>
      <point x="905" y="208" type="line"/>
      <point x="999" y="302" type="line"/>
      <point x="905" y="395" type="line"/>
      <point x="967" y="476"/>
      <point x="997" y="567"/>
      <point x="997" y="665" type="curve" smooth="yes"/>
      <point x="997" y="764"/>
      <point x="967" y="855"/>
      <point x="903" y="943" type="curve"/>
      <point x="999" y="1038" type="line"/>
      <point x="905" y="1134" type="line"/>
      <point x="808" y="1036" type="line"/>
      <point x="722" y="1101"/>
      <point x="631" y="1132"/>
      <point x="531" y="1132" type="curve" smooth="yes"/>
      <point x="433" y="1132"/>
      <point x="342" y="1101"/>
      <point x="261" y="1039" type="curve"/>
      <point x="169" y="1134" type="line"/>
      <point x="75" y="1038" type="line"/>
      <point x="169" y="946" type="line"/>
      <point x="109" y="872"/>
      <point x="76" y="773"/>
      <point x="76" y="676" type="curve" smooth="yes"/>
      <point x="76" y="577"/>
      <point x="109" y="484"/>
      <point x="172" y="399" type="curve"/>
      <point x="75" y="302" type="line"/>
      <point x="169" y="208" type="line"/>
      <point x="265" y="306" type="line"/>
      <point x="344" y="244"/>
      <point x="445" y="210"/>
    </contour>
    <contour>
      <point x="533" y="360" type="curve" smooth="yes"/>
      <point x="367" y="360"/>
      <point x="226" y="502"/>
      <point x="226" y="672" type="curve" smooth="yes"/>
      <point x="226" y="843"/>
      <point x="367" y="981"/>
      <point x="537" y="981" type="curve" smooth="yes"/>
      <point x="709" y="981"/>
      <point x="847" y="843"/>
      <point x="847" y="673" type="curve" smooth="yes"/>
      <point x="847" y="496"/>
      <point x="709" y="360"/>
    </contour>
  </outline>
</glyph>
<glyph name="yen" format="2">
  <advance width="1139"/>
  <unicode hex="00A5"/>
  <guideline x="829" y="922" angle="67.6079"/>
  <guideline x="552" y="870" angle="294.805"/>
  <guideline x="589" y="798" angle="0"/>
  <guideline x="726" y="937" angle="247.4048"/>
  <outline>
    <contour>
      <point x="295" y="0" type="line"/>
      <point x="864" y="0" type="line"/>
      <point x="864" y="75" type="line"/>
      <point x="735" y="75"/>
      <point x="711" y="76"/>
      <point x="699" y="95" type="curve" smooth="yes"/>
      <point x="688" y="112"/>
      <point x="685" y="132"/>
      <point x="685" y="252" type="curve" smooth="yes"/>
      <point x="685" y="582" type="line"/>
      <point x="937" y="1185" type="line" smooth="yes"/>
      <point x="1005" y="1348"/>
      <point x="1036" y="1404"/>
      <point x="1141" y="1404" type="curve"/>
      <point x="1141" y="1479" type="line"/>
      <point x="723" y="1479" type="line"/>
      <point x="723" y="1404" type="line"/>
      <point x="758" y="1404" type="line" smooth="yes"/>
      <point x="825" y="1404"/>
      <point x="863" y="1378"/>
      <point x="863" y="1314" type="curve" smooth="yes"/>
      <point x="863" y="1282"/>
      <point x="854" y="1245"/>
      <point x="838" y="1206" type="curve" smooth="yes"/>
      <point x="612" y="662" type="line"/>
      <point x="649" y="662" type="line"/>
      <point x="350" y="1308" type="line" smooth="yes"/>
      <point x="339" y="1331"/>
      <point x="334" y="1351"/>
      <point x="334" y="1365" type="curve" smooth="yes"/>
      <point x="334" y="1392"/>
      <point x="350" y="1404"/>
      <point x="391" y="1404" type="curve" smooth="yes"/>
      <point x="450" y="1404" type="line"/>
      <point x="450" y="1479" type="line"/>
      <point x="-2" y="1479" type="line"/>
      <point x="-2" y="1404" type="line"/>
      <point x="94" y="1404"/>
      <point x="111" y="1391"/>
      <point x="147" y="1310" type="curve" smooth="yes"/>
      <point x="471" y="588" type="line"/>
      <point x="471" y="252" type="line" smooth="yes"/>
      <point x="471" y="124"/>
      <point x="471" y="122"/>
      <point x="461" y="104" type="curve" smooth="yes"/>
      <point x="449" y="83"/>
      <point x="422" y="75"/>
      <point x="295" y="75" type="curve"/>
    </contour>
    <contour>
      <point x="983" y="670" type="line"/>
      <point x="173" y="670" type="line"/>
      <point x="173" y="574" type="line"/>
      <point x="983" y="574" type="line"/>
    </contour>
    <contour>
      <point x="983" y="421" type="line"/>
      <point x="173" y="421" type="line"/>
      <point x="173" y="324" type="line"/>
      <point x="983" y="324" type="line"/>
    </contour>
  </outline>
</glyph>
<glyph name="brokenbar" format="2">
  <advance width="1241"/>
  <unicode hex="00A6"/>
  <note>
brokenbar
</note>
  <outline>
    <contour>
      <point x="700" y="739" type="line"/>
      <point x="700" y="1479" type="line"/>
      <point x="541" y="1479" type="line"/>
      <point x="541" y="739" type="line"/>
    </contour>
    <contour>
      <point x="700" y="-400" type="line"/>
      <point x="700" y="339" type="line"/>
      <point x="541" y="339" type="line"/>
      <point x="541" y="-400" type="line"/>
    </contour>
  </outline>
</glyph>
<glyph name="section" format="2">
  <advance width="1024"/>
  <unicode hex="00A7"/>
  <outline>
    <contour>
      <point x="522" y="-303" type="curve" smooth="yes"/>
      <point x="700" y="-303"/>
      <point x="831" y="-188"/>
      <point x="831" y="-33" type="curve" smooth="yes"/>
      <point x="831" y="139"/>
      <point x="700" y="228"/>
      <point x="566" y="338" type="curve"/>
      <point x="572" y="299" type="line"/>
      <point x="608" y="294"/>
      <point x="635" y="291"/>
      <point x="671" y="291" type="curve" smooth="yes"/>
      <point x="781" y="291"/>
      <point x="918" y="410"/>
      <point x="918" y="578" type="curve" smooth="yes"/>
      <point x="918" y="643"/>
      <point x="901" y="696"/>
      <point x="858" y="758" type="curve" smooth="yes"/>
      <point x="821" y="813"/>
      <point x="770" y="872"/>
      <point x="721" y="913" type="curve" smooth="yes"/>
      <point x="496" y="1102" type="line" smooth="yes"/>
      <point x="393" y="1188"/>
      <point x="356" y="1239"/>
      <point x="356" y="1296" type="curve" smooth="yes"/>
      <point x="356" y="1378"/>
      <point x="428" y="1440"/>
      <point x="524" y="1440" type="curve" smooth="yes"/>
      <point x="592" y="1440"/>
      <point x="653" y="1413"/>
      <point x="653" y="1384" type="curve" smooth="yes"/>
      <point x="653" y="1376"/>
      <point x="649" y="1372"/>
      <point x="635" y="1362" type="curve" smooth="yes"/>
      <point x="600" y="1339"/>
      <point x="582" y="1307"/>
      <point x="582" y="1270" type="curve" smooth="yes"/>
      <point x="582" y="1212"/>
      <point x="629" y="1169"/>
      <point x="694" y="1169" type="curve" smooth="yes"/>
      <point x="758" y="1169"/>
      <point x="807" y="1219"/>
      <point x="807" y="1282" type="curve" smooth="yes"/>
      <point x="807" y="1403"/>
      <point x="674" y="1507"/>
      <point x="518" y="1507" type="curve" smooth="yes"/>
      <point x="340" y="1507"/>
      <point x="215" y="1395"/>
      <point x="215" y="1237" type="curve" smooth="yes"/>
      <point x="215" y="1072"/>
      <point x="343" y="979"/>
      <point x="460" y="864" type="curve"/>
      <point x="456" y="913" type="line"/>
      <point x="429" y="913"/>
      <point x="402" y="913"/>
      <point x="375" y="913" type="curve" smooth="yes"/>
      <point x="231" y="913"/>
      <point x="119" y="797"/>
      <point x="119" y="647" type="curve" smooth="yes"/>
      <point x="119" y="514"/>
      <point x="180" y="416"/>
      <point x="261" y="349" type="curve" smooth="yes"/>
      <point x="504" y="150" type="line" smooth="yes"/>
      <point x="656" y="26"/>
      <point x="690" y="-23"/>
      <point x="690" y="-94" type="curve" smooth="yes"/>
      <point x="690" y="-176"/>
      <point x="616" y="-236"/>
      <point x="512" y="-236" type="curve" smooth="yes"/>
      <point x="446" y="-236"/>
      <point x="383" y="-209"/>
      <point x="383" y="-180" type="curve" smooth="yes"/>
      <point x="383" y="-174"/>
      <point x="389" y="-166"/>
      <point x="399" y="-158" type="curve" smooth="yes"/>
      <point x="440" y="-127"/>
      <point x="455" y="-104"/>
      <point x="455" y="-66" type="curve" smooth="yes"/>
      <point x="455" y="-6"/>
      <point x="408" y="37"/>
      <point x="342" y="37" type="curve" smooth="yes"/>
      <point x="279" y="37"/>
      <point x="229" y="-12"/>
      <point x="229" y="-76" type="curve" smooth="yes"/>
      <point x="229" y="-199"/>
      <point x="362" y="-303"/>
    </contour>
    <contour>
      <point x="399" y="481" type="curve" smooth="yes"/>
      <point x="285" y="586"/>
      <point x="254" y="635"/>
      <point x="254" y="711" type="curve" smooth="yes"/>
      <point x="254" y="795"/>
      <point x="315" y="858"/>
      <point x="401" y="858" type="curve" smooth="yes"/>
      <point x="453" y="858"/>
      <point x="522" y="829"/>
      <point x="638" y="729" type="curve" smooth="yes"/>
      <point x="721" y="657"/>
      <point x="782" y="573"/>
      <point x="782" y="492" type="curve" smooth="yes"/>
      <point x="782" y="414"/>
      <point x="717" y="344"/>
      <point x="643" y="344" type="curve" smooth="yes"/>
      <point x="575" y="344"/>
      <point x="504" y="385"/>
    </contour>
  </outline>
</glyph>
<glyph name="copyright" format="2">
  <advance width="1509"/>
  <unicode hex="00A9"/>
  <note>
copyright
</note>
  <outline>
    <contour>
      <point x="1087" y="821" type="line"/>
      <point x="1069" y="1192" type="line"/>
      <point x="1001" y="1192" type="line"/>
      <point x="958" y="1128" type="line"/>
      <point x="874" y="1186"/>
      <point x="831" y="1200"/>
      <point x="752" y="1200" type="curve" smooth="yes"/>
      <point x="524" y="1200"/>
      <point x="340" y="991"/>
      <point x="340" y="735" type="curve" smooth="yes"/>
      <point x="340" y="475"/>
      <point x="514" y="287"/>
      <point x="754" y="287" type="curve" smooth="yes"/>
      <point x="954" y="287"/>
      <point x="1075" y="401"/>
      <point x="1104" y="621" type="curve"/>
      <point x="1022" y="635" type="line"/>
      <point x="991" y="455"/>
      <point x="909" y="371"/>
      <point x="766" y="371" type="curve" smooth="yes"/>
      <point x="602" y="371"/>
      <point x="524" y="485"/>
      <point x="524" y="729" type="curve" smooth="yes"/>
      <point x="524" y="985"/>
      <point x="602" y="1116"/>
      <point x="754" y="1116" type="curve" smooth="yes"/>
      <point x="881" y="1116"/>
      <point x="956" y="1026"/>
      <point x="1010" y="821" type="curve"/>
    </contour>
    <contour>
      <point x="754" y="1509" type="curve" smooth="yes"/>
      <point x="330" y="1509"/>
      <point x="-16" y="1163"/>
      <point x="-16" y="739" type="curve" smooth="yes"/>
      <point x="-16" y="319"/>
      <point x="330" y="-31"/>
      <point x="743" y="-31" type="curve" smooth="yes"/>
      <point x="1180" y="-31"/>
      <point x="1524" y="309"/>
      <point x="1524" y="741" type="curve" smooth="yes"/>
      <point x="1524" y="1165"/>
      <point x="1178" y="1509"/>
    </contour>
    <contour>
      <point x="756" y="1415" type="curve" smooth="yes"/>
      <point x="1124" y="1415"/>
      <point x="1423" y="1112"/>
      <point x="1423" y="741" type="curve" smooth="yes"/>
      <point x="1423" y="362"/>
      <point x="1124" y="63"/>
      <point x="748" y="63" type="curve" smooth="yes"/>
      <point x="387" y="63"/>
      <point x="86" y="371"/>
      <point x="86" y="739" type="curve" smooth="yes"/>
      <point x="86" y="1112"/>
      <point x="385" y="1415"/>
    </contour>
  </outline>
</glyph>
<glyph name="logicalnot" format="2">
  <advance width="1241"/>
  <unicode hex="00AC"/>
  <note>
logicalnot
</note>
  <outline>
    <contour>
      <point x="1137" y="590" type="line"/>
      <point x="104" y="590" type="line"/>
      <point x="104" y="446" type="line"/>
      <point x="993" y="446" type="line"/>
      <point x="993" y="-10" type="line"/>
      <point x="1137" y="-10" type="line"/>
    </contour>
  </outline>
</glyph>
<glyph name="registered" format="2">
  <advance width="1509"/>
  <unicode hex="00AE"/>
  <note>
registered
</note>
  <outline>
    <contour>
      <point x="350" y="334" type="line"/>
      <point x="766" y="334" type="line"/>
      <point x="766" y="418" type="line"/>
      <point x="731" y="418" type="line" smooth="yes"/>
      <point x="676" y="418"/>
      <point x="649" y="422"/>
      <point x="645" y="430" type="curve"/>
      <point x="641" y="434"/>
      <point x="641" y="442"/>
      <point x="641" y="494" type="curve" smooth="yes"/>
      <point x="641" y="748" type="line"/>
      <point x="694" y="748" type="line" smooth="yes"/>
      <point x="805" y="748"/>
      <point x="846" y="700"/>
      <point x="858" y="580" type="curve" smooth="yes"/>
      <point x="861" y="559"/>
      <point x="863" y="539"/>
      <point x="866" y="518" type="curve" smooth="yes"/>
      <point x="881" y="375"/>
      <point x="928" y="317"/>
      <point x="1030" y="317" type="curve" smooth="yes"/>
      <point x="1133" y="317"/>
      <point x="1190" y="393"/>
      <point x="1190" y="526" type="curve" smooth="yes"/>
      <point x="1190" y="553" type="line"/>
      <point x="1112" y="553" type="line"/>
      <point x="1112" y="477"/>
      <point x="1100" y="436"/>
      <point x="1077" y="436" type="curve" smooth="yes"/>
      <point x="1057" y="436"/>
      <point x="1053" y="444"/>
      <point x="1032" y="526" type="curve" smooth="yes"/>
      <point x="1014" y="602" type="line" smooth="yes"/>
      <point x="987" y="698"/>
      <point x="958" y="739"/>
      <point x="891" y="774" type="curve"/>
      <point x="1038" y="813"/>
      <point x="1100" y="877"/>
      <point x="1100" y="989" type="curve" smooth="yes"/>
      <point x="1100" y="1133"/>
      <point x="981" y="1214"/>
      <point x="774" y="1214" type="curve" smooth="yes"/>
      <point x="350" y="1214" type="line"/>
      <point x="350" y="1130" type="line"/>
      <point x="387" y="1130" type="line" smooth="yes"/>
      <point x="444" y="1130"/>
      <point x="467" y="1126"/>
      <point x="475" y="1120" type="curve"/>
      <point x="479" y="1112"/>
      <point x="479" y="1112"/>
      <point x="479" y="1055" type="curve" smooth="yes"/>
      <point x="479" y="494" type="line" smooth="yes"/>
      <point x="479" y="438"/>
      <point x="479" y="436"/>
      <point x="475" y="430" type="curve" smooth="yes"/>
      <point x="471" y="422"/>
      <point x="442" y="418"/>
      <point x="387" y="418" type="curve" smooth="yes"/>
      <point x="350" y="418" type="line"/>
    </contour>
    <contour>
      <point x="754" y="831" type="curve" smooth="yes"/>
      <point x="641" y="831" type="line"/>
      <point x="641" y="1077" type="line" smooth="yes"/>
      <point x="641" y="1104"/>
      <point x="657" y="1130"/>
      <point x="707" y="1130" type="curve"/>
      <point x="770" y="1130" type="line" smooth="yes"/>
      <point x="883" y="1130"/>
      <point x="926" y="1090"/>
      <point x="926" y="987" type="curve" smooth="yes"/>
      <point x="926" y="881"/>
      <point x="872" y="831"/>
    </contour>
    <contour>
      <point x="754" y="1509" type="curve" smooth="yes"/>
      <point x="330" y="1509"/>
      <point x="-16" y="1163"/>
      <point x="-16" y="739" type="curve" smooth="yes"/>
      <point x="-16" y="319"/>
      <point x="330" y="-31"/>
      <point x="743" y="-31" type="curve" smooth="yes"/>
      <point x="1180" y="-31"/>
      <point x="1524" y="309"/>
      <point x="1524" y="741" type="curve" smooth="yes"/>
      <point x="1524" y="1165"/>
      <point x="1178" y="1509"/>
    </contour>
    <contour>
      <point x="756" y="1415" type="curve" smooth="yes"/>
      <point x="1122" y="1415"/>
      <point x="1423" y="1112"/>
      <point x="1423" y="741" type="curve" smooth="yes"/>
      <point x="1423" y="362"/>
      <point x="1124" y="63"/>
      <point x="748" y="63" type="curve" smooth="yes"/>
      <point x="385" y="63"/>
      <point x="84" y="371"/>
      <point x="84" y="739" type="curve" smooth="yes"/>
      <point x="84" y="1114"/>
      <point x="385" y="1415"/>
    </contour>
  </outline>
</glyph>
<glyph name="degree" format="2">
  <advance width="772"/>
  <unicode hex="00B0"/>
  <note>
degree
</note>
  <outline>
    <contour>
      <point x="387" y="734" type="curve" smooth="yes"/>
      <point x="549" y="734"/>
      <point x="680" y="865"/>
      <point x="680" y="1027" type="curve" smooth="yes"/>
      <point x="680" y="1189"/>
      <point x="549" y="1320"/>
      <point x="387" y="1320" type="curve" smooth="yes"/>
      <point x="224" y="1320"/>
      <point x="93" y="1189"/>
      <point x="93" y="1027" type="curve" smooth="yes"/>
      <point x="93" y="865"/>
      <point x="224" y="734"/>
    </contour>
    <contour>
      <point x="387" y="843" type="curve" smooth="yes"/>
      <point x="285" y="843"/>
      <point x="203" y="925"/>
      <point x="203" y="1027" type="curve" smooth="yes"/>
      <point x="203" y="1129"/>
      <point x="285" y="1211"/>
      <point x="387" y="1211" type="curve" smooth="yes"/>
      <point x="489" y="1211"/>
      <point x="571" y="1129"/>
      <point x="571" y="1027" type="curve" smooth="yes"/>
      <point x="571" y="925"/>
      <point x="489" y="843"/>
    </contour>
  </outline>
</glyph>
<glyph name="plusminus" format="2">
  <advance width="1241"/>
  <unicode hex="00B1"/>
  <note>
plusminus
</note>
  <outline>
    <contour>
      <point x="104" y="590" type="line"/>
      <point x="549" y="590" type="line"/>
      <point x="549" y="161" type="line"/>
      <point x="693" y="161" type="line"/>
      <point x="693" y="590" type="line"/>
      <point x="1137" y="590" type="line"/>
      <point x="1137" y="734" type="line"/>
      <point x="693" y="734" type="line"/>
      <point x="693" y="1163" type="line"/>
      <point x="549" y="1163" type="line"/>
      <point x="549" y="734" type="line"/>
      <point x="104" y="734" type="line"/>
    </contour>
    <contour>
      <point x="104" y="74" type="line"/>
      <point x="104" y="-70" type="line"/>
      <point x="1137" y="-70" type="line"/>
      <point x="1137" y="74" type="line"/>
    </contour>
  </outline>
</glyph>
<glyph name="uni00B5" format="2">
  <advance width="1251"/>
  <unicode hex="00B5"/>
  <note>
mu
</note>
  <outline>
    <component base="u"/>
    <contour>
      <point x="264" y="-449" type="curve" smooth="yes"/>
      <point x="323" y="-449"/>
      <point x="364" y="-387"/>
      <point x="364" y="-297" type="curve" smooth="yes"/>
      <point x="364" y="-254"/>
      <point x="358" y="-227"/>
      <point x="325" y="-109" type="curve" smooth="yes"/>
      <point x="310" y="-55"/>
      <point x="301" y="-5"/>
      <point x="301" y="133" type="curve"/>
      <point x="301" y="330" type="line"/>
      <point x="221" y="330" type="line"/>
      <point x="221" y="41" type="line" smooth="yes"/>
      <point x="221" y="-4"/>
      <point x="214" y="-51"/>
      <point x="196" y="-115" type="curve" smooth="yes"/>
      <point x="164" y="-228"/>
      <point x="162" y="-254"/>
      <point x="162" y="-301" type="curve" smooth="yes"/>
      <point x="162" y="-389"/>
      <point x="202" y="-449"/>
    </contour>
  </outline>
</glyph>
<glyph name="paragraph" format="2">
  <advance width="1241"/>
  <unicode hex="00B6"/>
  <outline>
    <contour>
      <point x="602" y="-295" type="line"/>
      <point x="685" y="-295" type="line"/>
      <point x="685" y="1406" type="line"/>
      <point x="849" y="1406" type="line"/>
      <point x="849" y="-295" type="line"/>
      <point x="933" y="-295" type="line"/>
      <point x="933" y="1326" type="line" smooth="yes"/>
      <point x="933" y="1355"/>
      <point x="937" y="1367"/>
      <point x="945" y="1377" type="curve" smooth="yes"/>
      <point x="961" y="1396"/>
      <point x="988" y="1402"/>
      <point x="1066" y="1406" type="curve"/>
      <point x="1066" y="1479" type="line"/>
      <point x="490" y="1479" type="line" smooth="yes"/>
      <point x="266" y="1479"/>
      <point x="135" y="1305"/>
      <point x="135" y="1071" type="curve" smooth="yes"/>
      <point x="135" y="805"/>
      <point x="277" y="664"/>
      <point x="602" y="664" type="curve"/>
    </contour>
  </outline>
</glyph>
<glyph name="onequarter" format="2">
  <advance width="1708"/>
  <unicode hex="00BC"/>
  <note>
onequarter
</note>
  <outline>
    <component base="one" xScale="0.6" yScale="0.6" xOffset="-9" yOffset="591"/>
    <component base="four" xScale="0.6" yScale="0.6" xOffset="951" yOffset="5"/>
    <contour>
      <point x="1462" y="1450" type="line"/>
      <point x="1346" y="1450" type="line"/>
      <point x="317" y="-40" type="line"/>
      <point x="434" y="-40" type="line"/>
    </contour>
  </outline>
</glyph>
<glyph name="onehalf" format="2">
  <advance width="1708"/>
  <unicode hex="00BD"/>
  <note>
onehalf
</note>
  <outline>
    <component base="one" xScale="0.6" yScale="0.6" xOffset="-2" yOffset="591"/>
    <component base="two" xScale="0.6" yScale="0.6" xOffset="1026" yOffset="5"/>
    <contour>
      <point x="1447" y="1450" type="line"/>
      <point x="1331" y="1450" type="line"/>
      <point x="303" y="-40" type="line"/>
      <point x="419" y="-40" type="line"/>
    </contour>
  </outline>
</glyph>
<glyph name="threequarters" format="2">
  <advance width="1708"/>
  <unicode hex="00BE"/>
  <note>
threequarters
</note>
  <outline>
    <component base="three" xScale="0.6" yScale="0.6" xOffset="35" yOffset="591"/>
    <component base="four" xScale="0.6" yScale="0.6" xOffset="951" yOffset="5"/>
    <contour>
      <point x="1483" y="1450" type="line"/>
      <point x="1366" y="1450" type="line"/>
      <point x="338" y="-40" type="line"/>
      <point x="455" y="-40" type="line"/>
    </contour>
  </outline>
</glyph>
<glyph name="AE" format="2">
  <advance width="2048"/>
  <unicode hex="00C6"/>
  <guideline x="512" y="820" angle="61.0279"/>
  <outline>
    <contour>
      <point x="530" y="1404" type="line"/>
      <point x="571" y="1404" type="line" smooth="yes"/>
      <point x="681" y="1404"/>
      <point x="741" y="1365"/>
      <point x="741" y="1287" type="curve" smooth="yes"/>
      <point x="741" y="1260"/>
      <point x="741" y="1233"/>
      <point x="717" y="1190" type="curve" smooth="yes"/>
      <point x="197" y="252" type="line" smooth="yes"/>
      <point x="135" y="141"/>
      <point x="94" y="75"/>
      <point x="-12" y="75" type="curve"/>
      <point x="-12" y="0" type="line"/>
      <point x="526" y="0" type="line"/>
      <point x="526" y="75" type="line"/>
      <point x="485" y="75" type="line" smooth="yes"/>
      <point x="375" y="75"/>
      <point x="309" y="114"/>
      <point x="309" y="192" type="curve" smooth="yes"/>
      <point x="309" y="219"/>
      <point x="309" y="246"/>
      <point x="333" y="289" type="curve" smooth="yes"/>
      <point x="921" y="1351" type="line"/>
      <point x="928" y="1364"/>
      <point x="936" y="1371"/>
      <point x="944" y="1371" type="curve" smooth="yes"/>
      <point x="956" y="1371"/>
      <point x="961" y="1357"/>
      <point x="961" y="1331" type="curve"/>
      <point x="961" y="1479" type="line"/>
      <point x="530" y="1479" type="line"/>
    </contour>
    <contour>
      <point x="739" y="0" type="line"/>
      <point x="1927" y="0" type="line"/>
      <point x="1968" y="547" type="line"/>
      <point x="1893" y="547" type="line"/>
      <point x="1815" y="182"/>
      <point x="1731" y="96"/>
      <point x="1418" y="96" type="curve" smooth="yes"/>
      <point x="1337" y="96" type="line" smooth="yes"/>
      <point x="1200" y="96"/>
      <point x="1175" y="121"/>
      <point x="1175" y="195" type="curve"/>
      <point x="1175" y="1280" type="line" smooth="yes"/>
      <point x="1175" y="1366"/>
      <point x="1193" y="1382"/>
      <point x="1319" y="1382" type="curve" smooth="yes"/>
      <point x="1368" y="1382" type="line" smooth="yes"/>
      <point x="1704" y="1382"/>
      <point x="1788" y="1311"/>
      <point x="1854" y="956" type="curve"/>
      <point x="1929" y="956" type="line"/>
      <point x="1900" y="1479" type="line"/>
      <point x="961" y="1479" type="line"/>
      <point x="961" y="231" type="line" smooth="yes"/>
      <point x="961" y="126"/>
      <point x="961" y="122"/>
      <point x="948" y="104" type="curve" smooth="yes"/>
      <point x="932" y="83"/>
      <point x="893" y="75"/>
      <point x="776" y="75" type="curve" smooth="yes"/>
      <point x="739" y="75" type="line"/>
    </contour>
    <contour>
      <point x="384" y="479" type="line"/>
      <point x="1065" y="479" type="line"/>
      <point x="1065" y="590" type="line"/>
      <point x="444" y="590" type="line"/>
    </contour>
    <contour>
      <point x="1507" y="422" type="curve"/>
      <point x="1582" y="422" type="line"/>
      <point x="1582" y="1094" type="line"/>
      <point x="1507" y="1094" type="line"/>
      <point x="1495" y="893"/>
      <point x="1400" y="813"/>
      <point x="1205" y="813" type="curve" smooth="yes"/>
      <point x="1089" y="813" type="line"/>
      <point x="1089" y="717" type="line"/>
      <point x="1197" y="717" type="line" smooth="yes"/>
      <point x="1408" y="717"/>
      <point x="1499" y="649"/>
    </contour>
  </outline>
</glyph>
<glyph name="Eth" format="2">
  <advance width="1503"/>
  <unicode hex="00D0"/>
  <note>
Eth
</note>
  <outline>
    <component base="D"/>
    <contour>
      <point x="60" y="762" type="line"/>
      <point x="60" y="681" type="line"/>
      <point x="822" y="681" type="line"/>
      <point x="822" y="762" type="line"/>
    </contour>
  </outline>
</glyph>
<glyph name="multiply" format="2">
  <advance width="1171"/>
  <unicode hex="00D7"/>
  <note>
multiply
</note>
  <outline>
    <contour>
      <point x="1066" y="104" type="line"/>
      <point x="200" y="970" type="line"/>
      <point x="105" y="874" type="line"/>
      <point x="971" y="8" type="line"/>
    </contour>
    <contour>
      <point x="200" y="8" type="line"/>
      <point x="1066" y="874" type="line"/>
      <point x="971" y="970" type="line"/>
      <point x="105" y="104" type="line"/>
    </contour>
  </outline>
</glyph>
<glyph name="Oslash" format="2">
  <advance width="1593"/>
  <unicode hex="00D8"/>
  <note>
Oslash
</note>
  <outline>
    <component base="O"/>
    <contour>
      <point x="150" y="1" type="line"/>
      <point x="270" y="1" type="line"/>
      <point x="1444" y="1489" type="line"/>
      <point x="1324" y="1489" type="line"/>
    </contour>
  </outline>
</glyph>
<glyph name="Thorn" format="2">
  <advance width="1366"/>
  <unicode hex="00DE"/>
  <outline>
    <contour>
      <point x="57" y="0" type="line"/>
      <point x="720" y="0" type="line"/>
      <point x="720" y="75" type="line"/>
      <point x="679" y="75" type="line" smooth="yes"/>
      <point x="565" y="75"/>
      <point x="524" y="81"/>
      <point x="509" y="104" type="curve" smooth="yes"/>
      <point x="498" y="121"/>
      <point x="497" y="134"/>
      <point x="497" y="252" type="curve" smooth="yes"/>
      <point x="497" y="975" type="line" smooth="yes"/>
      <point x="497" y="1073"/>
      <point x="539" y="1081"/>
      <point x="616" y="1081" type="curve" smooth="yes"/>
      <point x="662" y="1081" type="line" smooth="yes"/>
      <point x="918" y="1081"/>
      <point x="1077" y="1027"/>
      <point x="1077" y="778" type="curve" smooth="yes"/>
      <point x="1077" y="532"/>
      <point x="962" y="453"/>
      <point x="606" y="453" type="curve" smooth="yes"/>
      <point x="452" y="453" type="line"/>
      <point x="452" y="360" type="line"/>
      <point x="629" y="360" type="line" smooth="yes"/>
      <point x="967" y="360"/>
      <point x="1307" y="446"/>
      <point x="1307" y="776" type="curve" smooth="yes"/>
      <point x="1307" y="1087"/>
      <point x="974" y="1176"/>
      <point x="647" y="1176" type="curve" smooth="yes"/>
      <point x="497" y="1176" type="line"/>
      <point x="497" y="1347"/>
      <point x="497" y="1359"/>
      <point x="509" y="1376" type="curve" smooth="yes"/>
      <point x="525" y="1399"/>
      <point x="563" y="1404"/>
      <point x="679" y="1404" type="curve" smooth="yes"/>
      <point x="720" y="1404" type="line"/>
      <point x="720" y="1479" type="line"/>
      <point x="57" y="1479" type="line"/>
      <point x="57" y="1404" type="line"/>
      <point x="98" y="1404" type="line" smooth="yes"/>
      <point x="215" y="1404"/>
      <point x="254" y="1400"/>
      <point x="270" y="1376" type="curve" smooth="yes"/>
      <point x="282" y="1358"/>
      <point x="283" y="1349"/>
      <point x="283" y="1227" type="curve" smooth="yes"/>
      <point x="283" y="252" type="line" smooth="yes"/>
      <point x="283" y="129"/>
      <point x="283" y="122"/>
      <point x="270" y="104" type="curve" smooth="yes"/>
      <point x="254" y="83"/>
      <point x="215" y="75"/>
      <point x="98" y="75" type="curve" smooth="yes"/>
      <point x="57" y="75" type="line"/>
    </contour>
  </outline>
</glyph>
